<?xml version="1.0" encoding="utf-8" ?>
<svg baseProfile="full" height="200mm" version="1.1" viewBox="0,0,200,200" width="200mm" xmlns="http://www.w3.org/2000/svg" xmlns:ev="http://www.w3.org/2001/xml-events" xmlns:xlink="http://www.w3.org/1999/xlink"><defs /><rect fill="#1a1a1a" height="200" width="200" x="0" y="0" /><text alignment-baseline="middle" fill="#e1ed5e" style="dominant-baseline: central; font-size:9.0px; font-family:Arial;" text-anchor="middle" x="100.0" y="100.0">2023</text><line stroke="#e1ed5e" stroke-width="0.3" x1="100.0" x2="100.0" y1="15.0" y2="10.0" /><path d="M 100.0 14.0 a86.0,86.0 0 0,1 42.46469731375804,11.215312516191453" fill="none" id="id13" stroke="none" /><text fill="#e1ed5e" style="font-size:6.75px; font-family:Arial;" text-anchor="middle"><textPath startOffset="22.20632615414155" xlink:href="#id13">January</textPath></text><path d="M 104.307194497241 79.44645832069477 l 2.5490893597832978 -12.164023341444175 a33.428246876183266,33.428246876183266 0 0,0 0.5621632668150581,0.1228671162457252 l -2.758095350751884 12.11834272710258" fill="#ff8d0d" stroke="none" /><path d="M 104.66035177308747 79.52364482259891 l 2.7686830488353835 -12.164862276918708 a33.47595607724347,33.47595607724347 0 0,0 0.5607642097265338,0.1327147708772976 l -2.977670945524441 12.115401593900541" fill="#ff8e0d" stroke="none" /><path d="M 105.01212808612495 79.60689891045804 l 2.9719775020339547 -12.092236390088114 a33.452101476713366,33.452101476713366 0 0,0 0.5579987524809161,0.14224630636788071 l -3.179685143199896 12.039287087551365" fill="#ff8e0d" stroke="none" /><path d="M 108.43124777332544 80.76684994638697 l 3.8309342400569943 -8.739030694561015 a30.541840212040896,30.541840212040896 0 0,0 0.4796783350886396,0.21521768666641555 l -3.980794693612414 8.671792677378068" fill="#ff6509" stroke="none" /><line stroke="#e1ed5e" stroke-width="0.3" x1="143.23703022742887" x2="145.7803849466894" y1="26.81831364943548" y2="22.513508569990506" /><path d="M 143.74570117128098 25.957352633546492 a86.0,86.0 0 0,1 28.547481713284135,27.462654790039103" fill="none" id="id14" stroke="none" /><text fill="#e1ed5e" style="font-size:6.75px; font-family:Arial;" text-anchor="middle"><textPath startOffset="19.985693538727396" xlink:href="#id14">February</textPath></text><path d="M 111.2981086023043 82.29822771554956 l 6.712128889441663 -10.516501595722353 a33.47595607724347,33.47595607724347 0 0,0 0.48306278737151853,0.3141974741720511 l -6.892158702597462 10.399405197390774" fill="#ff8e0d" stroke="none" /><path d="M 111.60114157652 82.49532879139004 l 13.573467425765557 -20.480664155473228 a45.5702385460053,45.5702385460053 0 0,0 0.6501252163408211,0.43896744816975447 l -13.923997336512919 20.243984795004803" fill="#d5ff1c" stroke="none" /><path d="M 112.19680574252982 82.90503203632743 l 7.356876769348731 -10.311353262449982 a33.666792881484284,33.666792881484284 0 0,0 0.4688576791208098,0.3406450434631574 l -7.533279764823329 10.183188984170151" fill="#ff910d" stroke="none" /><path d="M 112.48926042617603 83.11751280151076 l 7.433970992029048 -10.048947321478641 a33.49981067777357,33.49981067777357 0 0,0 0.4606285324558623,0.3469358608147918 l -7.605845678243293 9.919494871158001" fill="#ff8e0d" stroke="none" /><path d="M 112.77801427241765 83.33499621200491 l 4.659306226557439 -6.076637125270458 a28.65732677016282,28.65732677016282 0 0,0 0.38887643741212163,0.3035242276560017 l -4.763215219128991 5.995534508391232" fill="#ff4b07" stroke="none" /><path d="M 113.6212207817346 84.01681056812373 l 8.24700190457919 -9.677061681775902 a33.71450208254449,33.71450208254449 0 0,0 0.43845902829902306,0.3802273486939015 l -8.412354731524978 9.533669339662328" fill="#ff910d" stroke="none" /><path d="M 114.16331599549186 84.49514656593476 l 8.398240382029627 -9.193714682978479 a33.452101476713366,33.452101476713366 0 0,0 0.42180251150135534,0.39201946474213833 l -8.55525077732583 9.0477906321617" fill="#ff8e0d" stroke="none" /><path d="M 114.42810811169701 84.74124197986012 l 8.538861408020608 -9.03045769991618 a33.428246876183266,33.428246876183266 0 0,0 0.41469611656697986,0.3989373355741321 l -8.693040768200007 8.882137277579746" fill="#ff8d0d" stroke="none" /><path d="M 114.68862486808459 84.99185889309783 l 8.726411366158546 -8.916233773846844 a33.47595607724347,33.47595607724347 0 0,0 0.40834959534099663,0.4065960124055283 l -8.878596761666865 8.764701910791198" fill="#ff8e0d" stroke="none" /><path d="M 114.94478906791727 85.2469230424477 l 9.150217312693 -9.032838106914827 a33.8576296857251,33.8576296857251 0 0,0 0.40586549229540386,0.418280066394401 l -9.304347068691513 8.873993844970313" fill="#ff930d" stroke="none" /><path d="M 115.19652480421416 85.50635884689758 l 9.028151237338891 -8.610572877401621 a33.47595607724347,33.47595607724347 0 0,0 0.394111917646479,0.4204111150864783 l -9.175030476955833 8.453892345437088" fill="#ff8e0d" stroke="none" /><path d="M 115.4437574822437 85.77008943001954 l 17.981656288488967 -16.568335858648215 a45.45096554335479,45.45096554335479 0 0,0 0.525188849011261,0.579926644440461 l -18.264188778116264 16.256356426938208" fill="#d6ff1c" stroke="none" /><path d="M 115.9244219780498 86.31012108654704 l 27.513493936327638 -23.652751791778066 a57.2828474062855,57.2828474062855 0 0,0 0.6363562061487344,0.7532450310003469 l -27.916560755963488 23.175647811148615" fill="#52ff2b" stroke="none" /><path d="M 116.15771136456269 86.58626213691792 l 11.581426585807339 -9.614617862481774 a36.05225293449451,36.05225293449451 0 0,0 0.39228543617022427,0.48089556039260534 l -11.745210514053973 9.413838132481066" fill="#ffb110" stroke="none" /><path d="M 116.38621287248628 86.86637796730983 l 18.930077801573518 -15.17254101542511 a45.26012873911397,45.26012873911397 0 0,0 0.4820115763949855,0.612105752979669 l -19.188443458562467 14.844442868492402" fill="#d9ff1c" stroke="none" /><path d="M 116.60985879189232 87.15038557335679 l 11.339483302454319 -8.772379708912423 a35.336614918591444,35.336614918591444 0 0,0 0.36804608922530846,0.48430551154285756 l -11.488805331903741 8.575889421488531" fill="#ffa70f" stroke="none" /><path d="M 116.82858285166822 87.43820079747576 l 19.498471611550443 -14.554754093042101 a45.33169254070428,45.33169254070428 0 0,0 0.46138464447550775,0.6293281365501002 l -19.74611886853958 14.216963512820508" fill="#d8ff1c" stroke="none" /><path d="M 117.04232023915458 87.72973835380427 l 21.081885733176076 -15.178699279864247 a46.977659977281334,46.977659977281334 0 0,0 0.46684022801918207,0.660312395319866 l -21.340038580999142 14.813560384212588" fill="#c4ff1e" stroke="none" /><path d="M 117.45458315368197 88.32363383020206 l 14.553196556004425 -9.735463197991313 a38.50927678909504,38.50927678909504 0 0,0 0.36382714689949625,0.5541337054737315 l -14.718620338261847 9.483511428539908" fill="#ffd113" stroke="none" /><line stroke="#e1ed5e" stroke-width="0.3" x1="172.23445277983987" x2="176.4835382374775" y1="55.19839476539836" y2="52.563006222186495" /><path d="M 173.08426987136738 54.67131705675599 a86.0,86.0 0 0,1 12.851231095245387,41.99856678651699" fill="none" id="id15" stroke="none" /><text fill="#e1ed5e" style="font-size:6.75px; font-family:Arial;" text-anchor="middle"><textPath startOffset="22.20632615414155" xlink:href="#id15">March</textPath></text><path d="M 117.84615892207809 88.93136811851018 l 20.353135431010678 -12.623521100737348 a44.95001893222265,44.95001893222265 0 0,0 0.4021618297190368,0.6610483067248651 l -20.567413059015937 12.271305020805402" fill="#ddff1b" stroke="none" /><path d="M 118.21658344932153 89.55222093294921 l 12.519159015720781 -7.180128363005374 a35.43203332071185,35.43203332071185 0 0,0 0.2988816169636193,0.5316770464712451 l -12.640898273976834 6.963567806599334" fill="#ffa80f" stroke="none" /><path d="M 118.3937258080291 89.86733742301442 l 31.675374848510547 -17.449204619511722 a57.16357440363499,57.16357440363499 0 0,0 0.46735822594413345,0.8659438132612474 l -31.971041173673143 16.901379822918017" fill="#53ff2b" stroke="none" /><path d="M 118.73160827565052 90.50648371742162 l 18.171291329881345 -9.2095375675751 a41.37182885270731,41.37182885270731 0 0,0 0.3164747643329866,0.6379938133434169 l -18.32712610716774 8.895384165732734" fill="#fff517" stroke="none" /><path d="M 119.04729006885535 91.15688171328212 l 27.305202650771065 -12.677033636317267 a51.10450586898902,51.10450586898902 0 0,0 0.36356641759809505,0.8010704086225152 l -27.519371385332505 12.20514121885269" fill="#95ff23" stroke="none" /><path d="M 119.34039704204932 91.81776055985345 l 14.170264398472336 -5.994938779509112 a36.38621734191594,36.38621734191594 0 0,0 0.2390718518776072,0.5789314523308159 l -14.271357937236141 5.750132756724994" fill="#ffb510" stroke="none" /><path d="M 119.47837535516314 92.15188598940014 l 37.83569313592838 -15.244538006201148 a61.79136690647482,61.79136690647482 0 0,0 0.38901034603154333,0.9899888992634833 l -38.092497031841624 14.59100010204188" fill="#31ff3d" stroke="none" /><path d="M 119.7369772167798 92.82701384747503 l 22.487150490454535 -8.172478354012734 a44.92616433169254,44.92616433169254 0 0,0 0.25789098577227415,0.7290925447518469 l -22.62449455703662 7.784188182834272" fill="#ddff1b" stroke="none" /><path d="M 119.97218684219823 93.5106431181261 l 33.7356779640463 -10.961386236289076 a56.47179098826202,56.47179098826202 0 0,0 0.2924284567505489,0.9270781211812084 l -33.91936190456506 10.37905794868145" fill="#5bff2a" stroke="none" /><path d="M 120.18372546131832 94.20196356495316 l 15.567682228211064 -4.472018257550332 a37.19727375993942,37.19727375993942 0 0,0 0.17148515232508652,0.6169233330579869 l -15.642354151102513 4.203383621073393" fill="#ffc011" stroke="none" /><path d="M 120.28053869075195 94.5502522615342 l 42.27351968670561 -11.359659712326474 a64.7731919727376,64.7731919727376 0 0,0 0.28007825845684,1.079255780946257 l -42.462794277032756 10.630307505831368" fill="#35ff61" stroke="none" /><path d="M 120.45610955862082 95.25157060432595 l 18.1246862427765 -4.2072414940845455 a39.60658841347974,39.60658841347974 0 0,0 0.14844099142099612,0.6654318581869102 l -18.194421621199535 3.8946314663476715" fill="#ffdf14" stroke="none" /><path d="M 120.6074358757038 95.95851677861258 l 23.455491193625754 -4.600037320518975 a44.90230973116244,44.90230973116244 0 0,0 0.14222117269255002,0.7597511914308626 l -23.531198090228163 4.19560805162555" fill="#ddff1b" stroke="none" /><path d="M 120.73433829027371 96.67025291283417 l 13.684192215050016 -2.19755743011361 a34.8595229079894,34.8595229079894 0 0,0 0.09004398453695922,0.5932773537573314 l -13.719992093026274 1.9616809639641963" fill="#ffa10e" stroke="none" /><path d="M 120.78858239683441 97.02765380044208 l 49.897320641247006 -7.134306156379252 a71.40477092010602,71.40477092010602 0 0,0 0.16349652724749375,1.2182390337975442 l -50.012733167552334 6.274348780517044" fill="#3dffad" stroke="none" /><path d="M 120.87857604477298 97.74499172005257 l 16.459369680127743 -1.7777081555662815 a37.555092767890955,37.555092767890955 0 0,0 0.06388456471141006,0.6433088483464422 l -16.487531370521385 1.4941237765154043" fill="#ffc512" stroke="none" /><path d="M 120.94382443527127 98.46500227214037 l 17.343485058666506 -1.2711245856982267 a38.390003786444524,38.390003786444524 0 0,0 0.04263010474467319,0.6594688518691199 l -17.362795754415597 0.9723966695760716" fill="#ffcf13" stroke="none" /><path d="M 120.98425023603335 99.18683210126433 l 15.732228499563057 -0.6096449979161768 a36.74403634986747,36.74403634986747 0 0,0 0.01905144260524959,0.6322246303480042 l -15.74039163662395 0.33875022014317346" fill="#ffba11" stroke="none" /><line stroke="#e1ed5e" stroke-width="0.3" x1="184.98032266829074" x2="189.97916517819016" y1="98.17113171792111" y2="98.06355123074" /><path d="M 185.9800911702706 98.14961562048488 a86.0,86.0 0 0,1 -9.607161424134198,41.387399972396054" fill="none" id="id16" stroke="none" /><text fill="#e1ed5e" style="font-size:6.75px; font-family:Arial;" text-anchor="middle"><textPath startOffset="21.466115282336823" xlink:href="#id16">April</textPath></text><path d="M 120.99513854157772 99.54816195383933 l 43.906153034885904 -0.944907811035731 a64.91631957591821,64.91631957591821 0 0,0 0.014426857209757758,1.1173759898502016 l -43.915912899213374 0.18899556312506674" fill="#35ff62" stroke="none" /><path d="M 120.99824983174949 100.27111621757518 l 18.962826902204675 0.24483611469777233 a39.964407421431275,39.964407421431275 0 0,0 -0.014801935988319775,0.6877878022865894 l -18.955802903531346 -0.5712137327744766" fill="#ffe415" stroke="none" /><path d="M 120.9764740272857 100.99374915477107 l 10.817855973178013 0.5124900979924989 a31.829988640666414,31.829988640666414 0 0,0 -0.030638105792207576,0.5470639604351762 l -10.807431516498276 -0.6986257747630984" fill="#ff770b" stroke="none" /><path d="M 120.81339534386255 102.79330883721812 l 18.323038309155784 2.4590848339765676 a39.48731541082923,39.48731541082923 0 0,0 -0.09620980789532667,0.6728911723382383 l -18.277994450243856 -2.774121478295215" fill="#ffde14" stroke="none" /><path d="M 120.70491114924044 103.5080841355445 l 19.309426793100794 3.271643781085234 a40.584627035213934,40.584627035213934 0 0,0 -0.1226304272248318,0.6877765604913494 l -19.250249923536774 -3.603539092309801" fill="#ffec16" stroke="none" /><path d="M 120.5718875245553 104.21870165774334 l 19.278841962618078 3.953535252902218 a40.68004543733434,40.68004543733434 0 0,0 -0.14657594013091602,0.6847539946485722 l -19.20793198376272 -4.284803066966959" fill="#ffed16" stroke="none" /><path d="M 120.49622156327973 104.57218783832717 l 49.19558822023106 10.974289552122647 a71.40477092010602,71.40477092010602 0 0,0 -0.2779326459460945,1.1973265645626228 l -48.99939500835441 -11.819484774033835" fill="#3dffad" stroke="none" /><path d="M 120.32669344350535 105.2749913415812 l 16.763172404375105 4.350220046180942 a38.31843998485422,38.31843998485422 0 0,0 -0.1711774555505398,0.6370149916800579 l -16.685806872482786 -4.638125971036549" fill="#ffce13" stroke="none" /><path d="M 120.13307415673323 105.97154293290107 l 16.92367460353948 5.019623366543124 a38.652404392275656,38.652404392275656 0 0,0 -0.19468521728424423,0.6362425544961948 l -16.834762613749103 -5.310192893591376" fill="#ffd313" stroke="none" /><path d="M 119.9155931802556 106.66101706037122 l 13.392689696377866 4.479351116705525 a35.12192351382052,35.12192351382052 0 0,0 -0.196698106673135,0.5716967703349338 l -13.3136007587615 -4.709220590129759" fill="#ffa40f" stroke="none" /><path d="M 119.79798401119884 107.00284435728193 l 47.56463784591313 16.824326939399395 a71.45248012116622,71.45248012116622 0 0,0 -0.4201260850462069,1.1560065490734213 l -47.267987499861704 -17.640581285478945" fill="#3dffad" stroke="none" /><path d="M 119.54520255179757 107.68017299344265 l 24.733081002691204 9.718719479017542 a47.574024990533886,47.574024990533886 0 0,0 -0.3060536383559337,0.7596000311232285 l -24.562124750077878 -10.143018877983584" fill="#bdff1f" stroke="none" /><path d="M 119.26925614724726 108.34839909993367 l 17.66409281805591 7.6529625978566544 a40.25066262779251,40.25066262779251 0 0,0 -0.28090921207508396,0.6333761153631258 l -17.529742521249553 -7.955887049712468" fill="#ffe715" stroke="none" /><path d="M 118.97047184881838 109.00673069616215 l 14.567253657479611 6.916186994250981 a37.125709958349105,37.125709958349105 0 0,0 -0.2790558291805751,0.5749376617183373 l -14.446044571684322 -7.165913611934593" fill="#ffbf11" stroke="none" /><path d="M 118.81262510543309 109.33194174019688 l 34.70469879351382 17.215153410919797 a59.73987126088603,59.73987126088603 0 0,0 -0.4648937727738586,0.9172795181664739 l -34.403226350953695 -17.809987140788966" fill="#39ff2e" stroke="none" /><line stroke="#e1ed5e" stroke-width="0.3" x1="174.80103733775053" x2="179.2010983576182" y1="140.37084112569926" y2="142.7455964860345" /><path d="M 175.68104954172406 140.8457921977663 a86.0,86.0 0 0,1 -30.038265399797805,32.042727171017184" fill="none" id="id17" stroke="none" /><text fill="#e1ed5e" style="font-size:6.75px; font-family:Arial;" text-anchor="middle"><textPath startOffset="22.206326154141568" xlink:href="#id17">May</textPath></text><path d="M 118.48025628344425 109.97397251340804 l 21.706079133375265 11.714980210750388 a45.665656948125715,45.665656948125715 0 0,0 -0.3792937071260813,0.6885282517385103 l -21.501209016797674 -12.086878980886704" fill="#d4ff1c" stroke="none" /><path d="M 118.12598468904814 110.60418214915192 l 19.745724328054337 11.551772829651686 a43.876561908368046,43.876561908368046 0 0,0 -0.3869894463828786,0.6486165717290714 l -19.543954005973234 -11.889951495266862" fill="#eaff1a" stroke="none" /><path d="M 117.75023020441432 111.22182372390056 l 15.908669024554605 10.057575446600756 a39.82127981825066,39.82127981825066 0 0,0 -0.3712768058340522,0.5762298476309593 l -15.733187355343501 -10.32992689415317" fill="#ffe215" stroke="none" /><path d="M 117.55443506779139 111.5257021239791 l 35.13545769342872 23.068860820656386 a63.03180613404014,63.03180613404014 0 0,0 -0.6032951092045491,0.9018443321054785 l -34.73315947881345 -23.67024206696767" fill="#32ff4c" stroke="none" /><path d="M 117.14729908036423 112.12312394758627 l 16.63437343577932 11.760486010494521 a41.37182885270731,41.37182885270731 0 0,0 -0.4161222038128507,0.5779573460196004 l -16.429471439590866 -12.045076961965252" fill="#fff517" stroke="none" /><path d="M 116.71984013943494 112.70617746262583 l 17.340265862140207 13.177667576725538 a42.779250283983345,42.779250283983345 0 0,0 -0.4505942155875774,0.582453764358463 l -17.110864829334563 -13.474199335197254" fill="#f7ff18" stroke="none" /><path d="M 116.27256486870786 113.27417163493432 l 12.310709809798672 10.042330528814379 a36.88716395304809,36.88716395304809 0 0,0 -0.40559017663530944,0.4885594957399541 l -12.136023633269819 -10.252751281668104" fill="#ffbc11" stroke="none" /><path d="M 116.0416608686014 113.55231037782055 l 27.060052695804323 22.86086434425996 a56.424081787201814,56.424081787201814 0 0,0 -0.6331789292259575,0.7365301417454742 l -26.66253125700759 -23.32327158516696" fill="#5bff2a" stroke="none" /><path d="M 115.56566222782051 114.09645910891815 l 13.349574004548835 12.089541795418263 a39.01022340022719,39.01022340022719 0 0,0 -0.4550330641321424,0.49384852099380977 l -13.13949453242097 -12.317541571213408" fill="#ffd714" stroke="none" /><path d="M 115.07121518719521 114.62390073753431 l 11.641529338083384 11.296008142586144 a37.22112836046952,37.22112836046952 0 0,0 -0.4501264044358341,0.45597567121412674 l -11.445362308592014 -11.494724307780936" fill="#ffc011" stroke="none" /><path d="M 114.55890576462653 115.13401014063108 l 10.666975635953174 11.08834139421474 a36.38621734191594,36.38621734191594 0 0,0 -0.4551121627518607,0.4303369565508002 l -10.474527638810505 -11.270312987511463" fill="#ffb510" stroke="none" /><path d="M 114.29624159901734 115.38237550388516 l 10.89675665990985 11.724620177705729 a37.006436955698604,37.006436955698604 0 0,0 -0.4703349855286692,0.42963985774556723 l -10.693322124914316 -11.910452802037879" fill="#ffbd11" stroke="none" /><path d="M 113.75828350139079 115.86535959552629 l 34.101372131807686 39.32398482102047 a73.05073835668307,73.05073835668307 0 0,0 -0.9570847658790862,0.8156484009927253 l -33.419421889351554 -39.90515761223614" fill="#3fffbe" stroke="none" /><path d="M 112.92097659922987 116.55440617244103 l 12.98947098483731 16.642161449386954 a42.11132146914048,42.11132146914048 0 0,0 -0.5752632540319792,0.4410873327081563 l -12.701079002311836 -16.863288123922484" fill="#ffff18" stroke="none" /><path d="M 112.63410532772338 116.77436683061366 l 8.65395552360908 11.489901399689554 a35.384324119651644,35.384324119651644 0 0,0 -0.4896769714643653,0.36225131696631113 l -8.45489358172615 -11.637162665395634" fill="#ffa80f" stroke="none" /><path d="M 112.34349029814194 116.9893568818739 l 21.228372939856374 29.2183487154378 a57.11586520257478,57.11586520257478 0 0,0 -0.8003637273992662,0.5710382685244123 l -20.722281884608222 -29.57943124580643" fill="#54ff2b" stroke="none" /><path d="M 111.7513745106137 117.40417183066458 l 10.759115322477827 15.93460336484171 a40.2268080272624,40.2268080272624 0 0,0 -0.5772073832164034,0.38254157943923517 l -10.483233240521459 -16.117442965372263" fill="#ffe715" stroke="none" /><path d="M 111.1453310114006 117.79835938074945 l 7.7228155058171515 12.332827590598825 a35.55130632336236,35.55130632336236 0 0,0 -0.5214543722463642,0.32031986550939845 l -7.509381933638479 -12.463935922936601" fill="#ffaa0f" stroke="none" /><line stroke="#e1ed5e" stroke-width="0.3" x1="143.8653032363475" x2="146.44561519142675" y1="172.8068346515853" y2="177.08958963109032" /><path d="M 144.38136562736335 173.6633856474863 a86.0,86.0 0 0,1 -40.68145358897372,12.25698825130547" fill="none" id="id18" stroke="none" /><text fill="#e1ed5e" style="font-size:6.75px; font-family:Arial;" text-anchor="middle"><textPath startOffset="21.466115282336833" xlink:href="#id18">June</textPath></text><path d="M 110.5260780823613 118.17145234162733 l 6.63609239194682 11.456065183191784 a34.23930329420674,34.23930329420674 0 0,0 -0.5125317719187115,0.2910289163530216 l -6.43791185310691 -11.568597265339434" fill="#ff980e" stroke="none" /><path d="M 110.21172684928248 118.3499491758327 l 19.83572841227534 35.64378616888366 a61.79136690647482,61.79136690647482 0 0,0 -0.9338652514080769,0.509217794462258 l -19.219240348998618 -35.97994461510569" fill="#31ff3d" stroke="none" /><path d="M 109.57404056367764 118.69057910512821 l 6.557909647744354 12.802445134864417 a35.384324119651644,35.384324119651644 0 0,0 -0.5444907651691464,0.27301897309867684 l -6.336564974892447 -12.913431948872397" fill="#ffa80f" stroke="none" /><path d="M 108.92500713936063 119.00905698771935 l 7.279237174624307 15.503789758253495 a38.127603180613406,38.127603180613406 0 0,0 -0.5964827566434017,0.2738159779432463 l -7.011286422213486 -15.626792806530815" fill="#ffcc13" stroke="none" /><path d="M 108.2653958097858 119.30500536409082 l 16.73108898111128 39.07783365256703 a63.50889814464218,63.50889814464218 0 0,0 -1.0086681003384241,0.4216233477468664 l -16.055949421275397 -39.36004204333387" fill="#33ff52" stroke="none" /><path d="M 107.93186726928326 119.44442032107085 l 5.018610453226933 12.302774084251942 a34.28701249526694,34.28701249526694 0 0,0 -0.5483945172690166,0.21821749599433202 l -4.80609485991605 -12.387338424652343" fill="#ff990e" stroke="none" /><path d="M 107.2578585660854 119.70592522655815 l 8.046577009276055 21.847386998622586 a44.28209011737978,44.28209011737978 0 0,0 -0.717539480065508,0.25728412871959944 l -7.669317968580812 -21.982658668382147" fill="#e5ff1a" stroke="none" /><path d="M 105.88484417918355 120.15858648285463 l 4.0576680235869915 13.899578184505216 a35.47974252177205,35.47974252177205 0 0,0 -0.5877284089046759,0.1660979190168603 l -3.8178084465777102 -13.967364896860595" fill="#ffa90f" stroke="none" /><path d="M 105.53697534728816 120.25689768951611 l 16.61092604186447 60.77069306854833 a84.0,84.0 0 0,0 -1.3980382287540103,0.3692346027856641 l -15.562397370298964 -61.04761902063758" fill="#4dd2ff" stroke="none" /><path d="M 104.83641907484287 120.43548508189849 l 2.972172721874279 12.558421918940274 a33.90533888678531,33.90533888678531 0 0,0 -0.5690927993142129,0.12952366831683212 l -2.7555597731672044 -12.60772232083479" fill="#ff940d" stroke="none" /><path d="M 104.13013068566511 120.58985236759428 l 3.307545020894244 16.48903360752059 a37.81749337372207,37.81749337372207 0 0,0 -0.6393540420662529,0.12253372383744246 l -3.0232233642562867 -16.543524529706502" fill="#ffc812" stroke="none" /><path d="M 103.41894727170886 120.7198165907248 l 2.2447764366312626 13.603999230714427 a34.78795910639909,34.78795910639909 0 0,0 -0.5916672081456787,0.09240624966164797 l -2.0102733648770665 -13.640623787723182" fill="#ffa00e" stroke="none" /><path d="M 103.06178313531738 120.77559828337769 l 7.1576861330743995 48.56817258673755 a70.0927678909504,70.0927678909504 0 0,0 -1.1951531498251002,0.16563733630545563 l -6.320604392062468 -48.68418448853561" fill="#3bff9e" stroke="none" /><path d="M 102.34483914955558 120.86867818915974 l 1.4916053658664854 13.275039514497676 a34.35857629685725,34.35857629685725 0 0,0 -0.5882963839709167,0.06097932559737521 l -1.262876385289966 -13.298748208550808" fill="#ff9a0e" stroke="none" /><path d="M 101.62511606390274 120.93702456842531 l 1.5266614746469815 19.668594454473002 a40.72775463839454,40.72775463839454 0 0,0 -0.699425952022082,0.048236508666258004 l -1.1878727618459692 -19.691959307655544" fill="#ffed16" stroke="none" /><path d="M 100.90346689309514 120.98055641714683 l 0.5429011584028743 12.607399861420683 a33.61908368042408,33.61908368042408 0 0,0 -0.5783757490040023,0.019920430236454175 l -0.32580505772421975 -12.61487709008323" fill="#ff900d" stroke="none" /><line stroke="#e1ed5e" stroke-width="0.3" x1="102.19456741930631" x2="102.32365962044197" y1="184.97166512339345" y2="189.96999836594603" /><path d="M 102.22038585953345 185.97133177190398 a86.0,86.0 0 0,1 -42.740103519485714,-10.115201625700543" fill="none" id="id19" stroke="none" /><text fill="#e1ed5e" style="font-size:6.75px; font-family:Arial;" text-anchor="middle"><textPath startOffset="22.20632615414155" xlink:href="#id19">July</textPath></text><path d="M 100.54218724476979 120.99299961872073 l 1.3549548714428794 52.462626839665596 a73.4801211662249,73.4801211662249 0 0,0 -1.2646989419545078,0.021772939213663602 l -0.4516962395957036 -52.47817725615842" fill="#40ffc3" stroke="none" /><path d="M 99.81925306533755 120.99922214144158 l -0.21024406788452887 24.42620614104828 a45.42711094282468,45.42711094282468 0 0,0 -0.7818661460216538,-0.013460534761136258 l 0.6306699037988506 -24.418968129007986" fill="#d7ff1c" stroke="none" /><path d="M 99.09653310690486 120.98055641714683 l -1.053987693156425 24.475991791453765 a45.498674744415,45.498674744415 0 0,0 -0.7821697359098889,-0.040429241085452775 l 1.4751454974798026 -24.45422274360611" fill="#d6ff1c" stroke="none" /><path d="M 98.37488393609728 120.93702456842531 l -1.493433050773153 19.240499291014103 a40.29837182885271,40.29837182885271 0 0,0 -0.6911279809488325,-0.05963343031114496 l 1.8244053494635273 -19.211941608424294" fill="#ffe815" stroke="none" /><path d="M 98.01472825383883 120.90594882070398 l -3.3894700126621524 35.69289028116405 a56.853464596743656,56.853464596743656 0 0,0 -0.9734596494774735,-0.10090307290469926 l 4.003362258745219 -35.629257839803586" fill="#57ff2a" stroke="none" /><path d="M 97.2962882734958 120.8252237178851 l -3.1541597233469982 24.29478011162589 a45.498674744415,45.498674744415 0 0,0 -0.7757987888030871,-0.10751864303343989 l 3.5718871033369166 -24.236886903099844" fill="#d6ff1c" stroke="none" /><path d="M 96.58105272829116 120.7198165907248 l -4.66820290109129 28.290669680482257 a49.67322983718289,49.67322983718289 0 0,0 -0.8424367569913306,-0.146468428617673 l 5.154488629554671 -28.206122673343575" fill="#a5ff21" stroke="none" /><path d="M 96.22490169976321 120.6578951692458 l -3.524949794920082 19.28904562187056 a40.608481635744035,40.608481635744035 0 0,0 -0.6865393382742724,-0.1315768981576574 l 3.8564567477660496 -19.225511525364436" fill="#ffec16" stroke="none" /><path d="M 95.51606077576429 120.51570834832081 l -9.188594881319077 42.04127738777442 a64.03369935630442,64.03369935630442 0 0,0 -1.0747899420444063,-0.2446186915936723 l 9.910904972756345 -41.87688196260306" fill="#34ff58" stroke="none" /><path d="M 94.81253420990036 120.34920634021253 l -6.075286516008401 23.831917913774085 a45.5940931465354,45.5940931465354 0 0,0 -0.7588367288598714,-0.20041567705159516 l 6.4846136876797615 -23.723810887418907" fill="#d5ff1c" stroke="none" /><path d="M 94.11515582081647 120.15858648285463 l -12.126210535068843 41.538442877582334 a64.27224536160546,64.27224536160546 0 0,0 -1.0593444080270704,-0.3191717802038698 l 12.83942991753616 -41.32355572827274" fill="#34ff5b" stroke="none" /><path d="M 93.08242187328487 119.8279376855182 l -17.33454450685373 49.68621416234737 a73.62324876940554,73.62324876940554 0 0,0 -1.1929786399581073,-0.4277596961420034 l 18.187242707441566 -49.38046692516541" fill="#40ffc5" stroke="none" /><path d="M 92.40401165467489 119.57807347666478 l -6.937343388460499 17.880466954076276 a40.17909882620219,40.17909882620219 0 0,0 -0.6426339275882207,-0.2557173022401157 l 7.244098392090577 -17.758402807430095" fill="#ffe615" stroke="none" /><path d="M 91.7346041902142 119.30500536409082 l -11.454505363050362 26.753623488289435 a50.10261264672472,50.10261264672472 0 0,0 -0.7899018663315257,-0.3462697651236867 l 11.913327904039631 -26.552489169871297" fill="#a0ff22" stroke="none" /><path d="M 91.40352486487194 119.15986991738527 l -7.860843412091726 17.52028998503803 a40.2029534267323,40.2029534267323 0 0,0 -0.6289503269215931,-0.28872024702420296 l 8.161261734780739 -17.382382667679753" fill="#ffe715" stroke="none" /><path d="M 90.7491055286396 118.85261126421891 l -27.36387262789374 55.76546732149872 a83.11737978038622,83.11737978038622 0 0,0 -1.279002689508559,-0.6413185001798808 l 28.319729225085062 -55.28618098040954" fill="#4cdaff" stroke="none" /><line stroke="#e1ed5e" stroke-width="0.3" x1="58.666819895761336" x2="56.23545636021788" y1="174.27360380694188" y2="178.64263932499728" /><path d="M 58.180547188652646 175.14741091055294 a86.0,86.0 0 0,1 -31.652253787137756,-30.449443065178592" fill="none" id="id20" stroke="none" /><text fill="#e1ed5e" style="font-size:6.75px; font-family:Arial;" text-anchor="middle"><textPath startOffset="22.20632615414155" xlink:href="#id20">August</textPath></text><path d="M 89.7882731507175 118.34994917583269 l -20.891313959361348 37.54061923401138 a63.96213555471412,63.96213555471412 0 0,0 -0.9574560086655846,-0.543668509787191 l 21.534418734948137 -37.17544755842955" fill="#33ff57" stroke="none" /><path d="M 89.1626897886671 117.98757091392108 l -14.920280169786611 24.764410391146168 a49.911775842483905,49.911775842483905 0 0,0 -0.732088815609579,-0.449708744308319 l 15.344348185328498 -24.503913180009473" fill="#a2ff22" stroke="none" /><path d="M 88.54995079064634 117.60387380957326 l -23.424693630495227 36.01428632833181 a63.96213555471412,63.96213555471412 0 0,0 -0.9177814173933159,-0.6082554783572263 l 24.041149746628506 -35.60573282888327" fill="#33ff57" stroke="none" /><path d="M 87.95078237400918 117.19931262002967 l -14.015598844015068 20.006167500466173 a45.42711094282468,45.42711094282468 0 0,0 -0.6365693964404805,-0.4541753623945381 l 14.357895568304436 -19.761947876227417" fill="#d7ff1c" stroke="none" /><path d="M 87.36589467227662 116.77436683061367 l -20.106453878236017 26.69544255549763 a54.42029534267323,54.42029534267323 0 0,0 -0.7434104438434596,-0.5700154276915947 l 20.562993050572963 -26.345387785978666" fill="#70ff27" stroke="none" /><path d="M 86.51685102203217 116.09983520530335 l -6.264227109415575 7.479931009809618 a30.756531616811813,30.756531616811813 0 0,0 -0.4029611270730576,-0.3434122145466201 l 6.392053713065689 -7.370994405040046" fill="#ff6809" stroke="none" /><path d="M 85.97065885151581 115.62618273729859 l -20.36671486682635 22.68488626081135 a51.48617947747066,51.48617947747066 0 0,0 -0.6543659285127287,-0.5977477608299586 l 20.754180344805935 -22.330945733394817" fill="#91ff24" stroke="none" /><path d="M 83.72743513129214 113.27417163493432 l -1.977846771243929 1.613407457332039 a23.552442256720937,23.552442256720937 0 0,0 -0.25356120579079966,-0.3163565910417247 l 2.0053258890895895 -1.5791230327120547" fill="#ff0000" stroke="none" /><line stroke="#e1ed5e" stroke-width="0.3" x1="26.63291911575756" x2="22.317208475507996" y1="142.92168965132927" y2="145.44649492493687" /><path d="M 25.769776987707644 143.4266507060508 a86.0,86.0 0 0,1 -11.730757126820373,-40.83630448921669" fill="none" id="id21" stroke="none" /><text fill="#e1ed5e" style="font-size:6.75px; font-family:Arial;" text-anchor="middle"><textPath startOffset="21.46611528233685" xlink:href="#id21">September</textPath></text><path d="M 79.58551787078972 104.9243191809786 l -23.861986494839893 5.755915680303274 a45.5463839454752,45.5463839454752 0 0,0 -0.1772826498863234,-0.763729015792263 l 23.95752971065677 -5.344318007162437" fill="#d5ff1c" stroke="none" /><path d="M 79.4281124754447 104.21870165774334 l -12.22161738963546 2.506301742142863 a33.47595607724347,33.47595607724347 0 0,0 -0.11090116704749876,-0.5654826615084855 l 12.262948489658624 -2.2955553535664226" fill="#ff8e0d" stroke="none" /><path d="M 79.29508885075956 103.50808413554451 l -24.08386484303923 4.080588589319474 a45.42711094282468,45.42711094282468 0 0,0 -0.12399058588941532,-0.7720894966916585 l 24.150537183289938 -3.665419862934602" fill="#d7ff1c" stroke="none" /><path d="M 79.23777060512086 103.15116336523772 l -35.4711014879571 5.383585423685197 a56.877319197273756,56.877319197273756 0 0,0 -0.13858009582668204,-0.9692288674457381 l 35.55851563480038 -4.772211084259058" fill="#56ff2a" stroke="none" /><path d="M 79.1416061653843 102.43462659150553 l -24.286088997138688 2.834712899992242 a45.45096554335479,45.45096554335479 0 0,0 -0.08401437509276313,-0.777868770960464 l 24.331285673732502 -2.416247807146996" fill="#d6ff1c" stroke="none" /><path d="M 79.07016306316243 101.71520430193888 l -24.488146965099617 2.0068085168463234 a45.5702385460053,45.5702385460053 0 0,0 -0.057339167851076914,-0.7823473891469386 l 24.51906269161503 -1.5849879912026243" fill="#d5ff1c" stroke="none" /><path d="M 79.0235259727143 100.99374915477108 l -36.00392153187659 1.7056663834067776 a57.04430140098447,57.04430140098447 0 0,0 -0.0380237406003351,-0.9812237902012825 l 36.027947405328135 -1.0856653461914985" fill="#55ff2b" stroke="none" /><line stroke="#e1ed5e" stroke-width="0.3" x1="15.007084014347285" x2="10.007500721073583" y1="101.09737516637583" y2="101.16192664675087" /><path d="M 14.007167355692545 101.11028546245083 a86.0,86.0 0 0,1 10.666146001902534,-42.60595125391555" fill="none" id="id22" stroke="none" /><text fill="#e1ed5e" style="font-size:6.75px; font-family:Arial;" text-anchor="middle"><textPath startOffset="22.20632615414155" xlink:href="#id22">October</textPath></text><path d="M 79.03285615573316 98.82574320788736 l -24.436527358066403 -1.368558275699629 a45.47482014388489,45.47482014388489 0 0,0 0.050497425235047716,-0.7811728176967154 l 24.409349341826942 1.7889901576493563" fill="#d6ff1c" stroke="none" /><path d="M 79.05617556472873 98.46500227214037 l -15.84466536223854 -1.1612743128601086 a36.88716395304809,36.88716395304809 0 0,0 0.05186250267374216,-0.632853895521816 l 15.822328375745302 1.433842125589703" fill="#ffbc11" stroke="none" /><path d="M 79.21141760316559 97.0276538004421 l -35.75226855222336 -5.111850222791365 a57.11586520257478,57.11586520257478 0 0,0 0.14753328944547223,-0.9720600438044691 l 35.65897936933859 5.7265093789879264" fill="#54ff2b" stroke="none" /><path d="M 79.32604984820605 96.31383870115002 l -24.118303831002322 -4.3002888912369555 a45.498674744415,45.498674744415 0 0,0 0.1441100673183536,-0.7698417420519346 l 24.04070803977411 4.714808710751463" fill="#d6ff1c" stroke="none" /><path d="M 79.3925641242962 95.95851677861259 l -24.204568756695647 -4.746944700016566 a45.665656948125715,45.665656948125715 0 0,0 0.15791772190843856,-0.7700628953629609 l 24.119271738872214 5.162883251542929" fill="#d4ff1c" stroke="none" /><path d="M 79.46518482838121 95.60439243477599 l -14.089013665646824 -3.015842827787165 a35.40817872018175,35.40817872018175 0 0,0 0.13270582911015777,-0.5948942109027003 l 14.03501344953463 3.257915208239825" fill="#ffa80f" stroke="none" /><path d="M 79.54389044137918 95.25157060432595 l -44.40548129480244 -10.307741660507128 a66.58614161302538,66.58614161302538 0 0,0 0.2687771793320474,-1.1142549299826625 l 44.221471315209584 11.070581822149187" fill="#37ff76" stroke="none" /><path d="M 79.71946130924805 94.55025226153421 l -23.613273939440464 -6.345314008247747 a45.45096554335479,45.45096554335479 0 0,0 0.20953594072043993,-0.7538122641640759 l 23.50055122815366 6.750837575830765" fill="#d6ff1c" stroke="none" /><path d="M 79.81627453868168 94.20196356495316 l -17.14967055478921 -4.926464884606256 a38.84324119651647,38.84324119651647 0 0,0 0.1901360062890237,-0.641044091534705 l 17.06232865138848 5.220938362887501" fill="#ffd513" stroke="none" /><path d="M 79.91906864156998 93.8553929516997 l -13.91446587880611 -4.257717114119485 a35.55130632336236,35.55130632336236 0 0,0 0.18409569559725883,-0.5836336637287015 l 13.839114699440648 4.496600944274601" fill="#ffaa0f" stroke="none" /><path d="M 80.14247586403 93.16781622104843 l -14.27846964566718 -4.912653160253324 a36.09996213555471,36.09996213555471 0 0,0 0.2072256770630309,-0.5858548943669768 l 14.19179088779434 5.157705681046912" fill="#ffb110" stroke="none" /><path d="M 80.2630227832202 92.82701384747504 l -48.47180394851717 -17.61605005122184 a72.57364634608103,72.57364634608103 0 0,0 0.4368083758976316,-1.1704292799444154 l 48.161390984117915 18.447802468195597" fill="#3effb9" stroke="none" /><path d="M 80.52162464483688 92.15188598940014 l -22.657163608883423 -9.12889293470759 a45.42711094282468,45.42711094282468 0 0,0 0.2984741017868765,-0.7227787122303039 l 22.496667820210345 9.517546217391205" fill="#d7ff1c" stroke="none" /><path d="M 80.65960295795068 91.81776055985345 l -22.342882005033132 -9.45248486629576 a45.26012873911397,45.26012873911397 0 0,0 0.30972861778699784,-0.714896353280226 l 22.176862677403452 9.835680364162586" fill="#d9ff1c" stroke="none" /><path d="M 80.803312248108 91.48605970444005 l -22.35131194133583 -9.913050514519814 a45.45096554335479,45.45096554335479 0 0,0 0.3233461401883688,-0.7124503587499896 l 22.17736348418411 10.296322882111873" fill="#d6ff1c" stroke="none" /><path d="M 80.95270993114464 91.15688171328213 l -22.242272840723185 -10.326458461279032 a45.5225293449451,45.5225293449451 0 0,0 0.33609024621581696,-0.7078917722294409 l 22.061224400665616 10.707792649149004" fill="#d6ff1c" stroke="none" /><line stroke="#e1ed5e" stroke-width="0.3" x1="26.266209847984243" x2="21.928928074336255" y1="57.711370442889674" y2="55.22380399835377" /><path d="M 25.398753493254645 57.213857153982495 a86.0,86.0 0 0,1 29.58750427330803,-30.492523968695096" fill="none" id="id23" stroke="none" /><text fill="#e1ed5e" style="font-size:6.75px; font-family:Arial;" text-anchor="middle"><textPath startOffset="21.46611528233685" xlink:href="#id23">November</textPath></text><path d="M 82.34701348167596 88.62581576622439 l -12.131832840120463 -7.816790755131663 a35.43203332071185,35.43203332071185 0 0,0 0.33475402985426256,-0.5098533536219295 l 11.99548217490828 8.02446217273126" fill="#ffa80f" stroke="none" /><path d="M 82.54541684631803 88.32363383020206 l -29.95896457237423 -20.04126007106931 a57.04430140098447,57.04430140098447 0 0,0 0.5529916256313732,-0.8114469750314416 l 29.609548481074118 20.553985069371166" fill="#55ff2b" stroke="none" /><path d="M 82.95767976084542 87.72973835380427 l -19.862272508942752 -14.30059270995474 a45.47482014388489,45.47482014388489 0 0,0 0.4628413930460169,-0.6313151399631531 l 19.6131685033831 14.640370293589395" fill="#d6ff1c" stroke="none" /><path d="M 83.17141714833178 87.43820079747576 l -19.63228465202188 -14.654639660347282 a45.498674744415,45.498674744415 0 0,0 0.47388832640577405,-0.6235814889847656 l 19.377120385391997 14.990405925213075" fill="#d6ff1c" stroke="none" /><path d="M 83.39014120810768 87.1503855733568 l -19.33938500002609 -14.961213313868939 a45.45096554335479,45.45096554335479 0 0,0 0.4840439512778726,-0.6146866626900338 l 19.078986968154247 15.29189237051202" fill="#d6ff1c" stroke="none" /><path d="M 84.07557802195018 86.31012108654704 l -39.19904099935701 -33.69856221747737 a72.69291934873155,72.69291934873155 0 0,0 0.8238812507275103,-0.941838691856378 l 38.61316788505165 34.36831646553669" fill="#3fffbb" stroke="none" /><path d="M 84.5562425177563 85.77008943001954 l -17.999199367794816 -16.584500088754208 a45.47482014388489,45.47482014388489 0 0,0 0.535374360337358,-0.5711000397101216 l 17.711057685487003 16.89186954534238" fill="#d6ff1c" stroke="none" /><path d="M 84.80347519578584 85.50635884689758 l -17.693795446027465 -16.875405734869336 a45.45096554335479,45.45096554335479 0 0,0 0.5448396322124102,-0.56150513375066 l 17.400691550111937 17.17747506417012" fill="#d6ff1c" stroke="none" /><path d="M 85.05521093208273 85.24692304244772 l -17.417667834551068 -17.194233576427848 a45.47482014388489,45.47482014388489 0 0,0 0.5547152816520772,-0.5523331579447271 l 17.119116752731678 17.491502585022683" fill="#d6ff1c" stroke="none" /><path d="M 85.31137513191541 84.99185889309783 l -17.085746154773137 -17.45740608875558 a45.42711094282468,45.42711094282468 0 0,0 0.5635487426134802,-0.5421334438950786 l 16.782714168547226 17.748922619412973" fill="#d7ff1c" stroke="none" /><path d="M 85.57189188830299 84.74124197986013 l -11.997018331422437 -12.687706403720997 a38.46156758803484,38.46156758803484 0 0,0 0.4849676130572817,-0.4507245426569217 l 11.7768428345703 12.892335532452567" fill="#ffd013" stroke="none" /><path d="M 85.83668400450813 84.49514656593479 l -29.586904334391768 -32.389351153251724 a64.86861037485801,64.86861037485801 0 0,0 0.8309020686073705,-0.745992081204174 l 29.024991278188427 32.89384224322518" fill="#35ff62" stroke="none" /><path d="M 86.37877921826538 84.01681056812374 l -15.9060374444792 -18.66420151757152 a45.5225293449451,45.5225293449451 0 0,0 0.6007726622147267,-0.5031298273079986 l 15.582407245305362 18.935232502273333" fill="#d6ff1c" stroke="none" /><path d="M 86.65592168130627 83.78471172551755 l -15.703671114918633 -19.08258839723266 a45.713366149185916,45.713366149185916 0 0,0 0.6118986602244176,-0.49477949520200376 l 15.372869056129716 19.350073989698796" fill="#d3ff1c" stroke="none" /><path d="M 86.93701828274178 83.55741782278169 l -15.239320965873764 -19.18197489133269 a45.498674744415,45.498674744415 0 0,0 0.6174114802642054,-0.4818994535648335 l 14.906876930450133 19.441452734120745" fill="#d6ff1c" stroke="none" /><path d="M 87.22198572758235 83.33499621200491 l -14.877846985113324 -19.40359206667357 a45.45096554335479,45.45096554335479 0 0,0 0.6249591007637422,-0.47070623793431904 l 14.541641730591191 19.656814894113747" fill="#d6ff1c" stroke="none" /><path d="M 87.51073957382395 83.11751280151077 l -15.080746497188718 -20.385555348724793 a46.357440363498675,46.357440363498675 0 0,0 0.6455928836264493,-0.46905068573223263 l 14.727608297208487 20.64212526927369" fill="#ccff1d" stroke="none" /><path d="M 87.80319425747018 82.90503203632743 l -26.587281582636955 -37.26457045318552 a66.77697841726618,66.77697841726618 0 0,0 0.9414563762879291,-0.6595503561031465 l 25.941894066765364 37.71670565205261" fill="#37ff78" stroke="none" /><path d="M 88.39885842347998 82.49532879139004 l -13.507576807193896 -20.381243455689372 a45.45096554335479,45.45096554335479 0 0,0 0.6558638699799374,-0.4265921050753873 l 13.154745911429671 20.610734484924293" fill="#d6ff1c" stroke="none" /><path d="M 88.70189139769569 82.29822771554957 l -13.180413708330024 -20.650950552211953 a45.498674744415,45.498674744415 0 0,0 0.6638058349587391,-0.41567515295349994 l 12.822988720999044 20.874770046488383" fill="#d6ff1c" stroke="none" /><path d="M 89.00827224532344 82.1063720568725 l -14.10903335416642 -22.96834484180318 a47.95569859901552,47.95569859901552 0 0,0 0.707090639394683,-0.4260141985441375 l 13.711580648554088 23.207805649805938" fill="#b9ff1f" stroke="none" /><line stroke="#e1ed5e" stroke-width="0.3" x1="56.762969772571076" x2="54.21961505331055" y1="26.818313649435495" y2="22.513508569990535" /><path d="M 56.25429882871897 25.957352633546506 a86.0,86.0 0 0,1 42.265352541879196,-11.944610805530505" fill="none" id="id24" stroke="none" /><text fill="#e1ed5e" style="font-size:6.75px; font-family:Arial;" text-anchor="middle"><textPath startOffset="22.20632615414155" xlink:href="#id24">December</textPath></text><path d="M 89.3179101791058 81.91981866633112 l -13.068471113710402 -22.11929795118672 a46.6914047709201,46.6914047709201 0 0,0 0.6954868561013404,-0.40287087762424945 l 12.685787525143741 22.340972986201017" fill="#c8ff1d" stroke="none" /><path d="M 89.63071344664047 81.73862282372117 l -7.84469312139808 -13.815309200380575 a36.88716395304809,36.88716395304809 0 0,0 0.5548460245341842,-0.30877121193423085 l 7.605723007791851 13.94829580987499" fill="#ffbc11" stroke="none" /><path d="M 89.94658935756843 81.56283822128135 l -22.84000903240796 -41.8867742038288 a68.70920106020446,68.70920106020446 0 0,0 1.0432509098632767,-0.5572685059819701 l 22.115613076016377 42.27372143631252" fill="#3aff8e" stroke="none" /><path d="M 90.58718382345135 81.22770947309562 l -10.991717186094663 -21.921145015135608 a45.5225293449451,45.5225293449451 0 0,0 0.7034937509902731,-0.34520132837110956 l 10.612752168093964 22.107101503641548" fill="#d6ff1c" stroke="none" /><path d="M 90.91171255644093 81.06846463323043 l -10.602428479214497 -22.08559654108937 a45.498674744415,45.498674744415 0 0,0 0.7089598920649908,-0.3328661754388022 l 10.220690375849898 22.26482769916818" fill="#d6ff1c" stroke="none" /><path d="M 91.23893434514133 80.91482961587045 l -10.718289712551446 -23.34880178384043 a46.6914047709201,46.6914047709201 0 0,0 0.7333171527312006,-0.3290180307485582 l 10.314790441353471 23.529840145105517" fill="#c8ff1d" stroke="none" /><path d="M 91.56875222667455 80.76684994638697 l -9.816768990146064 -22.39376615481259 a45.45096554335479,45.45096554335479 0 0,0 0.7192425749604688,-0.3079421348597934 l 9.429842657395287 22.559427817635168" fill="#d6ff1c" stroke="none" /><path d="M 91.90106846888425 80.62456947434976 l -9.448242350385328 -22.6034462133769 a45.498674744415,45.498674744415 0 0,0 0.7251971594908319,-0.2958261299725758 l 9.057761321306115 22.76273322953305" fill="#d6ff1c" stroke="none" /><path d="M 92.23578459929587 80.48803036053334 l -19.120960608171035 -48.05219634043587 a72.71677394926164,72.71677394926164 0 0,0 1.166989381324483,-0.4527737496860684 l 18.290988061846875 48.37421279401249" fill="#3fffbb" stroke="none" /><path d="M 92.91201910852362 80.23233633223022 l -8.276915209887605 -23.083481541613793 a45.5225293449451,45.5225293449451 0 0,0 0.7398884993327117,-0.2581325693256717 l 7.878344706491609 23.222534964111674" fill="#d6ff1c" stroke="none" /><path d="M 93.25333710446033 80.11325718540243 l -7.870680947049497 -23.199944949555146 a45.498674744415,45.498674744415 0 0,0 0.7438322192839584,-0.24522978787908511 l 7.470165905523129 23.331988461693467" fill="#d6ff1c" stroke="none" /><path d="M 94.28887869178378 79.79150937346287 l -6.6626144455184395 -23.575297092147245 a45.498674744415,45.498674744415 0 0,0 0.7554992343286103,-0.20650647989092563 l 6.255817321966107 23.686490112864465" fill="#d6ff1c" stroke="none" /><path d="M 94.63758080256005 79.69619591428918 l -13.407063218741383 -50.76335417567155 a73.50397576675502,73.50397576675502 0 0,0 1.2260852074955948,-0.31255641931655764 l 12.531269122560788 50.986613591156974" fill="#40ffc3" stroke="none" /><path d="M 95.33964822691252 79.52364482259891 l -11.122376836717304 -48.86878708184742 a71.11851571374478,71.11851571374478 0 0,0 1.196001012938625,-0.2613994975503804 l 10.279533099625159 49.05300007749367" fill="#3dffa9" stroke="none" /><path d="M 98.19473922651362 79.07773832637324 l -2.192151192946165 -25.40616932499849 a46.500567966679284,46.500567966679284 0 0,0 0.7980600426387995,-0.06194481890264032 l 1.7545009609450313 25.440139406089592" fill="#caff1d" stroke="none" /><path d="M 98.55514903715128 79.0497635885617 l -3.7748851358031548 -54.735566542568826 a75.86558121923514,75.86558121923514 0 0,0 1.3035800424161899,-0.07863550808121791 l 2.832143044547342 54.79243532003035" fill="#43ffdc" stroke="none" /><path d="M 98.91598698831166 79.02799685794201 l -0.8521056464464177 -16.485376191939565 a37.50738356683075,37.50738356683075 0 0,0 0.6450540680119493,-0.0277773850758744 l 0.5682107460451443 16.497601303539632" fill="#ffc412" stroke="none" /></svg>