<?xml version="1.0" encoding="utf-8" ?>
<svg baseProfile="full" height="200mm" version="1.1" viewBox="0,0,200,200" width="200mm" xmlns="http://www.w3.org/2000/svg" xmlns:ev="http://www.w3.org/2001/xml-events" xmlns:xlink="http://www.w3.org/1999/xlink"><defs /><rect fill="#1a1a1a" height="200" width="200" x="0" y="0" /><text alignment-baseline="middle" fill="#e1ed5e" style="dominant-baseline: central; font-size:9.0px; font-family:Arial;" text-anchor="middle" x="100.0" y="100.0">2026</text><line stroke="#e1ed5e" stroke-width="0.3" x1="100.0" x2="100.0" y1="15.0" y2="10.0" /><path d="M 100.0 14.0 a86.0,86.0 0 0,1 42.46469731375804,11.215312516191453" fill="none" id="id49" stroke="none" /><text fill="#e1ed5e" style="font-size:6.75px; font-family:Arial;" text-anchor="middle"><textPath startOffset="22.20632615414155" xlink:href="#id49">January</textPath></text><path d="M 101.08401301168833 79.027996857942 l 2.0788179700456983 -40.21813071382194 a61.271820448877804,61.271820448877804 0 0,0 1.0528189597447732,0.06350891477567137 l -2.7707989786300833 40.176388529665964" fill="#6bff28" stroke="none" /><path d="M 101.44485096284872 79.0497635885617 l 1.9114549520978663 -27.71596113782548 a48.781795511221944,48.781795511221944 0 0,0 0.8372113182268808,0.06498371140011296 l -2.388256459687088 27.678952164236904" fill="#ffd714" stroke="none" /><path d="M 101.80526077348638 79.07773832637324 l 3.7005594907875334 -42.88802767012768 a64.04738154613466,64.04738154613466 0 0,0 1.097573490196088,0.10422782807465597 l -4.438258108073866 42.817974297537845" fill="#46ff2c" stroke="none" /><path d="M 102.52436894288641 79.15227682838746 l 1.8917029110657484 -15.622795045061268 a36.736907730673316,36.736907730673316 0 0,0 0.6271257305529824,0.08141891845475836 l -2.160343370126577 15.587917803442375" fill="#ff0000" stroke="none" /><path d="M 102.88285421437855 79.19881850522331 l 2.1639379514412638 -15.613854438722646 a36.763092269326684,36.763092269326684 0 0,0 0.6260772462321288,0.09226751151870273 l -2.432384178102048 15.574292443042975" fill="#ff0100" stroke="none" /><path d="M 104.307194497241 79.44645832069477 l 3.233081156283147 -15.427970188206663 a36.763092269326684,36.763092269326684 0 0,0 0.618245405596567,0.1351244995927653 l -3.4981692860332423 15.370032190518026" fill="#ff0100" stroke="none" /><path d="M 104.66035177308747 79.52364482259891 l 3.5039801984685135 -15.395563805452444 a36.78927680798005,36.78927680798005 0 0,0 0.6162664835631602,0.14585036588787975 l -3.768470368994197 15.332967527423694" fill="#ff0100" stroke="none" /><path d="M 105.01212808612495 79.60689891045804 l 3.755971296460219 -15.282111913734061 a36.736907730673316,36.736907730673316 0 0,0 0.6127910588215834,0.15621408525570873 l -4.018471243966828 15.215194832309484" fill="#ff0000" stroke="none" /><path d="M 105.36241919743992 79.69619591428918 l 4.018471243966828 -15.215194832309484 a36.736907730673316,36.736907730673316 0 0,0 0.6100112985275981,0.16673913119789283 l -4.2797804317181365 15.143769160285299" fill="#ff0000" stroke="none" /><path d="M 106.40334571778207 80.00007090966166 l 10.395456514404309 -32.468712812494424 a55.092269326683294,55.092269326683294 0 0,0 0.9006724962617876,0.29693756129497134 l -10.952811832908514 32.284961526940215" fill="#c4ff1e" stroke="none" /><path d="M 106.74666289553966 80.11325718540242 l 5.064203320592108 -14.927455329660528 a36.763092269326684,36.763092269326684 0 0,0 0.5975192846573115,0.20846274581823032 l -5.3204046093126935 14.83807173067009" fill="#ff0100" stroke="none" /><path d="M 107.4271985657038 80.35727306442388 l 5.575029347323802 -14.744291290794042 a36.763092269326684,36.763092269326684 0 0,0 0.5899895714968423,0.22890678770283326 l -5.828002083820311 14.646141799200661" fill="#ff0100" stroke="none" /><path d="M 107.76421540070413 80.48803036053334 l 5.818321017235892 -14.62181265999933 a36.736907730673316,36.736907730673316 0 0,0 0.5855445523285441,0.23885832504294044 l -6.069149439152824 14.51949344877281" fill="#ff0000" stroke="none" /><path d="M 108.09893153111575 80.62456947434976 l 6.079247857520799 -14.54365233970255 a36.763092269326684,36.763092269326684 0 0,0 0.5817606035690741,0.24907952960129887 l -6.328692218880188 14.43685328213846" fill="#ff0100" stroke="none" /><path d="M 109.08828744355905 81.06846463323043 l 11.45668155291547 -23.865065156862883 a47.47256857855362,47.47256857855362 0 0,0 0.7336291682170664,0.359988646727618 l -11.865781988142967 23.664321350000435" fill="#ffc111" stroke="none" /><path d="M 109.41281617654863 81.2277094730956 l 15.10510526087042 -30.124610858012414 a54.69950124688279,54.69950124688279 0 0,0 0.8380471838243012,0.42928031748402284 l -15.621412932283476 29.86013801521589" fill="#caff1d" stroke="none" /><path d="M 109.73455568895987 81.39251694778311 l 12.805431735477136 -24.477424713327718 a48.62468827930175,48.62468827930175 0 0,0 0.7382963199462921,0.3943723252945669 l -13.224873101951738 24.2533736615314" fill="#ffd413" stroke="none" /><path d="M 110.36928655335952 81.73862282372117 l 16.87271689792291 -29.71458505616443 a55.17082294264339,55.17082294264339 0 0,0 0.8217911280493183,0.47603446431317414 l -17.381704758437557 29.419746434461207" fill="#c3ff1e" stroke="none" /><line stroke="#e1ed5e" stroke-width="0.3" x1="143.23703022742887" x2="145.7803849466894" y1="26.81831364943548" y2="22.513508569990506" /><path d="M 143.74570117128098 25.957352633546492 a86.0,86.0 0 0,1 28.547481713284135,27.462654790039103" fill="none" id="id50" stroke="none" /><text fill="#e1ed5e" style="font-size:6.75px; font-family:Arial;" text-anchor="middle"><textPath startOffset="19.985693538727396" xlink:href="#id50">February</textPath></text><path d="M 111.2981086023043 82.29822771554956 l 13.016773501906693 -20.39456058707258 a45.19451371571073,45.19451371571073 0 0,0 0.6521632337859508,0.424185108354931 l -13.365903761476924 20.16747655455812" fill="#ff9a0e" stroke="none" /><path d="M 111.60114157652 82.49532879139004 l 27.050043326798537 -40.815131122320004 a69.96508728179552,69.96508728179552 0 0,0 0.9981529383363096,0.6739573196233835 l -27.74860095954139 40.343461890397954" fill="#36ff70" stroke="none" /><path d="M 111.90073688211348 82.69761687909136 l 8.918133249563834 -12.96600031878565 a36.736907730673316,36.736907730673316 0 0,0 0.5179359241448102,0.3628472139678284 l -9.140000313292296 12.810568262053886" fill="#ff0000" stroke="none" /><path d="M 112.48926042617603 83.11751280151076 l 26.55135788856625 -35.891073158883 a65.64463840399003,65.64463840399003 0 0,0 0.9026258011567755,0.679839040035961 l -27.16522984348141 35.4287175293412" fill="#31ff2f" stroke="none" /><path d="M 113.89432698308785 84.25364557470407 l 17.37657102747769 -19.692759960812754 a47.263092269326684,47.263092269326684 0 0,0 0.605392976794561,0.5435277919843119 l -17.712974991868244 19.390733160059145" fill="#ffbd11" stroke="none" /><path d="M 114.68862486808459 84.99185889309783 l 19.010963357944892 -19.42450183162651 a48.17955112219451,48.17955112219451 0 0,0 0.5877083886435492,0.585184582049603 l -19.342507546755762 19.09438139892679" fill="#ffcd13" stroke="none" /><path d="M 116.38621287248628 86.86637796730983 l 30.688393683883294 -24.5968831584796 a60.32917705735661,60.32917705735661 0 0,0 0.6424940128572405,0.8159021500401491 l -31.107241777334497 24.064988614486413" fill="#78ff26" stroke="none" /><path d="M 116.82858285166822 87.43820079747576 l 31.4958888533092 -23.510300003726794 a60.30299251870324,60.30299251870324 0 0,0 0.6137620989789506,0.8371708132475686 l -31.895913564801777 22.964666746807733" fill="#78ff26" stroke="none" /><path d="M 117.2510076193507 88.02491185347247 l 25.855001444463266 -17.947700688436523 a52.47381546134663,52.47381546134663 0 0,0 0.5086850009973296,0.7464324705313036 l -26.160110911129326 17.49999019463481" fill="#ecff1a" stroke="none" /><line stroke="#e1ed5e" stroke-width="0.3" x1="172.23445277983987" x2="176.4835382374775" y1="55.19839476539836" y2="52.563006222186495" /><path d="M 173.08426987136738 54.67131705675599 a86.0,86.0 0 0,1 12.851231095245387,41.99856678651699" fill="none" id="id51" stroke="none" /><text fill="#e1ed5e" style="font-size:6.75px; font-family:Arial;" text-anchor="middle"><textPath startOffset="22.20632615414155" xlink:href="#id51">March</textPath></text><path d="M 117.84615892207809 88.93136811851018 l 37.227710569372356 -23.089552540813543 a64.80673316708229,64.80673316708229 0 0,0 0.5798172060369023,0.953067034055453 l -37.619643573695484 22.445317733551008" fill="#3cff2e" stroke="none" /><path d="M 118.3937258080291 89.86733742301442 l 20.366120346047182 -11.21920744184938 a44.251870324189525,44.251870324189525 0 0,0 0.3617946537665766,0.6703505463443201 l -20.556223099032223 10.866975912172599" fill="#ff8a0c" stroke="none" /><path d="M 118.56541770881063 90.18545643968196 l 30.2556121513909 -15.99452423109188 a55.223192019950126,55.223192019950126 0 0,0 0.43702731354777385,0.8441976667742304 l -30.52644889809879 15.471353842057304" fill="#c2ff1e" stroke="none" /><path d="M 118.73160827565052 90.50648371742162 l 39.775472435701786 -20.15892547285661 a65.5922693266833,65.5922693266833 0 0,0 0.5017495854759509,1.0114965471448012 l -40.11658203413115 19.47126933721286" fill="#32ff2f" stroke="none" /><path d="M 119.04729006885535 91.15688171328212 l 14.297342420761751 -6.637851881052574 a36.763092269326684,36.763092269326684 0 0,0 0.2615390860142903,0.5762667077128976 l -14.409483823739388 6.390763164497614" fill="#ff0100" stroke="none" /><path d="M 119.34039704204932 91.81776055985345 l 32.86902888817111 -13.905726130822622 a56.68952618453865,56.68952618453865 0 0,0 0.37247262829349453,0.901972013676557 l -33.103523203350804 13.337879546692761" fill="#acff21" stroke="none" /><path d="M 119.61058180528143 92.48833698450437 l 58.83174541584429 -22.534989046486903 a84.0,84.0 0 0,0 0.505581645993499,1.354707451882667 l -59.21093165033941 21.518958457574904" fill="#4dd2ff" stroke="none" /><path d="M 119.7369772167798 92.82701384747503 l 32.041825855669956 -11.644922656592904 a55.092269326683294,55.092269326683294 0 0,0 0.31624777802513804,0.8940750548608516 l -32.2375267145049 11.091649975305437" fill="#c4ff1e" stroke="none" /><path d="M 119.85752413597 93.16781622104841 l 33.62408700330081 -11.568710189297068 a56.55860349127182,56.55860349127182 0 0,0 0.3088172636570781,0.9233243113314236 l -33.81824156072966 10.98821277504333" fill="#aeff20" stroke="none" /><line stroke="#e1ed5e" stroke-width="0.3" x1="184.98032266829074" x2="189.97916517819016" y1="98.17113171792111" y2="98.06355123074" /><path d="M 185.9800911702706 98.14961562048488 a86.0,86.0 0 0,1 -9.607161424134198,41.387399972396054" fill="none" id="id52" stroke="none" /><text fill="#e1ed5e" style="font-size:6.75px; font-family:Arial;" text-anchor="middle"><textPath startOffset="21.466115282336823" xlink:href="#id52">April</textPath></text><line stroke="#e1ed5e" stroke-width="0.3" x1="174.80103733775053" x2="179.2010983576182" y1="140.37084112569926" y2="142.7455964860345" /><path d="M 175.68104954172406 140.8457921977663 a86.0,86.0 0 0,1 -30.038265399797805,32.042727171017184" fill="none" id="id53" stroke="none" /><text fill="#e1ed5e" style="font-size:6.75px; font-family:Arial;" text-anchor="middle"><textPath startOffset="22.206326154141568" xlink:href="#id53">May</textPath></text><line stroke="#e1ed5e" stroke-width="0.3" x1="143.8653032363475" x2="146.44561519142675" y1="172.8068346515853" y2="177.08958963109032" /><path d="M 144.38136562736335 173.6633856474863 a86.0,86.0 0 0,1 -40.68145358897372,12.25698825130547" fill="none" id="id54" stroke="none" /><text fill="#e1ed5e" style="font-size:6.75px; font-family:Arial;" text-anchor="middle"><textPath startOffset="21.466115282336833" xlink:href="#id54">June</textPath></text><line stroke="#e1ed5e" stroke-width="0.3" x1="102.19456741930631" x2="102.32365962044197" y1="184.97166512339345" y2="189.96999836594603" /><path d="M 102.22038585953345 185.97133177190398 a86.0,86.0 0 0,1 -42.740103519485714,-10.115201625700543" fill="none" id="id55" stroke="none" /><text fill="#e1ed5e" style="font-size:6.75px; font-family:Arial;" text-anchor="middle"><textPath startOffset="22.20632615414155" xlink:href="#id55">July</textPath></text><line stroke="#e1ed5e" stroke-width="0.3" x1="58.666819895761336" x2="56.23545636021788" y1="174.27360380694188" y2="178.64263932499728" /><path d="M 58.180547188652646 175.14741091055294 a86.0,86.0 0 0,1 -31.652253787137756,-30.449443065178592" fill="none" id="id56" stroke="none" /><text fill="#e1ed5e" style="font-size:6.75px; font-family:Arial;" text-anchor="middle"><textPath startOffset="22.20632615414155" xlink:href="#id56">August</textPath></text><line stroke="#e1ed5e" stroke-width="0.3" x1="26.63291911575756" x2="22.317208475507996" y1="142.92168965132927" y2="145.44649492493687" /><path d="M 25.769776987707644 143.4266507060508 a86.0,86.0 0 0,1 -11.730757126820373,-40.83630448921669" fill="none" id="id57" stroke="none" /><text fill="#e1ed5e" style="font-size:6.75px; font-family:Arial;" text-anchor="middle"><textPath startOffset="21.46611528233685" xlink:href="#id57">September</textPath></text><line stroke="#e1ed5e" stroke-width="0.3" x1="15.007084014347285" x2="10.007500721073583" y1="101.09737516637583" y2="101.16192664675087" /><path d="M 14.007167355692545 101.11028546245083 a86.0,86.0 0 0,1 10.666146001902534,-42.60595125391555" fill="none" id="id58" stroke="none" /><text fill="#e1ed5e" style="font-size:6.75px; font-family:Arial;" text-anchor="middle"><textPath startOffset="22.20632615414155" xlink:href="#id58">October</textPath></text><line stroke="#e1ed5e" stroke-width="0.3" x1="26.266209847984243" x2="21.928928074336255" y1="57.711370442889674" y2="55.22380399835377" /><path d="M 25.398753493254645 57.213857153982495 a86.0,86.0 0 0,1 29.58750427330803,-30.492523968695096" fill="none" id="id59" stroke="none" /><text fill="#e1ed5e" style="font-size:6.75px; font-family:Arial;" text-anchor="middle"><textPath startOffset="21.46611528233685" xlink:href="#id59">November</textPath></text><line stroke="#e1ed5e" stroke-width="0.3" x1="56.762969772571076" x2="54.21961505331055" y1="26.818313649435495" y2="22.513508569990535" /><path d="M 56.25429882871897 25.957352633546506 a86.0,86.0 0 0,1 42.265352541879196,-11.944610805530505" fill="none" id="id60" stroke="none" /><text fill="#e1ed5e" style="font-size:6.75px; font-family:Arial;" text-anchor="middle"><textPath startOffset="22.20632615414155" xlink:href="#id60">December</textPath></text></svg>