<?xml version="1.0" encoding="utf-8" ?>
<svg baseProfile="full" height="200mm" version="1.1" viewBox="0,0,200,200" width="200mm" xmlns="http://www.w3.org/2000/svg" xmlns:ev="http://www.w3.org/2001/xml-events" xmlns:xlink="http://www.w3.org/1999/xlink"><defs /><rect fill="#1a1a1a" height="200" width="200" x="0" y="0" /><text alignment-baseline="middle" fill="#e1ed5e" style="dominant-baseline: central; font-size:9.0px; font-family:Arial;" text-anchor="middle" x="100.0" y="100.0">2026</text><line stroke="#e1ed5e" stroke-width="0.3" x1="100.0" x2="100.0" y1="15.0" y2="10.0" /><path d="M 100.0 14.0 a86.0,86.0 0 0,1 42.46469731375804,11.215312516191453" fill="none" id="id49" stroke="none" /><text fill="#e1ed5e" style="font-size:6.75px; font-family:Arial;" text-anchor="middle"><textPath startOffset="22.20632615414155" xlink:href="#id49">January</textPath></text><path d="M 101.08401301168833 79.027996857942 l 2.6746716769678875 -51.74589438366609 a72.81497326203208,72.81497326203208 0 0,0 1.2511621793176237,0.07547351943214349 l -3.5649959051251234 51.69218759485364" fill="red" stroke="none" /><path d="M 101.44485096284872 79.0497635885617 l 2.4593372271376825 -35.66021523936262 a56.744919786096254,56.744919786096254 0 0,0 0.9738774187979091,0.07559163110250736 l -3.0728048352979327 35.61259834607165" fill="red" stroke="none" /><path d="M 101.80526077348638 79.07773832637324 l 4.761254617558719 -55.181066617287264 a76.38609625668448,76.38609625668448 0 0,0 1.3090207944022239,0.12430729743730362 l -5.710400539051187 55.09093377533478" fill="red" stroke="none" /><path d="M 102.52436894288641 79.15227682838746 l 2.43392363851561 -20.100772662255306 a41.2475935828877,41.2475935828877 0 0,0 0.7041264182837869,0.09141581765675182 l -2.7795647853072434 20.055898521434415" fill="red" stroke="none" /><path d="M 102.88285421437855 79.19881850522331 l 2.7841896851164063 -20.0892694008378 a41.28128342245989,41.28128342245989 0 0,0 0.7030222609327601,0.10360720653704712 l -3.1295809264778223 20.038367710139784" fill="red" stroke="none" /><path d="M 104.307194497241 79.44645832069477 l 4.159782493057354 -19.850104958730068 a41.28128342245989,41.28128342245989 0 0,0 0.6942278855677173,0.15173132673774326 l -4.500853102778599 19.775560133896455" fill="red" stroke="none" /><path d="M 104.66035177308747 79.52364482259891 l 4.508329602949328 -19.808409901560733 a41.31497326203208,41.31497326203208 0 0,0 0.6920775698742652,0.16379240065975628 l -4.848630859786116 19.727871588760106" fill="red" stroke="none" /><path d="M 105.01212808612495 79.60689891045804 l 4.832549165392133 -19.662439178847144 a41.2475935828877,41.2475935828877 0 0,0 0.6880316854865792,0.1753945962950526 l -5.170289739563738 19.576341586383222" fill="red" stroke="none" /><path d="M 105.36241919743992 79.69619591428918 l 5.170289739563738 -19.576341586383222 a41.2475935828877,41.2475935828877 0 0,0 0.6849106165140696,0.18721194414172382 l -5.506498245301517 19.484443101415206" fill="red" stroke="none" /><path d="M 106.40334571778207 80.00007090966166 l 13.375116777356563 -41.77525295554096 a64.86417112299466,64.86417112299466 0 0,0 1.0604278175014956,0.34960637897254104 l -14.092227417100476 41.538832852309184" fill="red" stroke="none" /><path d="M 106.74666289553966 80.11325718540242 l 6.515761063820649 -19.20612701773435 a41.28128342245989,41.28128342245989 0 0,0 0.6709545203547626,0.23408285761441996 l -6.8453975882386855 19.091123306947722" fill="red" stroke="none" /><path d="M 107.4271985657038 80.35727306442388 l 7.1730056736155445 -18.97046248430506 a41.28128342245989,41.28128342245989 0 0,0 0.6624994039899593,0.25703947620232614 l -7.498488242605171 18.844180304212188" fill="red" stroke="none" /><path d="M 107.76421540070413 80.48803036053334 l 7.486032282069282 -18.812877679122135 a41.2475935828877,41.2475935828877 0 0,0 0.6574397577550015,0.2681861845174937 l -7.808755909412672 18.68123060842106" fill="red" stroke="none" /><path d="M 108.09893153111575 80.62456947434976 l 7.821748847697883 -18.712314186804456 a41.28128342245989,41.28128342245989 0 0,0 0.6532590943116584,0.2796914519833053 l -8.142691699799856 18.57490320685836" fill="red" stroke="none" /><path d="M 109.08828744355905 81.06846463323043 l 14.740521826906212 -30.705533030701655 a55.06042780748663,55.06042780748663 0 0,0 0.8508900416298678,0.4175280480528978 l -15.26688313554651 30.447249822513925" fill="red" stroke="none" /><path d="M 109.41281617654863 81.2277094730956 l 19.434696929226863 -38.759258676137904 a64.35882352941177,64.35882352941177 0 0,0 0.986036976272108,0.505086437130513 l -20.098994393087725 38.41897971369489" fill="red" stroke="none" /><path d="M 109.73455568895987 81.39251694778311 l 16.47586564468341 -31.493413829019506 a56.5427807486631,56.5427807486631 0 0,0 0.8585212249892799,0.4585923059164 l -17.015531916201002 31.20514279660135" fill="red" stroke="none" /><path d="M 110.36928655335952 81.73862282372117 l 21.708960885776754 -38.231706762102476 a64.96524064171123,64.96524064171123 0 0,0 0.9676828356620726,0.5605443580206222 l -22.363840453904153 37.85235824669181" fill="red" stroke="none" /><line stroke="#e1ed5e" stroke-width="0.3" x1="143.23703022742887" x2="145.7803849466894" y1="26.81831364943548" y2="22.513508569990506" /><path d="M 143.74570117128098 25.957352633546492 a86.0,86.0 0 0,1 28.547481713284135,27.462654790039103" fill="none" id="id50" stroke="none" /><text fill="#e1ed5e" style="font-size:6.75px; font-family:Arial;" text-anchor="middle"><textPath startOffset="19.985693538727396" xlink:href="#id50">February</textPath></text><path d="M 111.2981086023043 82.29822771554956 l 16.747784516356948 -26.240274209891236 a52.12941176470588,52.12941176470588 0 0,0 0.7522347948178457,0.48927443532164216 l -17.196986336959075 25.948100850410068" fill="red" stroke="none" /><path d="M 111.60114157652 82.49532879139004 l 34.803424729560035 -52.514013625829904 a84.0,84.0 0 0,0 1.1983812223738326,0.8091523508053196 l -35.70221064634041 51.90714936272591" fill="red" stroke="none" /><path d="M 111.90073688211348 82.69761687909136 l 11.474346844091224 -16.682458164170203 a41.2475935828877,41.2475935828877 0 0,0 0.5815299060477274,0.40739886231447303 l -11.759807889722602 16.482474459091794" fill="red" stroke="none" /><path d="M 112.48926042617603 83.11751280151076 l 34.16180057748149 -46.17856792527941 a78.44117647058823,78.44117647058823 0 0,0 1.0785805433142754,0.812364503904629 l -34.95162727455415 45.58368683186894" fill="red" stroke="none" /><path d="M 113.89432698308785 84.25364557470407 l 22.35723523642317 -25.337315757067103 a54.79090909090909,54.79090909090909 0 0,0 0.7018167869086441,0.6300980407564694 l -22.790063010927803 24.948718707541335" fill="red" stroke="none" /><path d="M 114.68862486808459 84.99185889309783 l 24.460095101184713 -24.992166527750474 a55.97005347593583,55.97005347593583 0 0,0 0.682739236345489,0.6798073370908067 l -24.88667013769752 24.567423340009547" fill="red" stroke="none" /><path d="M 116.38621287248628 86.86637796730983 l 39.484639146215606 -31.647112769680163 a71.60213903743315,71.60213903743315 0 0,0 0.7625488674507407,0.9683596236125279 l -40.023542094260314 30.962760752114598" fill="red" stroke="none" /><line stroke="#e1ed5e" stroke-width="0.3" x1="172.23445277983987" x2="176.4835382374775" y1="55.19839476539836" y2="52.563006222186495" /><path d="M 173.08426987136738 54.67131705675599 a86.0,86.0 0 0,1 12.851231095245387,41.99856678651699" fill="none" id="id51" stroke="none" /><text fill="#e1ed5e" style="font-size:6.75px; font-family:Arial;" text-anchor="middle"><textPath startOffset="22.20632615414155" xlink:href="#id51">March</textPath></text><line stroke="#e1ed5e" stroke-width="0.3" x1="184.98032266829074" x2="189.97916517819016" y1="98.17113171792111" y2="98.06355123074" /><path d="M 185.9800911702706 98.14961562048488 a86.0,86.0 0 0,1 -9.607161424134198,41.387399972396054" fill="none" id="id52" stroke="none" /><text fill="#e1ed5e" style="font-size:6.75px; font-family:Arial;" text-anchor="middle"><textPath startOffset="21.466115282336823" xlink:href="#id52">April</textPath></text><line stroke="#e1ed5e" stroke-width="0.3" x1="174.80103733775053" x2="179.2010983576182" y1="140.37084112569926" y2="142.7455964860345" /><path d="M 175.68104954172406 140.8457921977663 a86.0,86.0 0 0,1 -30.038265399797805,32.042727171017184" fill="none" id="id53" stroke="none" /><text fill="#e1ed5e" style="font-size:6.75px; font-family:Arial;" text-anchor="middle"><textPath startOffset="22.206326154141568" xlink:href="#id53">May</textPath></text><line stroke="#e1ed5e" stroke-width="0.3" x1="143.8653032363475" x2="146.44561519142675" y1="172.8068346515853" y2="177.08958963109032" /><path d="M 144.38136562736335 173.6633856474863 a86.0,86.0 0 0,1 -40.68145358897372,12.25698825130547" fill="none" id="id54" stroke="none" /><text fill="#e1ed5e" style="font-size:6.75px; font-family:Arial;" text-anchor="middle"><textPath startOffset="21.466115282336833" xlink:href="#id54">June</textPath></text><line stroke="#e1ed5e" stroke-width="0.3" x1="102.19456741930631" x2="102.32365962044197" y1="184.97166512339345" y2="189.96999836594603" /><path d="M 102.22038585953345 185.97133177190398 a86.0,86.0 0 0,1 -42.740103519485714,-10.115201625700543" fill="none" id="id55" stroke="none" /><text fill="#e1ed5e" style="font-size:6.75px; font-family:Arial;" text-anchor="middle"><textPath startOffset="22.20632615414155" xlink:href="#id55">July</textPath></text><line stroke="#e1ed5e" stroke-width="0.3" x1="58.666819895761336" x2="56.23545636021788" y1="174.27360380694188" y2="178.64263932499728" /><path d="M 58.180547188652646 175.14741091055294 a86.0,86.0 0 0,1 -31.652253787137756,-30.449443065178592" fill="none" id="id56" stroke="none" /><text fill="#e1ed5e" style="font-size:6.75px; font-family:Arial;" text-anchor="middle"><textPath startOffset="22.20632615414155" xlink:href="#id56">August</textPath></text><line stroke="#e1ed5e" stroke-width="0.3" x1="26.63291911575756" x2="22.317208475507996" y1="142.92168965132927" y2="145.44649492493687" /><path d="M 25.769776987707644 143.4266507060508 a86.0,86.0 0 0,1 -11.730757126820373,-40.83630448921669" fill="none" id="id57" stroke="none" /><text fill="#e1ed5e" style="font-size:6.75px; font-family:Arial;" text-anchor="middle"><textPath startOffset="21.46611528233685" xlink:href="#id57">September</textPath></text><line stroke="#e1ed5e" stroke-width="0.3" x1="15.007084014347285" x2="10.007500721073583" y1="101.09737516637583" y2="101.16192664675087" /><path d="M 14.007167355692545 101.11028546245083 a86.0,86.0 0 0,1 10.666146001902534,-42.60595125391555" fill="none" id="id58" stroke="none" /><text fill="#e1ed5e" style="font-size:6.75px; font-family:Arial;" text-anchor="middle"><textPath startOffset="22.20632615414155" xlink:href="#id58">October</textPath></text><line stroke="#e1ed5e" stroke-width="0.3" x1="26.266209847984243" x2="21.928928074336255" y1="57.711370442889674" y2="55.22380399835377" /><path d="M 25.398753493254645 57.213857153982495 a86.0,86.0 0 0,1 29.58750427330803,-30.492523968695096" fill="none" id="id59" stroke="none" /><text fill="#e1ed5e" style="font-size:6.75px; font-family:Arial;" text-anchor="middle"><textPath startOffset="21.46611528233685" xlink:href="#id59">November</textPath></text><line stroke="#e1ed5e" stroke-width="0.3" x1="56.762969772571076" x2="54.21961505331055" y1="26.818313649435495" y2="22.513508569990535" /><path d="M 56.25429882871897 25.957352633546506 a86.0,86.0 0 0,1 42.265352541879196,-11.944610805530505" fill="none" id="id60" stroke="none" /><text fill="#e1ed5e" style="font-size:6.75px; font-family:Arial;" text-anchor="middle"><textPath startOffset="22.20632615414155" xlink:href="#id60">December</textPath></text></svg>