<?xml version="1.0" encoding="utf-8" ?>
<svg baseProfile="full" height="200mm" version="1.1" viewBox="0,0,200,200" width="200mm" xmlns="http://www.w3.org/2000/svg" xmlns:ev="http://www.w3.org/2001/xml-events" xmlns:xlink="http://www.w3.org/1999/xlink"><defs /><rect fill="#1a1a1a" height="200" width="200" x="0" y="0" /><text alignment-baseline="middle" fill="#e1ed5e" style="dominant-baseline: central; font-size:9.0px; font-family:Arial;" text-anchor="middle" x="100.0" y="100.0">2024</text><line stroke="#e1ed5e" stroke-width="0.3" x1="100.0" x2="100.0" y1="15.0" y2="10.0" /><path d="M 100.0 14.0 a86.0,86.0 0 0,1 42.35913384403234,11.155469271406648" fill="none" id="id25" stroke="none" /><text fill="#e1ed5e" style="font-size:6.75px; font-family:Arial;" text-anchor="middle"><textPath startOffset="22.145653131862478" xlink:href="#id25">January</textPath></text><path d="M 100.72087961077811 79.0123766808444 l 0.5083019498148815 -14.798656662784566 a35.807383627608345,35.807383627608345 0 0,0 0.6141379601403764,0.026373726481431152 l -0.7622656705560943 14.787750367877305" fill="#ffb911" stroke="none" /><path d="M 101.08105385017728 79.02784411241856 l 0.7734207779300858 -15.00415647082185 a36.02407704654895,36.02407704654895 0 0,0 0.6173079802102841,0.037135715178509755 l -1.0308731102728321 14.988668777818647" fill="#ffbc11" stroke="none" /><path d="M 101.44090949804482 79.04949213459386 l 1.0169959722499289 -14.786898236578786 a35.82182985553772,35.82182985553772 0 0,0 0.6131179197126894,0.04745920461449115 l -1.2706828867378517 14.76726126496924" fill="#ffb911" stroke="none" /><path d="M 101.80034050326958 79.07731436759882 l 1.2719213690836004 -14.781654307137828 a35.8362760834671,35.8362760834671 0 0,0 0.6124597682386457,0.058000576824219885 l -1.525480700707259 14.757641974808426" fill="#ffb911" stroke="none" /><path d="M 102.15924093988457 79.11130261209362 l 4.167963822964526 -40.32126911520198 a61.53611556982344,61.53611556982344 0 0,0 1.0498181411243797,0.11763431242408151 l -4.8595178656897025 40.24377904227093" fill="#31ff3e" stroke="none" /><path d="M 102.87502721639298 79.19773525538626 l 1.0106435961317217 -7.312513610064861 a28.382022471910112,28.382022471910112 0 0,0 0.4820549937051874,0.07084548359926325 l -1.136023695444591 7.294087053166716" fill="#ff5507" stroke="none" /><path d="M 103.23170211078529 79.25015418208739 l 2.278716805930931 -14.630996535216992 a35.807383627608345,35.807383627608345 0 0,0 0.6065472339594973,0.09980711652974318 l -2.529541542943499 14.58972342019158" fill="#ffb911" stroke="none" /><path d="M 103.58742460773223 79.30868818359171 l 2.532009388351249 -14.603957296699086 a35.82182985553772,35.82182985553772 0 0,0 0.6049885157334812,0.11024906079444363 l -2.782332637635784 14.558340061973277" fill="#ffb911" stroke="none" /><path d="M 103.94208987418118 79.37332000966035 l 2.7796208124529027 -14.544150646708195 a35.807383627608345,35.807383627608345 0 0,0 0.6027636169667059,0.12056960477298312 l -3.0288809149505656 14.494291645272352" fill="#ffb911" stroke="none" /><path d="M 104.29559338865022 79.4440306129975 l 3.0407009380332997 -14.550854734619758 a35.86516853932584,35.86516853932584 0 0,0 0.6015742997066473,0.1311103186929747 l -3.290037654359081 14.496512957793064" fill="#ffba11" stroke="none" /><path d="M 104.64783097203109 79.52079915486377 l 7.037291425893428 -31.00760448989556 a52.796147672552166,52.796147672552166 0 0,0 0.8821176487952078,0.2081773632338367 l -7.56854122842852 30.882230983015496" fill="#7cff26" stroke="none" /><path d="M 105.3480935250658 79.69241777938227 l 3.782050087434748 -14.361060208297424 a35.85072231139647,35.85072231139647 0 0,0 0.5937880004680606,0.1618395599855222 l -4.028019488837502 14.29402015416776" fill="#ffb911" stroke="none" /><path d="M 106.04205211174951 79.88797359093562 l 4.264488970411598 -14.195096832630172 a35.82182985553772,35.82182985553772 0 0,0 0.5874086980206245,0.1819807161904048 l -4.507538301303853 14.119799528633122" fill="#ffb911" stroke="none" /><path d="M 106.38641147887787 79.99465700312896 l 4.51193161348836 -14.133561516477796 a35.8362760834671,35.8362760834671 0 0,0 0.5844337964745474,0.19211499723140466 l -4.753888147610651 14.054025597844369" fill="#ffb911" stroke="none" /><path d="M 106.72888874123014 80.10723608172694 l 3.2494931641895572 -9.606549142830325 a31.141252006420544,31.141252006420544 0 0,0 0.504924598070366,0.1756389856865227 l -3.4139235343049417 9.54935172457521" fill="#ff7b0b" stroke="none" /><path d="M 107.06938296918511 80.22567764915836 l 14.623458785833279 -40.904416860110636 a64.43980738362761,64.43980738362761 0 0,0 1.0384347563780105,0.38132762636213796 l -15.323482693865413 40.647358384739775" fill="#35ff61" stroke="none" /><path d="M 107.74402155503746 80.48000691201159 l 5.646867357261898 -14.233794547077075 a36.313001605136435,36.313001605136435 0 0,0 0.5774554708009388,0.23484611284924253 l -5.890377289253276 14.134761177648539" fill="#ffbf11" stroke="none" /><path d="M 108.07796709384702 80.6158196554323 l 8.352110439384598 -20.042024575477125 a42.71268057784911,42.71268057784911 0 0,0 0.6743822250030465,0.28785367060791284 l -8.694927739558073 19.89569625520981" fill="#efff19" stroke="none" /><path d="M 108.4095320186766 80.7573450057729 l 3.49416923133272 -7.995343006085647 a29.725521669341894,29.725521669341894 0 0,0 0.4658224178335671,0.20835644247500112 l -3.6309050520219186 7.934182812700794" fill="#ff6809" stroke="none" /><path d="M 108.73861861582097 80.90454125486305 l 11.307503978233822 -24.708936872003626 a48.173354735152486,48.173354735152486 0 0,0 0.7490068576999457,0.3505730289769278 l -11.729999549805271 24.511187611456165" fill="#afff20" stroke="none" /><path d="M 109.3889696526874 81.21577127319529 l 18.504515974512298 -37.02142763285633 a62.3884430176565,62.3884430176565 0 0,0 0.9538681301258594,0.4870518638217757 l -19.137311326351735 36.69831781736172" fill="#32ff49" stroke="none" /><path d="M 110.02825361518725 81.54914285379988 l 11.16192227656935 -20.53667979538073 a44.37399678972713,44.37399678972713 0 0,0 0.6661504944144775,0.3695024499618343 l -11.512816959139927 20.34204442998575" fill="#dbff1b" stroke="none" /><path d="M 110.34350942703115 81.72400993836675 l 4.354662533370602 -7.694271440760987 a29.841091492776886,29.841091492776886 0 0,0 0.4436482633958077,0.2561404442970796 l -4.4861032646268075 7.618384099187736" fill="#ff6909" stroke="none" /><line stroke="#e1ed5e" stroke-width="0.3" x1="143.13028292997686" x2="145.6673583964461" y1="26.7553504044142" y2="22.446841604673864" /><path d="M 143.63769802327073 25.89364864446614 a86.0,86.0 0 0,1 29.32050498858742,28.57503671076993" fill="none" id="id26" stroke="none" /><text fill="#e1ed5e" style="font-size:6.75px; font-family:Arial;" text-anchor="middle"><textPath startOffset="20.669276256404974" xlink:href="#id26">February</textPath></text><path d="M 110.65571695917076 81.90426304109057 l 7.506159710748124 -12.747100192104973 a35.792937399678976,35.792937399678976 0 0,0 0.526782118896719,0.3163175267178397 l -7.723874586202277 12.616368664851212" fill="#ffb911" stroke="none" /><path d="M 110.96478420261332 82.08984904055464 l 13.592208988609864 -22.201851888732303 a47.03210272873194,47.03210272873194 0 0,0 0.6849573387092129,0.42746403858028587 l -13.971330456108788 21.965252053310472" fill="#bcff1f" stroke="none" /><path d="M 111.27062007382361 82.28071324371311 l 5.442771354155587 -8.5569405890255 a31.141252006420544,31.141252006420544 0 0,0 0.44860362673559584,0.2907794509747565 l -5.58886061314819 8.462247296346847" fill="#ff7b0b" stroke="none" /><path d="M 111.5731344415666 82.4767994020092 l 16.54366432211103 -25.049216355852927 a51.01926163723917,51.01926163723917 0 0,0 0.726669073059453,0.48893538256473884 l -16.971229683267484 24.76153129923107" fill="#8fff24" stroke="none" /><path d="M 113.86319453409587 84.22622945171908 l 9.79419911936468 -11.144000701502756 a35.8362760834671,35.8362760834671 0 0,0 0.4585933662876494,0.41007701596143875 l -9.984057512475706 10.97422815565793" fill="#ffb911" stroke="none" /><path d="M 114.39649973595853 84.71141617570332 l 5.763881802105845 -6.121042732681038 a29.407704654895667,29.407704654895667 0 0,0 0.3645540309150514,0.3492345150708145 l -5.868108318886208 6.021196087304643" fill="#ff6309" stroke="none" /><path d="M 115.8921839302757 86.27271002978787 l 17.874607241000312 -15.439660010064314 a44.61958266452648,44.61958266452648 0 0,0 0.49571386712751625,0.5839496890214287 l -18.13701567163494 15.130543538593333" fill="#d8ff1c" stroke="none" /><path d="M 116.1254893667686 86.54754324733833 l 11.43685820027867 -9.5410338766298 a35.89406099518459,35.89406099518459 0 0,0 0.3906524671853405,0.47653249076345255 l -11.598957486702636 9.343299104167853" fill="#ffba11" stroke="none" /><path d="M 116.35404254752997 86.82634096563983 l 9.078912407147456 -7.313329172709463 a32.65810593900481,32.65810593900481 0 0,0 0.34793879096283986,0.43960929611801236 l -9.203117628751855 7.156399932676773" fill="#ff8f0d" stroke="none" /><path d="M 116.57777611688842 87.10902102172516 l 9.68209029344526 -7.528851973782628 a33.26484751203852,33.26484751203852 0 0,0 0.3466641000771495,0.45379443506810074 l -9.809906370876718 7.361536625473645" fill="#ff970e" stroke="none" /><path d="M 116.7966241395341 87.39550010848427 l 17.50530995509803 -13.13631093944944 a42.88603531300161,42.88603531300161 0 0,0 0.4368207781670369,0.5926312794431092 l -17.728232752848896 12.833873350737456" fill="#edff1a" stroke="none" /><path d="M 117.01052211995028 87.68569379921539 l 26.35246215142951 -19.077150353703466 a53.53290529695024,53.53290529695024 0 0,0 0.532486459445638,0.7490088903165429 l -26.67606370940511 18.621964236677417" fill="#74ff27" stroke="none" /><path d="M 117.42321728460499 88.27688183743584 l 12.285345826682034 -8.266128949755743 a35.807383627608345,35.807383627608345 0 0,0 0.33876438252361696,0.5129324523436734 l -12.425434648126377 8.05401661907301" fill="#ffb911" stroke="none" /><path d="M 117.62189284568427 88.57770195909679 l 8.546274562857652 -5.539591918484362 a31.184590690208665,31.184590690208665 0 0,0 0.2873174567830169,0.4517107642240129 l -8.64010971126656 5.392067479581677" fill="#ff7b0b" stroke="none" /><line stroke="#e1ed5e" stroke-width="0.3" x1="172.87174338648825" x2="177.1583165268699" y1="56.24261187166439" y2="53.66864786411523" /><path d="M 173.72905801456457 55.72781907015455 a86.0,86.0 0 0,1 12.242430191666344,42.057860355516425" fill="none" id="id27" stroke="none" /><text fill="#e1ed5e" style="font-size:6.75px; font-family:Arial;" text-anchor="middle"><textPath startOffset="22.145653131862474" xlink:href="#id27">March</textPath></text><path d="M 118.00360718960297 89.18935116829356 l 13.40052945137612 -8.046632907066984 a36.63081861958266,36.63081861958266 0 0,0 0.3190828449995086,0.5418724289820949 l -13.536686006505397 7.815409309791333" fill="#ffc312" stroke="none" /><path d="M 118.18653347947321 89.5 l 10.05868350206131 -5.807383627608346 a32.61476725521669,32.61476725521669 0 0,0 0.27577592724380195,0.48726963910081933 l -10.156892794326488 5.6338572184084095" fill="#ff8f0d" stroke="none" /><path d="M 118.36410011445183 89.81374322990088 l 41.71400498366427 -23.13805539202061 a68.70144462279293,68.70144462279293 0 0,0 0.5632034847599005,1.036230977027708 l -42.10505381803951 22.418569581518298" fill="#3aff91" stroke="none" /><path d="M 118.70294669586156 90.45014215332178 l 8.054146731214855 -4.112504709025843 a30.04333868378812,30.04333868378812 0 0,0 0.2305899017362928,0.46133426952404516 l -8.123556546162886 3.973638583338047" fill="#ff6c09" stroke="none" /><path d="M 118.8641267826498 90.77261029715802 l 13.31432750217751 -6.5127047707745 a35.82182985553772,35.82182985553772 0 0,0 0.2654580830167885,0.5547052962938993 l -13.42416484315421 6.283186972415497" fill="#ffb911" stroke="none" /><path d="M 119.0197475246899 91.09779779509293 l 13.777432339026694 -6.44853399800538 a36.21187800963082,36.21187800963082 0 0,0 0.25868305991516016,0.5652691707740369 l -13.886099863796906 6.2110758450166585" fill="#ffbe11" stroke="none" /><path d="M 119.16976305983485 91.42560881287824 l 17.446638290411492 -7.803659395020928 a40.1123595505618,40.1123595505618 0 0,0 0.2757555062597196,0.6309825633495012 l -17.578027678688183 7.503014761895577" fill="#ffef16" stroke="none" /><path d="M 119.4528033332814 92.08871423366111 l 27.004648332879054 -10.982555383952217 a50.15248796147672,50.15248796147672 0 0,0 0.31749229539734325,0.8002879857190363 l -27.18919930324252 10.517366381019615" fill="#99ff23" stroke="none" /><path d="M 119.71291397450082 92.76114493625339 l 13.899841887546446 -5.104214473978635 a35.807383627608345,35.807383627608345 0 0,0 0.20693228515323048,0.5788264307157768 l -13.985414342743619 4.864853086881941" fill="#ffb911" stroke="none" /><path d="M 119.83427380445688 93.10060997987247 l 13.971770036067776 -4.860106888748399 a35.792937399678976,35.792937399678976 0 0,0 0.19688600354336416,0.582058485125787 l -14.053141461183506 4.619546729148451" fill="#ffb911" stroke="none" /><path d="M 119.94978838288452 93.4421083053983 l 6.985399417717188 -2.2962395362661723 a28.353130016051363,28.353130016051363 0 0,0 0.1480239746625796,0.4636829923469647 l -7.023788108157025 2.1759875102278206" fill="#ff5507" stroke="none" /><path d="M 120.05942366710727 93.78553927170692 l 8.334711232469243 -2.58211484514264 a29.725521669341894,29.725521669341894 0 0,0 0.14682097606457428,0.4887192783844219 l -8.377808528537443 2.4386579631674947" fill="#ff6809" stroke="none" /><path d="M 120.26092885502905 94.47779374421319 l 59.5980727705372 -16.243719754467605 a82.77207062600321,82.77207062600321 0 0,0 0.36187365614480427,1.3740932149360159 l -59.86813590748673 15.218246035158792" fill="#4bddff" stroke="none" /><path d="M 120.43855184770803 95.1765574152323 l 8.45005938578711 -1.9941910067269375 a29.682182985553773,29.682182985553773 0 0,0 0.11277694321452518,0.49691602054571016 l -8.483047190559303 1.8488406522422012" fill="#ff6709" stroke="none" /><path d="M 120.51834098615036 95.52812308129327 l 14.552448674653307 -3.171638456675056 a35.89406099518459,35.89406099518459 0 0,0 0.12604334407593895,0.603163029607566 l -14.604749729553614 2.921358975782086" fill="#ffba11" stroke="none" /><path d="M 120.592083275326 95.88100663000786 l 14.633080960842761 -2.9270260155023236 a35.92295345104334,35.92295345104334 0 0,0 0.11576378343845665,0.6057250320686709 l -14.681171036563375 2.6753984184003383" fill="#ffba11" stroke="none" /><path d="M 120.65975698304385 96.23510406497455 l 18.916397531138283 -3.4471977685293798 a40.22792937399679,40.22792937399679 0 0,0 0.11797354154319524,0.6804400373724762 l -18.972785890173714 3.1219646982363107" fill="#fff116" stroke="none" /><path d="M 120.77682067341334 96.94652285012252 l 36.38921263552651 -5.3479611260638 a57.780096308186195,57.780096308186195 0 0,0 0.13579831365604328,0.9825689497608742 l -36.475655465737766 4.72250386810284" fill="#48ff2c" stroke="none" /><path d="M 120.86939407059847 97.66154086499901 l 25.870200492009932 -2.8988099252041546 a47.03210272873194,47.03210272873194 0 0,0 0.08301750117669515,0.8031190164784703 l -25.916150385668296 2.4542863864427527" fill="#bcff1f" stroke="none" /><path d="M 120.9064616781168 98.02013634271609 l 16.122089113392985 -1.5267786011111686 a37.19422150882825,37.19422150882825 0 0,0 0.05473993540074526,0.6361610250104074 l -16.14592267149147 1.2497965287250992" fill="#ffcb12" stroke="none" /><path d="M 120.93736805541906 98.37931529534042 l 28.835091158185485 -2.2320184215054852 a49.921348314606746,49.921348314606746 0 0,0 0.058802686219160724,0.854978152210965 l -28.86915780556971 1.736696845140186" fill="#9bff22" stroke="none" /><path d="M 120.99303781780057 99.45929381324524 l 37.59106450795796 -0.9682124770391962 a58.60353130016051,58.60353130016051 0 0,0 0.017270093429083797,1.0058963615355336 l -37.602146032985715 0.32276919953459615" fill="#40ff2d" stroke="none" /><line stroke="#e1ed5e" stroke-width="0.3" x1="184.99686870605535" x2="189.99668451229388" y1="99.2704041080226" y2="99.22748670261217" /><path d="M 185.99683186730306 99.26182062694052 a86.0,86.0 0 0,1 -10.086455211305974,41.156179273409016" fill="none" id="id28" stroke="none" /><text fill="#e1ed5e" style="font-size:6.75px; font-family:Arial;" text-anchor="middle"><textPath startOffset="21.40746469413373" xlink:href="#id28">April</textPath></text><path d="M 120.99922638620191 99.81974689727618 l 14.879066620812637 -0.12771889186347835 a35.87961476725522,35.87961476725522 0 0,0 0.0,0.6159439891746087 l -14.879066620812637 -0.12771889186347654" fill="#ffba11" stroke="none" /><path d="M 120.99922638620191 100.18025310272382 l 14.821283837819188 0.12722289616691934 a35.82182985553772,35.82182985553772 0 0,0 -0.010556468777231385,0.6148613831933227 l -14.816915937443287 -0.38163119532931317" fill="#ffb911" stroke="none" /><path d="M 120.93736805541906 101.62068470465957 l 29.209572861538536 2.261005673732819 a50.296950240770464,50.296950240770464 0 0,0 -0.0740236438711528,0.8602669479846959 l -29.166455594969644 -2.7620936690931717" fill="#97ff23" stroke="none" /><path d="M 120.9064616781168 101.97986365728391 l 37.69491129902142 3.5697472912688384 a58.86356340288925,58.86356340288925 0 0,0 -0.10390149834994589,1.005152744694668 l -37.62807740818981 -4.216304558246438" fill="#3dff2e" stroke="none" /><path d="M 120.82617615685814 102.69636545807757 l 18.424074206181768 2.3853652688060714 a39.577849117174964,39.577849117174964 0 0,0 -0.09301827985157701,0.6730339360017201 l -18.38041140977498 -2.7012875130078764" fill="#ffe915" stroke="none" /><path d="M 120.77682067341334 103.0534771498775 l 14.678602268926053 2.1572490481019355 a35.8362760834671,35.8362760834671 0 0,0 -0.09467348211580214,0.6078716693570615 l -14.639407294671983 -2.4089088993904477" fill="#ffb911" stroke="none" /><path d="M 120.7213421655516 103.40968896794604 l 25.67241727137706 4.224386492504572 a47.01765650080257,47.01765650080257 0 0,0 -0.13788528365187439,0.7952856745157943 l -25.596117170232954 -4.664465199940955" fill="#bcff1f" stroke="none" /><path d="M 120.65975698304385 103.76489593502545 l 24.0327785312959 4.379572822376542 a45.42857142857143,45.42857142857143 0 0,0 -0.14639618404267593,0.7660066960503809 l -23.954056054971065 -4.791482083460238" fill="#cfff1d" stroke="none" /><path d="M 120.51834098615036 104.47187691870673 l 30.389352081986978 6.623217844055661 a52.102728731942214,52.102728731942214 0 0,0 -0.19796342076268625,0.8722633585828563 l -30.271177799666628 -7.143915536577534" fill="#83ff25" stroke="none" /><path d="M 120.43855184770803 104.8234425847677 l 9.237419328555955 2.180005809350413 a30.491171749598713,30.491171749598713 0 0,0 -0.12459632701188134,0.5083955328093357 l -9.198635475027778 -2.338257166767848" fill="#ff720a" stroke="none" /><path d="M 120.35273937422433 105.17358676015961 l 17.501209046856502 4.448738901765312 a39.05778491171749,39.05778491171749 0 0,0 -0.1707578814934264,0.6483954893446899 l -17.422261684558347 -4.748514895482805" fill="#ffe215" stroke="none" /><path d="M 120.26092885502905 105.52220625578681 l 21.296972683204128 5.804584608238184 a43.07383627608347,43.07383627608347 0 0,0 -0.20056307920038627,0.7117276130904814 l -21.194191111929165 -6.169320145231674" fill="#eaff1a" stroke="none" /><path d="M 120.16314734710363 105.8691983318838 l 13.52378032338412 3.936575354450839 a35.08507223113965,35.08507223113965 0 0,0 -0.17329299070248894,0.576836005557897 l -13.454211012678 -4.168148963599459" fill="#ffaf10" stroke="none" /><path d="M 120.05942366710727 106.21446072829308 l 18.13213668785527 5.617382295558654 a39.98234349919743,39.98234349919743 0 0,0 -0.2087369330202827,0.653865469676781 l -18.03303503905773 -5.927816798926818" fill="#ffee16" stroke="none" /><path d="M 119.83427380445688 106.89939002012753 l 35.898170864154594 12.487247289352576 a59.00802568218298,59.00802568218298 0 0,0 -0.3410097125158265,0.9538648577179978 l -35.67852098159482 -13.101647103451496" fill="#3cff2e" stroke="none" /><path d="M 119.58574465831526 107.57618678355244 l 17.52881481343832 6.780522131668244 a39.79454253611557,39.79454253611557 0 0,0 -0.2519209149461013,0.6350052725858991 l -17.40983522352609 -7.080428421467707" fill="#ffeb16" stroke="none" /><path d="M 119.4528033332814 107.91128576633889 l 12.88675735607658 5.2409320291109935 a34.91171749598716,34.91171749598716 0 0,0 -0.2305406161684201,0.5532135534397469 l -12.794890895371674 -5.461378091992018" fill="#ffad10" stroke="none" /><path d="M 119.31412917781788 108.2440532568976 l 13.671799305646365 5.835678148141003 a35.86516853932584,35.86516853932584 0 0,0 -0.24655786442046315,0.5641726448772091 l -13.569607559208936 -6.069512862794057" fill="#ffba11" stroke="none" /><path d="M 119.16976305983485 108.57439118712176 l 17.327953676190997 7.750573276687452 a39.98234349919743,39.98234349919743 0 0,0 -0.2856177455419558,0.6241263198054203 l -17.192351465793987 -8.046888578707561" fill="#ffee16" stroke="none" /><path d="M 118.8641267826498 109.22738970284198 l 42.86279116929075 20.96633904275649 a68.7158908507223,68.7158908507223 0 0,0 -0.5274111071929786,1.0551755130803364 l -42.49656014888604 -21.699046412000573" fill="#3aff92" stroke="none" /><path d="M 118.5362547648365 109.86951160357373 l 8.08437435512933 4.3044739899099325 a30.158908507223114,30.158908507223114 0 0,0 -0.24723792143066547,0.4548899284449804 l -8.009291084083326 -4.442618751829516" fill="#ff6d0a" stroke="none" /><line stroke="#e1ed5e" stroke-width="0.3" x1="174.33088141563837" x2="178.70328620479359" y1="141.23008692659167" y2="143.65538615756765" /><path d="M 175.20536237346943 141.71514677278685 a86.0,86.0 0 0,1 -30.301960400862466,31.631185727798858" fill="none" id="id29" stroke="none" /><text fill="#e1ed5e" style="font-size:6.75px; font-family:Arial;" text-anchor="middle"><textPath startOffset="22.145653131862474" xlink:href="#id29">May</textPath></text><path d="M 117.62189284568427 111.42229804090321 l 33.02135022585001 21.404040263760855 a60.351524879614765,60.351524879614765 0 0,0 -0.5709701460689136,0.8645215741289951 l -32.64905564086036 -21.96774171622891" fill="#2fff30" stroke="none" /><path d="M 117.423217284605 111.72311816256416 l 14.406815301143231 9.693548290347707 a38.364365971107546,38.364365971107546 0 0,0 -0.37233578692784747,0.5432490405175325 l -14.238289777400064 -9.939432065935284" fill="#ffda14" stroke="none" /><path d="M 117.21940702142032 112.02048342749411 l 14.700264237731675 10.261926117991417 a38.927768860353126,38.927768860353126 0 0,0 -0.38721062680206325,0.5446602383123984 l -14.521938512399652 -10.512763583013319" fill="#ffe115" stroke="none" /><path d="M 117.01052211995028 112.31430620078461 l 19.56541594901871 14.163852305236318 a45.15409309791332,45.15409309791332 0 0,0 -0.4599223486270222,0.6239729965571513 l -19.31939158080786 -14.497631611062346" fill="#d2ff1c" stroke="none" /><path d="M 116.79662413953412 112.60449989151573 l 15.344588528297152 11.514865298738515 a40.184590690208665,40.184590690208665 0 0,0 -0.41877705777994256,0.5481926115581011 l -15.144659493162905 -11.776578823537493" fill="#fff016" stroke="none" /><path d="M 116.57777611688842 112.89097897827486 l 14.004248386750039 10.889788249475938 a38.73996789727127,38.73996789727127 0 0,0 -0.4127348235470389,0.5214769665687632 l -13.815247132561439 -11.128585159959384" fill="#ffde14" stroke="none" /><path d="M 116.1254893667686 113.45245675266167 l 25.52493765164037 21.29381081486438 a54.24077046548957,54.24077046548957 0 0,0 -0.6026031728172122,0.7098650223545503 l -25.155639915316048 -21.728842619668487" fill="#6dff28" stroke="none" /><path d="M 115.89218393027572 113.72728997021213 l 5.684890376342608 4.910472908399657 a28.512038523274477,28.512038523274477 0 0,0 -0.32312141488218643,0.3676528555559122 l -5.599757897501836 -5.007338041766862" fill="#ff5708" stroke="none" /><path d="M 115.6541949942343 113.99807769240083 l 11.479503689878765 10.265042985622069 a36.39967897271268,36.39967897271268 0 0,0 -0.4205069432094084,0.46221079256123804 l -11.301599045827476 -10.460591353740979" fill="#ffc011" stroke="none" /><path d="M 115.41159269507618 114.26474011684316 l 19.95272927227703 18.467948337467657 a48.18780096308186,48.18780096308186 0 0,0 -0.5671111377668532,0.602252375678839 l -19.632762300773916 -18.807742173090993" fill="#afff20" stroke="none" /><path d="M 115.16444852881244 114.52719865689866 l 12.601688023025979 12.07213206434321 a38.45104333868379,38.45104333868379 0 0,0 -0.46070428635881794,0.4727231836365782 l -12.392596935516353 -12.286677940047525" fill="#ffdb14" stroke="none" /><path d="M 114.91283532996324 114.78537596483092 l 10.60757055573171 10.5169081043122 a35.93739967897271,35.93739967897271 0 0,0 -0.4381078422540867,0.4343633532821594 l -10.425470793347658 -10.697451467823022" fill="#ffbb11" stroke="none" /><path d="M 114.65682725009322 115.03919595460226 l 10.738033263941258 11.018168097902826 a36.38523274478331,36.38523274478331 0 0,0 -0.45105129484102313,0.43209693726462656 l -10.547309483234923 -11.200877165473033" fill="#ffc011" stroke="none" /><path d="M 114.39649973595853 115.28858382429668 l 31.037810253951395 32.96107890759857 a66.2744783306581,66.2744783306581 0 0,0 -0.834964470856654,0.7728306489291583 l -30.467416011780774 -33.489027302660105" fill="#37ff76" stroke="none" /><path d="M 113.86319453409587 115.77377054828091 l 9.775125703358128 11.122298655345976 a35.807383627608345,35.807383627608345 0 0,0 -0.46518995379119604,0.40182000252060524 l -9.582756269804078 -11.2884627903313" fill="#ffb911" stroke="none" /><path d="M 113.59037401385872 116.0094264158162 l 16.12707762479223 18.99765689104536 a45.919743178170144,45.919743178170144 0 0,0 -0.6053220704957966,0.5049812002330671 l -15.798581220134537 -19.271700275190295" fill="#c9ff1d" stroke="none" /><path d="M 113.03279911837588 116.46651593811092 l 20.1902294986809 25.509695408823063 a53.53290529695024,53.53290529695024 0 0,0 -0.7254729753474296,0.5641321736142266 l -19.74934657869824 -25.852528634058086" fill="#74ff27" stroke="none" /><path d="M 112.7482090630111 116.68781488649013 l 11.716308627504818 15.337024091963412 a40.30016051364366,40.30016051364366 0 0,0 -0.5533538490726431,0.41524704444564536 l -11.451301789521409 -15.535890163673072" fill="#fff216" stroke="none" /><path d="M 112.45986205192187 116.90419585922612 l 17.271237354704816 23.43175050883326 a50.1091492776886,50.1091492776886 0 0,0 -0.6968011020519354,0.5044302621168907 l -16.866455242278914 -23.724781542323228" fill="#99ff23" stroke="none" /><path d="M 111.8722381534696 117.32195027204791 l 9.963859583054052 14.537568905227095 a38.624398073836275,38.624398073836275 0 0,0 -0.5501286111382564,0.3701510810336691 l -9.712834683818793 -14.706469660317886" fill="#ffdd14" stroke="none" /><path d="M 111.5731344415666 117.5232005979908 l 13.725349995822622 20.781929257695108 a45.90529695024077,45.90529695024077 0 0,0 -0.6612862801407766,0.42863777735307773 l -13.366578083424836 -21.01448087675208" fill="#c9ff1d" stroke="none" /><path d="M 111.27062007382361 117.71928675628689 l 8.365741155461368 13.152334609057712 a36.58747993579454,36.58747993579454 0 0,0 -0.5328458953120262,0.33253524778672794 l -8.138731131359627 -13.294005653685987" fill="#ffc312" stroke="none" /><path d="M 110.96478420261333 117.91015095944535 l 14.693464544845739 24.000670077275537 a49.141252006420544,49.141252006420544 0 0,0 -0.7232357760447969,0.43428230326321987 l -14.279296012243506 -24.249366381074683" fill="#a4ff21" stroke="none" /><line stroke="#e1ed5e" stroke-width="0.3" x1="143.1302829299769" x2="145.66735839644613" y1="173.24464959558577" y2="177.55315839532614" /><path d="M 143.63769802327073 174.10635135553383 a86.0,86.0 0 0,1 -40.68552437913181,11.842963189579606" fill="none" id="id30" stroke="none" /><text fill="#e1ed5e" style="font-size:6.75px; font-family:Arial;" text-anchor="middle"><textPath startOffset="21.407464694133747" xlink:href="#id30">June</textPath></text><path d="M 110.34350942703117 118.27599006163325 l 8.65240137349454 15.28796416987804 a38.566613162118784,38.566613162118784 0 0,0 -0.5789689972616006,0.3211443431084504 l -8.388688188076843 -15.434241428419634" fill="#ffdc14" stroke="none" /><path d="M 109.71004243097381 118.62028667847754 l 6.766525784849669 12.97570539231673 a35.63402889245586,35.63402889245586 0 0,0 -0.5448150789542515,0.27818646127516894 l -6.542783484181835 -13.089949805264734" fill="#ffb710" stroke="none" /><path d="M 109.3889696526874 118.78422872680471 l 7.149912455073336 14.304614446621972 a36.99197431781701,36.99197431781701 0 0,0 -0.5704510353517043,0.2790361870564387 l -6.903301170459563 -14.425244383775635" fill="#ffc812" stroke="none" /><path d="M 109.06512990194946 118.94263497670748 l 7.801291566616907 16.301698937762716 a39.072231139646874,39.072231139646874 0 0,0 -0.607501163872185,0.2843412192241896 l -7.520301688873216 -16.43321638855744" fill="#ffe215" stroke="none" /><path d="M 108.73861861582097 119.09545874513695 l 6.131660849440991 13.398785544627167 a35.73515248796148,35.73515248796148 0 0,0 -0.5599980824142152,0.2504800193758315 l -5.900749364171149 -13.502069314912848" fill="#ffb811" stroke="none" /><path d="M 108.4095320186766 119.2426549942271 l 7.075114188609131 16.189245855037658 a38.6677367576244,38.6677367576244 0 0,0 -0.6105173919700614,0.2605935710238447 l -6.796161721468638 -16.308314075720904" fill="#ffdd14" stroke="none" /><path d="M 108.07796709384702 119.3841803445677 l 12.803235164565614 30.723103540851163 a54.28410914927769,54.28410914927769 0 0,0 -0.8632350513644027,0.3510701803672665 l -12.27394565201077 -30.93836097779772" fill="#6cff28" stroke="none" /><path d="M 107.407793817531 119.65005319985036 l 6.436168487646169 17.07270157629742 a39.24558587479936,39.24558587479936 0 0,0 -0.6324348576057934,0.23223883984841015 l -6.142144478386249 -17.18067126515455" fill="#ffe515" stroke="none" /><path d="M 107.06938296918513 119.77432235084164 l 4.906907188196139 13.725492720935025 a35.57624398073836,35.57624398073836 0 0,0 -0.5768336060837832,0.20065267144766194 l -4.670567810067334 -13.807703824951277" fill="#ffb610" stroke="none" /><path d="M 106.72888874123015 119.89276391827305 l 3.9021691416122524 11.536069697159492 a33.17817014446228,33.17817014446228 0 0,0 -0.5410842324253866,0.17786513449669514 l -3.7035621715391316 -11.601355753058206" fill="#ff960d" stroke="none" /><path d="M 106.38641147887787 120.00534299687104 l 4.415278745429213 13.830797783895013 a35.518459069020864,35.518459069020864 0 0,0 -0.5824340041134829,0.18043954330158019 l -4.177204108444106 -13.904553915003238" fill="#ffb510" stroke="none" /><path d="M 106.0420521117495 120.11202640906438 l 2.3234398971345827 7.733975759688369 a29.075441412520064,29.075441412520064 0 0,0 -0.47924633002519107,0.13950162205948055 l -2.190333554727785 -7.772721076050368" fill="#ff5f08" stroke="none" /><path d="M 105.69591212413111 120.21278271476187 l 7.852287019095671 27.864996487307575 a49.950240770465484,49.950240770465484 0 0,0 -0.8273153698932372,0.2254884829724408 l -7.372790248267739 -27.99568546442416" fill="#9bff22" stroke="none" /><path d="M 104.29559338865022 120.5559693870025 l 2.526529933934375 12.090360348007675 a33.35152487961477,33.35152487961477 0 0,0 -0.5614229170402615,0.11230030697386413 l -2.318610531363155 -12.1319500516444" fill="#ff990e" stroke="none" /><path d="M 103.94208987418118 120.62667999033965 l 5.22568712741146 27.343003215811404 a48.83788121990369,48.83788121990369 0 0,0 -0.8248142931266174,0.15030864021740659 l -4.755538100733785 -27.428680029960177" fill="#a7ff21" stroke="none" /><path d="M 103.58742460773223 120.69131181640829 l 3.2230061025211847 18.5894427188002 a39.86677367576244,39.86677367576244 0 0,0 -0.6753099179600125,0.11112199001475402 l -2.9034186815081 -18.642030707310624" fill="#ffec16" stroke="none" /><path d="M 103.2317021107853 120.74984581791261 l 2.3431878180011774 15.044946681091423 a36.22632423756019,36.22632423756019 0 0,0 -0.6152866843644536,0.09042595404093272 l -2.0845760280290384 -15.082953708431239" fill="#ffbe11" stroke="none" /><path d="M 102.51750503828377 120.84855314841334 l 0.17491493386837456 1.4485465727973506 a22.459069020866774,22.459069020866774 0 0,0 -0.38315610064982164,0.0429334402649594 l -0.15002293161775362 -1.451335773569281" fill="#ff0000" stroke="none" /><path d="M 101.44090949804482 120.95050786540614 l 0.7949617638834735 11.55856957674092 a32.585874799357946,32.585874799357946 0 0,0 -0.5583910041549205,0.03359141620277711 l -0.5964264075960878 -11.57051297076839" fill="#ff8e0d" stroke="none" /><path d="M 100.72087961077811 120.9876233191556 l 1.4882089281897117 43.32757916586975 a64.35313001605137,64.35313001605137 0 0,0 -1.104381488364728,0.028444949629442162 l -0.7442141257542398 -43.34674183284923" fill="#34ff60" stroke="none" /><line stroke="#e1ed5e" stroke-width="0.3" x1="101.45913802915013" x2="101.54496967792366" y1="184.9874750549273" y2="189.98673829345242" /><path d="M 101.47630435890484 185.9873277026323 a86.0,86.0 0 0,1 -42.54439059252881,-10.42667462771756" fill="none" id="id31" stroke="none" /><text fill="#e1ed5e" style="font-size:6.75px; font-family:Arial;" text-anchor="middle"><textPath startOffset="22.145653131862474" xlink:href="#id31">July</textPath></text><path d="M 100.36049292484886 120.99690560180557 l 0.12424234488599602 7.236493721511983 a28.23756019261637,28.23756019261637 0 0,0 -0.4847352697348474,0.00416086929882282 l -8.86345492352394e-16 -7.237560192616371" fill="#ff5307" stroke="none" /><path d="M 100.0 121.0 l 6.457407279613253e-16 5.272873194221511 a26.27287319422151,26.27287319422151 0 0,0 -0.4510088048556151,-0.0038713681607055435 l 0.09051588000676232 -5.27209622425524" fill="#ff3705" stroke="none" /><path d="M 99.63950707515114 120.99690560180557 l -0.2631160238004789 15.325189298451528 a36.32744783306581,36.32744783306581 0 0,0 -0.6234251682298344,-0.016057220892282082 l 0.5261545061010572 -15.3184143602092" fill="#ffc011" stroke="none" /><path d="M 99.27912038922189 120.98762331915562 l -0.24844807498268578 7.23329462249275 a28.23756019261637,28.23756019261637 0 0,0 -0.48430675070779217,-0.020798215719087625 l 0.37258058629131663 -7.227963838347833" fill="#ff5307" stroke="none" /><path d="M 98.55909050195518 120.95050786540614 l -2.6148492931728295 38.01933484219769 a59.1091492776886,59.1091492776886 0 0,0 -1.011698140136202,-0.07831183447276231 l 3.2671164280842677 -37.96884524072988" fill="#3bff2e" stroke="none" /><path d="M 98.19965949673042 120.92268563240118 l -0.37402166841601553 4.346698734912973 a25.362760834670947,25.362760834670947 0 0,0 -0.43346218749165893,-0.04104931982439749 l 0.4485834192926897 -4.339637659583392" fill="#ff2a04" stroke="none" /><path d="M 97.48249496171623 120.84855314841334 l -0.9871436861878574 8.174965806876132 a29.234349919743178,29.234349919743178 0 0,0 -0.4977108789958701,-0.06443863780495061 l 1.1273323870745215 -8.156815572870784" fill="#ff6108" stroke="none" /><path d="M 96.76829788921471 120.74984581791261 l -2.452121597016402 15.744379686189605 a36.93418940609952,36.93418940609952 0 0,0 -0.6256343846785147,-0.1029478999170428 l 2.72203348474798 -15.699965787776895" fill="#ffc712" stroke="none" /><path d="M 96.41257539226777 120.69131181640829 l -1.4955143170963512 8.625729163547412 a29.75441412520064,29.75441412520064 0 0,0 -0.5025170101784034,-0.09157533897686075 l 1.6433660608258118 -8.598785650639185" fill="#ff6809" stroke="none" /><path d="M 96.05791012581884 120.62667999033965 l -1.6325187600942888 8.54202798957886 a29.696629213483146,29.696629213483146 0 0,0 -0.49989822832620534,-0.09999364613165175 l 1.778913473951452 -8.512744946784348" fill="#ff6709" stroke="none" /><path d="M 95.70440661134978 120.55596938700252 l -2.044863993312965 9.785414457100947 a30.996789727126806,30.996789727126806 0 0,0 -0.5199159193356154,-0.11331325475653574 l 2.212542329267717 -9.748869744210692" fill="#ff790b" stroke="none" /><path d="M 95.35216902796893 120.47920084513623 l -3.8495678676854492 16.961906317961954 a38.39325842696629,38.39325842696629 0 0,0 -0.641474280722741,-0.15138618360665634 l 4.140174302148078 -16.893323990709067" fill="#ffda14" stroke="none" /><path d="M 95.00130118170881 120.39639698878247 l -2.4827291080987646 10.130381994428529 a31.430176565008026,31.430176565008026 0 0,0 -0.5229303488002645,-0.13292684976180655 l 2.6562647501244077 -10.08626991283146" fill="#ff7f0b" stroke="none" /><path d="M 94.30408787586889 120.21278271476187 l -7.0647073330486565 25.070154025257267 a47.04654895666131,47.04654895666131 0 0,0 -0.7754615177784226,-0.22572554612804843 l 7.494028863208686 -24.9451847848267" fill="#bcff1f" stroke="none" /><path d="M 93.61358852112213 120.00534299687104 l -9.20398902654149 28.83136453458713 a51.26484751203853,51.26484751203853 0 0,0 -0.8360497443251829,-0.27482615701767454 l 9.697561508514417 -28.669117456167434" fill="#8dff24" stroke="none" /><path d="M 93.27111125876986 119.89276391827306 l -2.7866024000599894 8.238094848979852 a29.696629213483146,29.696629213483146 0 0,0 -0.481501468424295,-0.16749120530830144 l 2.9276096405293064 -8.189045211102961" fill="#ff6709" stroke="none" /><path d="M 92.93061703081489 119.77432235084164 l -1.9549818529780414 5.468432184158455 a26.807383627608345,26.807383627608345 0 0,0 -0.43199568739773453,-0.15863480017621145 l 2.048566692029895 -5.434066534973524" fill="#ff3f05" stroke="none" /><path d="M 92.59220618246901 119.65005319985036 l -1.8396332731910254 4.879845818720006 a26.215088282504013,26.215088282504013 0 0,0 -0.4197257057980354,-0.16235891973779112 l 1.923131241482589 -4.847547010844174" fill="#ff3605" stroke="none" /><path d="M 92.25597844496254 119.51999308798841 l -5.465741423161043 13.77723887292555 a35.82182985553772,35.82182985553772 0 0,0 -0.5696447748691379,-0.23166957081097272 l 5.701440659220621 -13.681382045535285" fill="#ffb911" stroke="none" /><path d="M 91.59046798132341 119.24265499422711 l -2.909879343311849 6.65837339745212 a28.26645264847512,28.26645264847512 0 0,0 -0.44295765311566654,-0.19812932404474926 l 3.0237503992831503 -6.607440322497516" fill="#ff5307" stroke="none" /><path d="M 90.93487009805054 118.94263497670748 l -19.462694627826835 40.669546270789304 a66.08667736757624,66.08667736757624 0 0,0 -1.0191187202768537,-0.4985020347777429 l 20.15797359736576 -40.32945048591434" fill="#37ff74" stroke="none" /><path d="M 90.28995756902619 118.62028667847754 l -5.944923937330907 11.400175517435233 a33.85714285714286,33.85714285714286 0 0,0 -0.5130343582216657,-0.2731618989778923 l 6.139747111339135 -11.296443150734767" fill="#ff9f0e" stroke="none" /><line stroke="#e1ed5e" stroke-width="0.3" x1="58.13341422392154" x2="55.67067388415222" y1="173.97424548756322" y2="178.32567169271397" /><path d="M 57.64086615596768 174.84453072859336 a86.0,86.0 0 0,1 -31.369924170532247,-30.572349798747897" fill="none" id="id32" stroke="none" /><text fill="#e1ed5e" style="font-size:6.75px; font-family:Arial;" text-anchor="middle"><textPath startOffset="22.145653131862474" xlink:href="#id32">August</textPath></text><path d="M 89.65649057296885 118.27599006163327 l -4.276392455156423 7.5559757122505795 a29.682182985553773,29.682182985553773 0 0,0 -0.44128576659217983,-0.2547764561315473 l 4.405470689609003 -7.48145235884286" fill="#ff6709" stroke="none" /><path d="M 88.72937992617639 117.7192867562869 l -33.81186022147082 53.1578602688607 a84.0,84.0 0 0,0 -1.2100574709719614,-0.7843446331844213 l 34.7194033246998 -52.56960179397239" fill="#4dd2ff" stroke="none" /><path d="M 87.83215693770417 117.11559508785305 l -1.682460299602014 2.3665911116659903 a23.903691813804173,23.903691813804173 0 0,0 -0.33239675865711826,-0.24062961956067494 l 1.722838068633086 -2.33736072073225" fill="#ff1502" stroke="none" /><path d="M 84.58840730492382 114.26474011684316 l -6.392930792339558 5.917201300474491 a29.711075441412518,29.711075441412518 0 0,0 -0.3432369148831922,-0.37727749571409097 l 6.49356540806463 -5.8065862292027255" fill="#ff6709" stroke="none" /><path d="M 84.1078160697243 113.72728997021213 l -7.663669526569553 6.619695209208002 a31.12680577849117,31.12680577849117 0 0,0 -0.3458120480371536,-0.40736572305573965 l 7.776176138113819 -6.487162703702708" fill="#ff7b0b" stroke="none" /><path d="M 83.64595745247003 113.17365903436017 l -5.647601026503128 4.549307614250499 a28.252006420545747,28.252006420545747 0 0,0 -0.30099629704791514,-0.3802989885467941 l 5.724863754192604 -4.451688681789024" fill="#ff5307" stroke="none" /><path d="M 83.4222238831116 112.89097897827486 l -7.549521524453195 5.8705536002875185 a30.563402889245587,30.563402889245587 0 0,0 -0.3185114422683534,-0.41694170228392485 l 7.649184944075843 -5.740090984762723" fill="#ff730a" stroke="none" /><path d="M 83.20337586046588 112.60449989151573 l -11.577769356441078 8.688173967873484 a35.47512038523274,35.47512038523274 0 0,0 -0.3613360288296082,-0.49022171970102346 l 11.725207404854515 -8.488145938903582" fill="#ffb510" stroke="none" /><path d="M 82.78059297857968 112.02048342749411 l -18.964643871561982 13.238794290817292 a44.12841091492777,44.12841091492777 0 0,0 -0.42827728773775775,-0.6248693620311975 l 19.189110896115068 -12.911290193716043" fill="#deff1b" stroke="none" /><path d="M 82.576782715395 111.72311816256416 l -11.997688948788996 8.072580564590732 a35.46067415730337,35.46067415730337 0 0,0 -0.33548425402150167,-0.5079659197228055 l 12.134497641731224 -7.865434766528865" fill="#ffb410" stroke="none" /><path d="M 82.18462484594161 111.11811171558189 l -11.078949190049604 6.914083690130267 a34.05939004815409,34.05939004815409 0 0,0 -0.3052889675319704,-0.4986665851068581 l 11.19600612203698 -6.7228799888988515" fill="#ffa20f" stroke="none" /><path d="M 81.99639281039703 110.81064883170644 l -8.68185872958841 5.213206717055415 a31.12680577849117,31.12680577849117 0 0,0 -0.2711386236462202,-0.46045265951626596 l 8.7700710633644 -5.06340288924559" fill="#ff7b0b" stroke="none" /><line stroke="#e1ed5e" stroke-width="0.3" x1="26.387840678322732" x2="22.057713659400548" y1="142.50000000000003" y2="145.00000000000006" /><path d="M 25.521815274538298 143.00000000000003 a86.0,86.0 0 0,1 -11.493303480769221,-40.785679425670985" fill="none" id="id33" stroke="none" /><text fill="#e1ed5e" style="font-size:6.75px; font-family:Arial;" text-anchor="middle"><textPath startOffset="21.40746469413373" xlink:href="#id33">September</textPath></text><path d="M 81.81346652052679 110.50000000000001 l -23.04489429203599 13.304975922953465 a47.609951845906906,47.609951845906906 0 0,0 -0.4025685209891384,-0.7113000032171487 l 23.269896178046505 -12.907419149637194" fill="#b5ff1f" stroke="none" /><path d="M 81.4637452351635 109.86951160357371 l -17.941190406414776 9.552673349847433 a41.32584269662921,41.32584269662921 0 0,0 -0.32803259620660064,-0.6290457559452318 l 18.102531071596328 -9.243281350797698" fill="#fffe18" stroke="none" /><path d="M 81.29705330413844 109.54985784667822 l -7.719629454838519 3.941697804178123 a29.667736757624397,29.667736757624397 0 0,0 -0.22770706597167814,-0.4555666668596925 l 7.786156434021934 -3.808599281154678" fill="#ff6709" stroke="none" /><path d="M 80.83023694016515 108.57439118712176 l -19.859892112894705 8.883077134468273 a42.756019261637235,42.756019261637235 0 0,0 -0.2939295486290624,-0.6725683289291982 l 20.009455543540735 -8.540846735763225" fill="#eeff19" stroke="none" /><path d="M 80.68587082218212 108.24405325689762 l -34.55816325946179 14.750824940053223 a58.57463884430177,58.57463884430177 0 0,0 -0.38679945587209125,-0.9281778846953116 l 34.806288559870374 -14.15541454591663" fill="#40ff2d" stroke="none" /><path d="M 80.41425534168474 107.57618678355246 l -21.543870012826947 8.333631736001182 a44.09951845906902,44.09951845906902 0 0,0 -0.2670526479310698,-0.7083888764003716 l 21.68375334457245 -7.962574579406667" fill="#deff1b" stroke="none" /><path d="M 80.28708602549918 107.23885506374661 l -13.60150381776496 4.994660602342019 a35.48956661316212,35.48956661316212 0 0,0 -0.20509560806607163,-0.5736889180171082 l 13.685239595874975 -4.760436727943989" fill="#ffb510" stroke="none" /><path d="M 80.16572619554312 106.89939002012753 l -24.587040629877077 8.552649036645134 a47.03210272873194,47.03210272873194 0 0,0 -0.25870921520355156,-0.7648278251343416 l 24.730235266652993 -8.12931953703663" fill="#bcff1f" stroke="none" /><path d="M 80.05021161711548 106.5578916946017 l -18.211444061514168 5.986463388261714 a40.170144462279296,40.170144462279296 0 0,0 -0.20971739073289158,-0.6569367394969986 l 18.31152616802431 -5.672957615073324" fill="#fff016" stroke="none" /><path d="M 79.83685265289637 105.86919833188381 l -37.47820967567578 10.909360623308904 a60.03370786516854,60.03370786516854 0 0,0 -0.27953268959098204,-0.9919629013302804 l 37.65996085734133 -10.264389798075628" fill="#32ff2f" stroke="none" /><path d="M 79.56144815229197 104.8234425847677 l -14.074058976993175 3.3214395968946153 a35.46067415730337,35.46067415730337 0 0,0 -0.1347322209331219,-0.5936550251944532 l 14.129002059483962 -3.079350237761136" fill="#ffb410" stroke="none" /><path d="M 79.48165901384964 104.47187691870673 l -9.908650794962776 2.159544322585731 a31.141252006420544,31.141252006420544 0 0,0 -0.10935367670232053,-0.5232969294971931 l 9.944262182489464 -1.9891309418031287" fill="#ff7b0b" stroke="none" /><path d="M 79.407916724674 104.11899336999214 l -7.167801516153374 1.433761049219919 a28.30979133226324,28.30979133226324 0 0,0 -0.09122993067489096,-0.47735354739031044 l 7.191357739110422 -1.3105049367962942" fill="#ff5407" stroke="none" /><path d="M 79.34024301695615 103.76489593502545 l -17.083027672748475 3.113096707567482 a38.364365971107546,38.364365971107546 0 0,0 -0.11250840381549397,-0.6489185752629302 l 17.133950894056206 -2.8193850993839593" fill="#ffda14" stroke="none" /><path d="M 79.2786578344484 103.40968896794605 l -42.777859095726015 7.039080435317189 a64.35313001605137,64.35313001605137 0 0,0 -0.17001026807250466,-1.0915878781628303 l 42.89239085593679 -6.3037043752229085" fill="#34ff60" stroke="none" /><path d="M 79.17382384314188 102.69636545807758 l -8.638971031358942 1.1184877582348878 a29.711075441412518,29.711075441412518 0 0,0 -0.06114527121712672,-0.5063705602803547 l 8.65689838883573 -0.9700235210311339" fill="#ff6709" stroke="none" /><path d="M 79.13060592940153 102.33845913500099 l -27.50682804810823 3.082197456543371 a48.678972712680576,48.678972712680576 0 0,0 -0.08592443118615861,-0.8312409273657065 l 27.55568487177605 -2.609552006894733" fill="#a9ff21" stroke="none" /><path d="M 79.0935383218832 101.97986365728391 l -8.657892637165546 0.8199114343166124 a29.696629213483146,29.696629213483146 0 0,0 -0.04370548700367634,-0.5079240084462949 l 8.670691746866963 -0.6711663784946554" fill="#ff6709" stroke="none" /><path d="M 79.06263194458094 101.62068470465958 l -50.742270804339384 3.9277726768051013 a71.89406099518459,71.89406099518459 0 0,0 -0.08468448975133303,-1.2312938952936605 l 50.80221925525578 -3.0561353573570975" fill="#3effb4" stroke="none" /><path d="M 79.01933749520258 100.90099992219065 l -10.131913605848053 0.4351079651762226 a31.141252006420544,31.141252006420544 0 0,0 -0.018351559089975492,-0.5342856195973026 l 10.137889851934878 -0.2611160810148001" fill="#ff7b0b" stroke="none" /><path d="M 79.00696218219943 100.54070618675478 l -16.23217691392422 0.4180832978071729 a37.23756019261637,37.23756019261637 0 0,0 -0.010973675635752259,-0.6391615911055533 l 16.23696202115864 -0.13937479073256723" fill="#ffcb12" stroke="none" /><line stroke="#e1ed5e" stroke-width="0.3" x1="15.003131293944662" x2="10.003315487706104" y1="100.72959589197737" y2="100.7725132973878" /><path d="M 14.003168132696942 100.73817937305945 a86.0,86.0 0 0,1 10.791469493833604,-42.45332614584628" fill="none" id="id34" stroke="none" /><text fill="#e1ed5e" style="font-size:6.75px; font-family:Arial;" text-anchor="middle"><textPath startOffset="22.145653131862435" xlink:href="#id34">October</textPath></text><path d="M 79.00077361379809 100.18025310272382 l -4.348154420256898 0.03732367616592772 a25.348314606741575,25.348314606741575 0 0,0 0.0,-0.43515355777948894 l 4.348154420256898 0.03732367616592612" fill="#ff2a04" stroke="none" /><path d="M 79.00077361379809 99.81974689727619 l -32.35835847633039 -0.27775759007200823 a53.359550561797754,53.359550561797754 0 0,0 0.015724725167434474,-0.9158864077383468 l 32.348822319564285 0.8331909137794075" fill="#76ff27" stroke="none" /><path d="M 79.00696218219943 99.45929381324524 l -8.693745998382902 -0.22392005807821574 a29.696629213483146,29.696629213483146 0 0,0 0.017500241983587062,-0.5095004509133129 l 8.688621069402464 0.3731267735556672" fill="#ff6709" stroke="none" /><path d="M 79.01933749520258 99.09900007780938 l -8.688621069402464 -0.3731267735556672 a29.696629213483146,29.696629213483146 0 0,0 0.02624391603332509,-0.5091249599279563 l 8.680935563912568 0.5222235268603355" fill="#ff6709" stroke="none" /><path d="M 79.03789590574601 98.7389718711861 l -33.55570939738298 -2.018628151169436 a54.61637239165329,54.61637239165329 0 0,0 0.0643329861192036,-0.9353874990235373 l 33.5161124500987 2.594359074347299" fill="#69ff28" stroke="none" /><path d="M 79.06263194458094 98.37931529534042 l -14.489561291276019 -1.1215836823349299 a35.53290529695024,35.53290529695024 0 0,0 0.052294922750138376,-0.607746271821796 l 14.468172745828136 1.3701510015324065" fill="#ffb510" stroke="none" /><path d="M 79.13060592940154 97.66154086499901 l -17.256371249387314 -1.9336123918398485 a38.364365971107546,38.364365971107546 0 0,0 0.07895370758294486,-0.6538499600896545 l 17.2206354555447 2.2295560288529392" fill="#ffda14" stroke="none" /><path d="M 79.17382384314186 97.30363454192245 l -11.045848532633082 -1.4301062381411118 a32.138041733547354,32.138041733547354 0 0,0 0.0755327898441969,-0.5465176406954261 l 11.019671226233678 1.619512187036605" fill="#ff880c" stroke="none" /><path d="M 79.22317932658666 96.9465228501225 l -14.36416288244467 -2.111037286604134 a35.518459069020864,35.518459069020864 0 0,0 0.093833862414157,-0.6024807085699667 l 14.325807527892247 2.3573061771055506" fill="#ffb510" stroke="none" /><path d="M 79.2786578344484 96.59031103205396 l -21.55285669867968 -3.546514367943873 a42.84269662921348,42.84269662921348 0 0,0 0.12564168052547378,-0.7246678252936223 l 21.48880020066197 3.915975226158088" fill="#edff1a" stroke="none" /><path d="M 79.34024301695615 96.23510406497455 l -4.292075172354442 -0.7821590729495654 a25.362760834670947,25.362760834670947 0 0,0 0.08173295541157241,-0.4276613597728806 l 4.278015924660711 0.8557229977557606" fill="#ff2a04" stroke="none" /><path d="M 79.407916724674 95.88100663000787 l -24.095712211416778 -4.819817282061418 a45.573033707865164,45.573033707865164 0 0,0 0.16003142049029867,-0.7658082790724348 l 24.009423080102113 5.232742012419262" fill="#cdff1d" stroke="none" /><path d="M 79.56144815229197 95.17655741523228 l -8.464119384765123 -1.99750912820236 a29.696629213483146,29.696629213483146 0 0,0 0.1213495812827308,-0.49514770227969235 l 8.428582276966095 2.14251265509017" fill="#ff6709" stroke="none" /><path d="M 79.64726062577567 94.8264132398404 l -15.443066862946186 -3.9255672069177043 a36.93418940609952,36.93418940609952 0 0,0 0.16147367168717142,-0.6131418324835456 l 15.373403710454289 4.190089543774034" fill="#ffc712" stroke="none" /><path d="M 79.73907114497095 94.47779374421319 l -18.411846148241267 -5.018230541546237 a40.08346709470305,40.08346709470305 0 0,0 0.18663913597137793,-0.6623164506836319 l 18.322988520195306 5.333554916132883" fill="#ffef16" stroke="none" /><path d="M 79.94057633289273 93.78553927170692 l -15.192909051239461 -4.706802060433851 a36.90529695024077,36.90529695024077 0 0,0 0.19267251049830336,-0.6035438949298725 l 15.1098718249639 4.966914989055115" fill="#ffc712" stroke="none" /><path d="M 80.05021161711548 93.44210830539832 l -20.84640808548608 -6.852628399977042 a42.943820224719104,42.943820224719104 0 0,0 0.23622082330145588,-0.6983448904011527 l 20.725701840612256 7.209474964852356" fill="#ecff1a" stroke="none" /><path d="M 80.28708602549916 92.7611449362534 l -16.327228909859436 -5.9955846113856275 a38.39325842696629,38.39325842696629 0 0,0 0.23249735334728322,-0.6167268521009132 l 16.221900872697717 6.274979743680685" fill="#ffda14" stroke="none" /><path d="M 80.41425534168474 92.42381321644754 l -24.885258232452397 -9.6261524805467 a47.68218298555377,47.68218298555377 0 0,0 0.30185393269556676,-0.7608690959759467 l 24.716345624790698 10.05192259373623" fill="#b5ff20" stroke="none" /><path d="M 80.5471966667186 92.08871423366112 l -5.366136759903124 -2.182361104541542 a26.792937399678973,26.792937399678973 0 0,0 0.17692799839464193,-0.4245627877708801 l 5.327882916972004 2.274156401753686" fill="#ff3f05" stroke="none" /><path d="M 80.68587082218212 91.75594674310238 l -22.26815902455132 -9.504952940995457 a45.21187800963082,45.21187800963082 0 0,0 0.31081253880820914,-0.7111999144403546 l 22.101712603726135 9.885814925211678" fill="#d1ff1c" stroke="none" /><path d="M 80.9802524753101 91.09779779509293 l -27.986636061897528 -13.09915880506505 a51.90048154093098,51.90048154093098 0 0,0 0.38460911664942543,-0.8036851301863083 l 27.7576476872882 13.577656437316445" fill="#86ff25" stroke="none" /><path d="M 81.29705330413844 90.45014215332179 l -21.11318655898336 -10.780543494427162 a44.70626003210273,44.70626003210273 0 0,0 0.35486537207903185,-0.6805011417147322 l 20.92501311792939 11.141390879246382" fill="#d7ff1c" stroke="none" /><path d="M 81.46374523516351 90.13048839642627 l -8.64543503592695 -4.603207200566146 a30.79454253611557,30.79454253611557 0 0,0 0.25244874781239,-0.4644772620797541 l 8.565140938499209 4.75093929612052" fill="#ff760a" stroke="none" /><path d="M 81.63589988554816 89.8137432299009 l -16.460735461452018 -9.130492482072325 a39.82343499197432,39.82343499197432 0 0,0 0.33672920689595925,-0.5949682438157302 l 16.30157288953469 9.41171749598716" fill="#ffec16" stroke="none" /><line stroke="#e1ed5e" stroke-width="0.3" x1="26.387840678322718" x2="22.05771365940052" y1="57.49999999999999" y2="54.99999999999999" /><path d="M 25.521815274538284 56.99999999999999 a86.0,86.0 0 0,1 29.574782752854787,-30.34633250058573" fill="none" id="id35" stroke="none" /><text fill="#e1ed5e" style="font-size:6.75px; font-family:Arial;" text-anchor="middle"><textPath startOffset="21.40746469413373" xlink:href="#id35">November</textPath></text><path d="M 81.81346652052679 89.5 l -18.816243765050015 -10.863563402889246 a42.72712680577849,42.72712680577849 0 0,0 0.37218641825692905,-0.6320539059232122 l 18.626983636663308 11.184968477106032" fill="#efff19" stroke="none" /><path d="M 81.99639281039701 89.18935116829357 l -8.198845191137707 -4.923170965321938 a30.563402889245587,30.563402889245587 0 0,0 0.27395293042917235,-0.44748152349404385 l 8.113124296253142 5.063189604940525" fill="#ff730a" stroke="none" /><path d="M 82.18462484594161 88.88188828441811 l -20.2705552658651 -12.650325689685236 a44.89406099518459,44.89406099518459 0 0,0 0.4136288835064958,-0.6502933068036554 l 20.050408690732713 12.996432671167565" fill="#d5ff1c" stroke="none" /><path d="M 82.576782715395 88.27688183743585 l -12.417188562383021 -8.354838626289704 a35.96629213483146,35.96629213483146 0 0,0 0.3490618793227298,-0.5092917137725088 l 12.271936946244978 8.566765075132245" fill="#ffbb11" stroke="none" /><path d="M 82.78059297857968 87.97951657250589 l -15.446530673651978 -10.782878048235954 a39.83788121990369,39.83788121990369 0 0,0 0.39626342349496424,-0.5573941305737534 l 15.259152151627042 11.046449405519228" fill="#ffec16" stroke="none" /><path d="M 82.98947788004972 87.6856937992154 l -21.09835224645978 -15.273579967907333 a47.04654895666131,47.04654895666131 0 0,0 0.47919818130385017,-0.6501243656141263 l 20.83305204557211 15.633510642790323" fill="#bcff1f" stroke="none" /><path d="M 83.2033758604659 87.39550010848427 l -12.756344680150642 -9.57259886280672 a36.94863563402889,36.94863563402889 0 0,0 0.38505408799825824,-0.5040481615919961 l 12.590138614798077 9.7901679376396" fill="#ffc812" stroke="none" /><path d="M 83.42222388311158 87.10902102172516 l -15.06483071571401 -11.714503483353186 a40.08346709470305,40.08346709470305 0 0,0 0.427048436445687,-0.539561748877363 l 14.86151584862676 11.971385176145231" fill="#ffef16" stroke="none" /><path d="M 83.64595745247003 86.82634096563983 l -37.64317337585552 -30.322675851159687 a69.3370786516854,69.3370786516854 0 0,0 0.7546290414544757,-0.9205247296086682 l 37.11709751516241 30.964402862466848" fill="#3bff98" stroke="none" /><path d="M 84.10781606972428 86.27271002978789 l -10.932481492966557 -9.443217131537802 a35.446227929374,35.446227929374 0 0,0 0.40170524150442566,-0.45706682481793615 l 10.76876518750354 9.62949623416704" fill="#ffb410" stroke="none" /><path d="M 84.34580500576568 86.00192230759919 l -12.265623548566529 -10.967996210716255 a37.45425361155698,37.45425361155698 0 0,0 0.4326899066388368,-0.4756020035112446 l 12.075535941085827 11.176935789785157" fill="#ffce13" stroke="none" /><path d="M 85.34317274990677 84.96080404539775 l -21.919703582918608 -22.491546896564056 a52.40609951845907,52.40609951845907 0 0,0 0.6496547434826727,-0.6223545484715657 l 21.530376353570635 22.864513575341192" fill="#80ff25" stroke="none" /><path d="M 85.86807049272753 84.46653392183569 l -9.721574987804964 -10.685713880874326 a35.446227929374,35.446227929374 0 0,0 0.4536019577053456,-0.4056136676285911 l 9.536708003276226 10.851023078386318" fill="#ffb410" stroke="none" /><path d="M 86.13680546590413 84.22622945171909 l -14.667456909038833 -16.688873494558152 a43.2182985553772,43.2182985553772 0 0,0 0.5614685093163113,-0.48498312568888363 l 14.378808919959672 16.938200752711747" fill="#e9ff1a" stroke="none" /><path d="M 86.40962598614128 83.9905735841838 l -9.358379537633054 -11.024147564021108 a35.46067415730337,35.46067415730337 0 0,0 0.46744879688871865,-0.38996241175714336 l 9.167756406582427 11.183172159690134" fill="#ffb410" stroke="none" /><path d="M 86.96720088162412 83.53348406188908 l -27.8108756238491 -35.1381328411053 a65.81219903691814,65.81219903691814 0 0,0 0.8918808270282301,-0.6935319255901079 l 27.203584852185624 35.61036581831622" fill="#36ff71" stroke="none" /><path d="M 87.83215693770416 82.88440491214696 l -9.41675540822024 -13.245845774249942 a37.25200642054575,37.25200642054575 0 0,0 0.5243750457876062,-0.36605450697811054 l 9.187985271258869 13.405545097033178" fill="#ffcb13" stroke="none" /><path d="M 88.12776184653039 82.6780497279521 l -9.874021504846194 -14.406492464278317 a38.46548956661316,38.46548956661316 0 0,0 0.5478652718828821,-0.3686282053730358 l 9.625259944866324 14.573870343708464" fill="#ffdb14" stroke="none" /><path d="M 88.4268655584334 82.4767994020092 l -14.895666961823737 -22.553938306930146 a48.02889245585875,48.02889245585875 0 0,0 0.6918776206990193,-0.44846671470883703 l 14.50630370886769 22.806318863342888" fill="#b1ff20" stroke="none" /><path d="M 88.72937992617638 82.28071324371311 l -11.777164796242664 -18.515659194771697 a42.943820224719104,42.943820224719104 0 0,0 0.6254171748345491,-0.39030657275101627 l 11.457583492618415 18.71510156436425" fill="#ecff1a" stroke="none" /><line stroke="#e1ed5e" stroke-width="0.3" x1="56.869717070023135" x2="54.33264160355391" y1="26.7553504044142" y2="22.446841604673864" /><path d="M 56.362301976729285 25.89364864446614 a86.0,86.0 0 0,1 42.16139366436587,-11.88097634709845" fill="none" id="id36" stroke="none" /><text fill="#e1ed5e" style="font-size:6.75px; font-family:Arial;" text-anchor="middle"><textPath startOffset="22.145653131862474" xlink:href="#id36">December</textPath></text><path d="M 89.34428304082924 81.90426304109057 l -5.365731355730103 -9.112184902950037 a31.574638844301766,31.574638844301766 0 0,0 0.4694209557989817,-0.27102031519379205 l 5.208517932070722 9.202952115420004" fill="#ff810b" stroke="none" /><path d="M 89.97174638481275 81.54914285379989 l -6.167341480378863 -11.347213681749299 a33.91492776886035,33.91492776886035 0 0,0 0.513909967992489,-0.27362811186193553 l 5.971642696599813 11.451412261333811" fill="#ffa00e" stroke="none" /><path d="M 90.28995756902619 81.37971332152246 l -5.370470613049495 -10.29858552361564 a32.61476725521669,32.61476725521669 0 0,0 0.49865304456177634,-0.25461579759685754 l 5.192890346774136 10.389259272885331" fill="#ff8f0d" stroke="none" /><path d="M 90.61103034731259 81.2157712731953 l -7.802253157839749 -15.609732837867519 a38.45104333868379,38.45104333868379 0 0,0 0.5929512519244453,-0.29004217048239966 l 7.5331416566532505 15.741368758447132" fill="#ffdb14" stroke="none" /><path d="M 90.93487009805054 81.0573650232925 l -6.254752551012591 -13.070027205896086 a35.48956661316212,35.48956661316212 0 0,0 0.5517973351907541,-0.25826901475008 l 6.029466501950314 13.17547245221671" fill="#ffb510" stroke="none" /><path d="M 91.5904679813234 80.7573450057729 l -24.823642668292553 -56.801352382638264 a82.98876404494382,82.98876404494382 0 0,0 1.3102934910600297,-0.5592863764663686 l 23.84491410206209 57.21911340876403" fill="#4cdbff" stroke="none" /><path d="M 92.25597844496254 80.48000691201159 l -2.7754885784277836 -6.996044300969016 a28.526484751203853,28.526484751203853 0 0,0 0.4567331155671479,-0.176674180846193 l 2.654983200367106 7.04265836995325" fill="#ff5708" stroke="none" /><path d="M 92.592206182469 80.34994680014964 l -3.765897476144514 -9.989490471008546 a31.675762439807386,31.675762439807386 0 0,0 0.5104486494884551,-0.18744381454268 l 3.593859675001932 10.052665134559946" fill="#ff820c" stroke="none" /><path d="M 92.93061703081487 80.22567764915836 l -1.4638048202646572 -4.094522605551481 a25.348314606741575,25.348314606741575 0 0,0 0.41099784818965773,-0.14296638636986114 l 1.3933012000299951 4.119047424489928" fill="#ff2a04" stroke="none" /><path d="M 93.61358852112211 79.99465700312896 l -4.898543085724958 -15.344616446808894 a37.107544141252006,37.107544141252006 0 0,0 0.6084919245795289,-0.18851235367163874 l 4.634410528273813 15.426445388287176" fill="#ffca12" stroke="none" /><path d="M 93.95794788825049 79.88797359093562 l -2.1613394391949616 -7.194396055524062 a28.512038523274477,28.512038523274477 0 0,0 0.46995984102004185,-0.1367984604528263 l 2.0375195857932953 7.230438210279409" fill="#ff5708" stroke="none" /><path d="M 94.6519064749342 79.69241777938228 l -3.6900741611839063 -14.011812635138439 a35.48956661316212,35.48956661316212 0 0,0 0.5904698438268662,-0.1500951252864278 l 3.448999024131662 14.07309299226013" fill="#ffb510" stroke="none" /><path d="M 95.00130118170881 79.60360301121753 l -2.293601544462431 -9.358676994852948 a30.635634028892454,30.635634028892454 0 0,0 0.5118599490728545,-0.12079755425881016 l 2.1326094416496706 9.396670692757988" fill="#ff740a" stroke="none" /><path d="M 95.35216902796891 79.52079915486377 l -1.9279812493474533 -8.495041121039081 a29.711075441412518,29.711075441412518 0 0,0 0.4983503530062003,-0.10861313994840266 l 1.7818684797221347 8.526885719121198" fill="#ff6709" stroke="none" /><path d="M 96.41257539226777 79.30868818359171 l -10.631478016585941 -61.31953999432716 a83.23434991974318,83.23434991974318 0 0,0 1.4099205135812052,-0.23200188397211013 l 9.577279999951664 61.493007876794934" fill="#4cd9ff" stroke="none" /><path d="M 97.48249496171623 79.15144685158666 l -1.9431144138645255 -16.091774798798284 a37.208667736757626,37.208667736757626 0 0,0 0.6347871333021381,-0.07112922232575927 l 1.6665913789615883 16.122759781631014" fill="#ffcb12" stroke="none" /><path d="M 97.84075906011542 79.11130261209362 l -0.3045019899172243 -2.945780530511906 a23.96147672552167,23.96147672552167 0 0,0 0.40951354565378645,-0.03878135854304195 l 0.2538888808784223 2.950573644560132" fill="#ff1602" stroke="none" /><path d="M 98.1996594967304 79.07731436759882 l -0.37278318607026883 -4.332305692744389 a25.348314606741575,25.348314606741575 0 0,0 0.43385572380262716,-0.03358317691768805 l 0.29835846749242456 4.33806663665713" fill="#ff2a04" stroke="none" /></svg>