<?xml version="1.0" encoding="utf-8" ?>
<svg baseProfile="full" height="200mm" version="1.1" viewBox="0,0,200,200" width="200mm" xmlns="http://www.w3.org/2000/svg" xmlns:ev="http://www.w3.org/2001/xml-events" xmlns:xlink="http://www.w3.org/1999/xlink"><defs /><rect fill="#1a1a1a" height="200" width="200" x="0" y="0" /><text alignment-baseline="middle" fill="#e1ed5e" style="dominant-baseline: central; font-size:9.0px; font-family:Arial;" text-anchor="middle" x="100.0" y="100.0">2025</text><line stroke="#e1ed5e" stroke-width="0.3" x1="100.0" x2="100.0" y1="15.0" y2="10.0" /><path d="M 100.0 14.0 a86.0,86.0 0 0,1 42.46469731375804,11.215312516191453" fill="none" id="id37" stroke="none" /><text fill="#e1ed5e" style="font-size:6.75px; font-family:Arial;" text-anchor="middle"><textPath startOffset="22.20632615414155" xlink:href="#id37">January</textPath></text><path d="M 100.0 79.0 l 0.0 -63.0 a84.0,84.0 0 0,0 1.4459219170901134,0.012445506434235476 l -1.084441437817585 62.990665870174325" fill="#4dd2ff" stroke="none" /><path d="M 100.72285384407766 79.0124445844662 l 0.32390004162288366 -9.404211001088125 a30.409787234042554,30.409787234042554 0 0,0 0.5229892116506829,0.022521015590708602 l -0.4857300856628981 9.397242258973222" fill="#ff4d07" stroke="none" /><path d="M 101.08401301168833 79.027996857942 l 0.6933070453478972 -13.413157754260922 a34.431063829787234,34.431063829787234 0 0,0 0.5916206918387129,0.03568817577773973 l -0.924089786026222 13.399236309102879" fill="#ff870c" stroke="none" /><path d="M 101.44485096284872 79.0497635885617 l 1.215519299383793 -17.62494356826107 a38.6668085106383,38.6668085106383 0 0,0 0.6636141492038935,0.05150923000447405 l -1.5187236379500277 17.601409076068133" fill="#ffc112" stroke="none" /><path d="M 102.16513564639614 79.11191278185805 l 1.5229656270182148 -14.692769434718562 a35.77148936170212,35.77148936170212 0 0,0 0.6119195258938593,0.06875628862007868 l -1.7756518564217993 14.664377192627882" fill="#ff9a0e" stroke="none" /><path d="M 102.52436894288641 79.15227682838746 l 1.940004387596957 -16.021697041673296 a37.138723404255316,37.138723404255316 0 0,0 0.6339850163069751,0.0823094506084459 l -2.215504132411778 15.985929267900714" fill="#ffad10" stroke="none" /><path d="M 103.2404852339499 79.25152402106235 l 0.6639547404880337 -4.251230291003608 a25.30276595744681,25.30276595744681 0 0,0 0.42975036290118085,0.0709124921218948 l -0.7370343095280897 4.239171535942089" fill="#ff0000" stroke="none" /><path d="M 103.95276090670814 79.375362276772 l 5.048600792121041 -26.342489415433565 a47.82191489361702,47.82191489361702 0 0,0 0.8071282381858207,0.16190233151183814 l -5.501295439773988 26.25168312784452" fill="#c7ff1e" stroke="none" /><path d="M 104.66035177308747 79.52364482259891 l 1.7996890357773976 -7.907358435528294 a29.109574468085107,29.109574468085107 0 0,0 0.48762184668918285,0.11540433668132782 l -1.9355345694291037 7.8752081867060975" fill="#ff3a05" stroke="none" /><path d="M 105.01212808612495 79.60689891045804 l 3.6279276061695933 -14.76113402268548 a36.200425531914895,36.200425531914895 0 0,0 0.6038422518880696,0.15393283511485803 l -3.8814787467426877 14.696498191401753" fill="#ffa00e" stroke="none" /><path d="M 105.71112130821622 79.79150937346287 l 4.69162539808996 -16.601060065757412 a38.251276595744685,38.251276595744685 0 0,0 0.632074626823349,0.18451991619722968 l -4.976690242636737 16.51784182064148" fill="#ffbc11" stroke="none" /><path d="M 106.40334571778207 80.00007090966166 l 10.818929435086684 -33.791369554548254 a56.48106382978723,56.48106382978723 0 0,0 0.9233771157518299,0.30442291736999894 l -11.398989373080932 33.600132912919015" fill="#63ff29" stroke="none" /><path d="M 107.08798089147638 80.2323363322302 l 5.9674766782068165 -16.64269045390746 a38.68021276595745,38.68021276595745 0 0,0 0.6248100863376183,0.23012282778737173 l -6.253069090317011 16.537504358313765" fill="#ffc212" stroke="none" /><path d="M 107.4271985657038 80.35727306442388 l 6.760330949804439 -17.879060814977574 a40.11446808510638,40.11446808510638 0 0,0 0.6437738605602105,0.24977425627035546 l -7.067087975364317 17.760043854816672" fill="#ffd513" stroke="none" /><path d="M 107.76421540070413 80.48803036053334 l 11.542249575472297 -29.006411036373095 a52.21851063829787,52.21851063829787 0 0,0 0.8323037055575565,0.3395175793984061 l -12.039837150618242 28.80343257079111" fill="#93ff23" stroke="none" /><line stroke="#e1ed5e" stroke-width="0.3" x1="143.23703022742887" x2="145.7803849466894" y1="26.81831364943548" y2="22.513508569990506" /><path d="M 143.74570117128098 25.957352633546492 a86.0,86.0 0 0,1 28.547481713284135,27.462654790039103" fill="none" id="id38" stroke="none" /><text fill="#e1ed5e" style="font-size:6.75px; font-family:Arial;" text-anchor="middle"><textPath startOffset="19.985693538727396" xlink:href="#id38">February</textPath></text><path d="M 110.99172775467656 82.1063720568725 l 6.924788485446232 -11.272985604170325 a34.230000000000004,34.230000000000004 0 0,0 0.499400781633211,0.312724723643601 l -7.117808419451706 11.15211653920378" fill="#ff840c" stroke="none" /><path d="M 112.48926042617603 83.11751280151076 l 7.9878120938479045 -10.79760776992738 a34.431063829787234,34.431063829787234 0 0,0 0.47343343385912784,0.3565802470782852 l -8.172491681465415 10.658510933343246" fill="#ff870c" stroke="none" /><path d="M 112.77801427241765 83.33499621200491 l 9.958694953162945 -12.988065718175752 a37.36659574468085,37.36659574468085 0 0,0 0.507060157702486,0.3957684959417398 l -10.18078766602486 12.814718833010788" fill="#ffb010" stroke="none" /><path d="M 113.06298171725822 83.55741782278167 l 14.708361542070318 -18.513647847199863 a44.645106382978724,44.645106382978724 0 0,0 0.5975994130943839,0.4832171651354929 l -15.024864353729193 18.25772458480024" fill="#eeff19" stroke="none" /><path d="M 113.6212207817346 84.01681056812373 l 11.389659079195107 -13.364666907930578 a38.5595744680851,38.5595744680851 0 0,0 0.5014694718464734,0.43486938442302914 l -11.618022349688344 13.16663253008788" fill="#ffc011" stroke="none" /><path d="M 113.89432698308785 84.25364557470407 l 11.91955880761919 -13.50836192399856 a39.01531914893617,39.01531914893617 0 0,0 0.49974724602379045,0.44867801179287126 l -12.15031704123897 13.301184903436392" fill="#ffc612" stroke="none" /><path d="M 114.16331599549186 84.49514656593476 l 9.980617569589155 -10.925973313537037 a35.79829787234043,35.79829787234043 0 0,0 0.4513860500075931,0.4195141396531873 l -10.167211503391595 10.75255458780921" fill="#ff9a0e" stroke="none" /><path d="M 114.42810811169701 84.74124197986012 l 11.152620589318133 -11.794695295142162 a37.23255319148936,37.23255319148936 0 0,0 0.46189066616547203,0.4443384548956889 l -11.353994499096022 11.600973753484173" fill="#ffae10" stroke="none" /><path d="M 114.94478906791727 85.2469230424477 l 10.159276823828867 -10.028953378591405 a35.27553191489362,35.27553191489362 0 0,0 0.42286247618382006,0.4357969523684782 l -10.330403563715796 9.852592230672812" fill="#ff930d" stroke="none" /><path d="M 115.4437574822437 85.77008943001954 l 9.877432976941394 -9.10108748369389 a34.431063829787234,34.431063829787234 0 0,0 0.39785317136443177,0.439319408787416 l -10.032629788921861 8.929715287636926" fill="#ff870c" stroke="none" /><path d="M 115.68641384162765 86.03803664274999 l 11.774822985800505 -10.480384409442138 a36.763404255319145,36.763404255319145 0 0,0 0.41666615882584357,0.4763214475664139 l -11.953481008204196 10.276147405672775" fill="#ffa70f" stroke="none" /><path d="M 115.9244219780498 86.31012108654704 l 11.221635232191698 -9.646995523692814 a35.79829787234043,35.79829787234043 0 0,0 0.3976839499449398,0.47073236075991454 l -11.386029795623754 9.452404213303792" fill="#ff9a0e" stroke="none" /><path d="M 116.15771136456269 86.58626213691792 l 18.82201483425122 -15.625577617100921 a45.462765957446805,45.462765957446805 0 0,0 0.4946814559835191,0.6064209732420369 l -19.08819478231115 15.299272474250783" fill="#e4ff1a" stroke="none" /><line stroke="#e1ed5e" stroke-width="0.3" x1="172.23445277983987" x2="176.4835382374775" y1="55.19839476539836" y2="52.563006222186495" /><path d="M 173.08426987136738 54.67131705675599 a86.0,86.0 0 0,1 12.851231095245387,41.99856678651699" fill="none" id="id39" stroke="none" /><text fill="#e1ed5e" style="font-size:6.75px; font-family:Arial;" text-anchor="middle"><textPath startOffset="22.20632615414155" xlink:href="#id39">March</textPath></text><line stroke="#e1ed5e" stroke-width="0.3" x1="184.98032266829074" x2="189.97916517819016" y1="98.17113171792111" y2="98.06355123074" /><path d="M 185.9800911702706 98.14961562048488 a86.0,86.0 0 0,1 -9.607161424134198,41.387399972396054" fill="none" id="id40" stroke="none" /><text fill="#e1ed5e" style="font-size:6.75px; font-family:Arial;" text-anchor="middle"><textPath startOffset="21.466115282336823" xlink:href="#id40">April</textPath></text><line stroke="#e1ed5e" stroke-width="0.3" x1="174.80103733775053" x2="179.2010983576182" y1="140.37084112569926" y2="142.7455964860345" /><path d="M 175.68104954172406 140.8457921977663 a86.0,86.0 0 0,1 -30.038265399797805,32.042727171017184" fill="none" id="id41" stroke="none" /><text fill="#e1ed5e" style="font-size:6.75px; font-family:Arial;" text-anchor="middle"><textPath startOffset="22.206326154141568" xlink:href="#id41">May</textPath></text><line stroke="#e1ed5e" stroke-width="0.3" x1="143.8653032363475" x2="146.44561519142675" y1="172.8068346515853" y2="177.08958963109032" /><path d="M 144.38136562736335 173.6633856474863 a86.0,86.0 0 0,1 -40.68145358897372,12.25698825130547" fill="none" id="id42" stroke="none" /><text fill="#e1ed5e" style="font-size:6.75px; font-family:Arial;" text-anchor="middle"><textPath startOffset="21.466115282336833" xlink:href="#id42">June</textPath></text><line stroke="#e1ed5e" stroke-width="0.3" x1="102.19456741930631" x2="102.32365962044197" y1="184.97166512339345" y2="189.96999836594603" /><path d="M 102.22038585953345 185.97133177190398 a86.0,86.0 0 0,1 -42.740103519485714,-10.115201625700543" fill="none" id="id43" stroke="none" /><text fill="#e1ed5e" style="font-size:6.75px; font-family:Arial;" text-anchor="middle"><textPath startOffset="22.20632615414155" xlink:href="#id43">July</textPath></text><line stroke="#e1ed5e" stroke-width="0.3" x1="58.666819895761336" x2="56.23545636021788" y1="174.27360380694188" y2="178.64263932499728" /><path d="M 58.180547188652646 175.14741091055294 a86.0,86.0 0 0,1 -31.652253787137756,-30.449443065178592" fill="none" id="id44" stroke="none" /><text fill="#e1ed5e" style="font-size:6.75px; font-family:Arial;" text-anchor="middle"><textPath startOffset="22.20632615414155" xlink:href="#id44">August</textPath></text><line stroke="#e1ed5e" stroke-width="0.3" x1="26.63291911575756" x2="22.317208475507996" y1="142.92168965132927" y2="145.44649492493687" /><path d="M 25.769776987707644 143.4266507060508 a86.0,86.0 0 0,1 -11.730757126820373,-40.83630448921669" fill="none" id="id45" stroke="none" /><text fill="#e1ed5e" style="font-size:6.75px; font-family:Arial;" text-anchor="middle"><textPath startOffset="21.46611528233685" xlink:href="#id45">September</textPath></text><line stroke="#e1ed5e" stroke-width="0.3" x1="15.007084014347285" x2="10.007500721073583" y1="101.09737516637583" y2="101.16192664675087" /><path d="M 14.007167355692545 101.11028546245083 a86.0,86.0 0 0,1 10.666146001902534,-42.60595125391555" fill="none" id="id46" stroke="none" /><text fill="#e1ed5e" style="font-size:6.75px; font-family:Arial;" text-anchor="middle"><textPath startOffset="22.20632615414155" xlink:href="#id46">October</textPath></text><line stroke="#e1ed5e" stroke-width="0.3" x1="26.266209847984243" x2="21.928928074336255" y1="57.711370442889674" y2="55.22380399835377" /><path d="M 25.398753493254645 57.213857153982495 a86.0,86.0 0 0,1 29.58750427330803,-30.492523968695096" fill="none" id="id47" stroke="none" /><text fill="#e1ed5e" style="font-size:6.75px; font-family:Arial;" text-anchor="middle"><textPath startOffset="21.46611528233685" xlink:href="#id47">November</textPath></text><line stroke="#e1ed5e" stroke-width="0.3" x1="56.762969772571076" x2="54.21961505331055" y1="26.818313649435495" y2="22.513508569990535" /><path d="M 56.25429882871897 25.957352633546506 a86.0,86.0 0 0,1 42.265352541879196,-11.944610805530505" fill="none" id="id48" stroke="none" /><text fill="#e1ed5e" style="font-size:6.75px; font-family:Arial;" text-anchor="middle"><textPath startOffset="22.20632615414155" xlink:href="#id48">December</textPath></text></svg>