<?xml version="1.0" encoding="utf-8" ?>
<svg baseProfile="full" height="200mm" version="1.1" viewBox="0,0,200,200" width="200mm" xmlns="http://www.w3.org/2000/svg" xmlns:ev="http://www.w3.org/2001/xml-events" xmlns:xlink="http://www.w3.org/1999/xlink"><defs /><rect fill="#1a1a1a" height="200" width="200" x="0" y="0" /><text alignment-baseline="middle" fill="#e1ed5e" style="dominant-baseline: central; font-size:9.0px; font-family:Arial;" text-anchor="middle" x="100.0" y="100.0">2025</text><line stroke="#e1ed5e" stroke-width="0.3" x1="100.0" x2="100.0" y1="15.0" y2="10.0" /><path d="M 100.0 14.0 a86.0,86.0 0 0,1 42.46469731375804,11.215312516191453" fill="none" id="id37" stroke="none" /><text fill="#e1ed5e" style="font-size:6.75px; font-family:Arial;" text-anchor="middle"><textPath startOffset="22.20632615414155" xlink:href="#id37">January</textPath></text><path d="M 100.0 79.0 l 0.0 -63.0 a84.0,84.0 0 0,0 1.4459219170901134,0.012445506434235476 l -1.084441437817585 62.990665870174325" fill="#4dd2ff" stroke="none" /><path d="M 100.72285384407766 79.0124445844662 l 0.32390004162288366 -9.404211001088125 a30.409787234042554,30.409787234042554 0 0,0 0.5229892116506829,0.022521015590708602 l -0.4857300856628981 9.397242258973222" fill="#ff5808" stroke="none" /><path d="M 101.08401301168833 79.027996857942 l 0.6933070453478972 -13.413157754260922 a34.431063829787234,34.431063829787234 0 0,0 0.5916206918387129,0.03568817577773973 l -0.924089786026222 13.399236309102879" fill="#ff910d" stroke="none" /><path d="M 101.44485096284872 79.0497635885617 l 1.215519299383793 -17.62494356826107 a38.6668085106383,38.6668085106383 0 0,0 0.6636141492038935,0.05150923000447405 l -1.5187236379500277 17.601409076068133" fill="#ffca12" stroke="none" /><path d="M 102.16513564639614 79.11191278185805 l 1.5229656270182148 -14.692769434718562 a35.77148936170212,35.77148936170212 0 0,0 0.6119195258938593,0.06875628862007868 l -1.7756518564217993 14.664377192627882" fill="#ffa30f" stroke="none" /><path d="M 102.52436894288641 79.15227682838746 l 1.940004387596957 -16.021697041673296 a37.138723404255316,37.138723404255316 0 0,0 0.6339850163069751,0.0823094506084459 l -2.215504132411778 15.985929267900714" fill="#ffb610" stroke="none" /><path d="M 103.2404852339499 79.25152402106235 l 0.6639547404880337 -4.251230291003608 a25.30276595744681,25.30276595744681 0 0,0 0.42975036290118085,0.0709124921218948 l -0.7370343095280897 4.239171535942089" fill="#ff0d01" stroke="none" /><path d="M 103.95276090670814 79.375362276772 l 5.048600792121041 -26.342489415433565 a47.82191489361702,47.82191489361702 0 0,0 0.8071282381858207,0.16190233151183814 l -5.501295439773988 26.25168312784452" fill="#c1ff1e" stroke="none" /><path d="M 104.66035177308747 79.52364482259891 l 1.7996890357773976 -7.907358435528294 a29.109574468085107,29.109574468085107 0 0,0 0.48762184668918285,0.11540433668132782 l -1.9355345694291037 7.8752081867060975" fill="#ff4606" stroke="none" /><path d="M 105.01212808612495 79.60689891045804 l 3.6279276061695933 -14.76113402268548 a36.200425531914895,36.200425531914895 0 0,0 0.6038422518880696,0.15393283511485803 l -3.8814787467426877 14.696498191401753" fill="#ffa90f" stroke="none" /><path d="M 105.71112130821622 79.79150937346287 l 4.69162539808996 -16.601060065757412 a38.251276595744685,38.251276595744685 0 0,0 0.632074626823349,0.18451991619722968 l -4.976690242636737 16.51784182064148" fill="#ffc512" stroke="none" /><path d="M 106.40334571778207 80.00007090966166 l 10.818929435086684 -33.791369554548254 a56.48106382978723,56.48106382978723 0 0,0 0.9233771157518299,0.30442291736999894 l -11.398989373080932 33.600132912919015" fill="#5fff29" stroke="none" /><path d="M 107.08798089147638 80.2323363322302 l 5.9674766782068165 -16.64269045390746 a38.68021276595745,38.68021276595745 0 0,0 0.6248100863376183,0.23012282778737173 l -6.253069090317011 16.537504358313765" fill="#ffca12" stroke="none" /><path d="M 107.4271985657038 80.35727306442388 l 6.760330949804439 -17.879060814977574 a40.11446808510638,40.11446808510638 0 0,0 0.6437738605602105,0.24977425627035546 l -7.067087975364317 17.760043854816672" fill="#ffdd14" stroke="none" /><path d="M 107.76421540070413 80.48803036053334 l 11.542249575472297 -29.006411036373095 a52.21851063829787,52.21851063829787 0 0,0 0.8323037055575565,0.3395175793984061 l -12.039837150618242 28.80343257079111" fill="#8eff24" stroke="none" /><line stroke="#e1ed5e" stroke-width="0.3" x1="143.23703022742887" x2="145.7803849466894" y1="26.81831364943548" y2="22.513508569990506" /><path d="M 143.74570117128098 25.957352633546492 a86.0,86.0 0 0,1 28.547481713284135,27.462654790039103" fill="none" id="id38" stroke="none" /><text fill="#e1ed5e" style="font-size:6.75px; font-family:Arial;" text-anchor="middle"><textPath startOffset="19.985693538727396" xlink:href="#id38">February</textPath></text><path d="M 110.99172775467656 82.1063720568725 l 6.924788485446232 -11.272985604170325 a34.230000000000004,34.230000000000004 0 0,0 0.499400781633211,0.312724723643601 l -7.117808419451706 11.15211653920378" fill="#ff8e0d" stroke="none" /><path d="M 112.48926042617603 83.11751280151076 l 7.9878120938479045 -10.79760776992738 a34.431063829787234,34.431063829787234 0 0,0 0.47343343385912784,0.3565802470782852 l -8.172491681465415 10.658510933343246" fill="#ff910d" stroke="none" /><path d="M 112.77801427241765 83.33499621200491 l 9.958694953162945 -12.988065718175752 a37.36659574468085,37.36659574468085 0 0,0 0.507060157702486,0.3957684959417398 l -10.18078766602486 12.814718833010788" fill="#ffb911" stroke="none" /><path d="M 113.06298171725822 83.55741782278167 l 14.708361542070318 -18.513647847199863 a44.645106382978724,44.645106382978724 0 0,0 0.5975994130943839,0.4832171651354929 l -15.024864353729193 18.25772458480024" fill="#e7ff1a" stroke="none" /><path d="M 113.6212207817346 84.01681056812373 l 11.389659079195107 -13.364666907930578 a38.5595744680851,38.5595744680851 0 0,0 0.5014694718464734,0.43486938442302914 l -11.618022349688344 13.16663253008788" fill="#ffc912" stroke="none" /><path d="M 113.89432698308785 84.25364557470407 l 11.91955880761919 -13.50836192399856 a39.01531914893617,39.01531914893617 0 0,0 0.49974724602379045,0.44867801179287126 l -12.15031704123897 13.301184903436392" fill="#ffcf13" stroke="none" /><path d="M 114.16331599549186 84.49514656593476 l 9.980617569589155 -10.925973313537037 a35.79829787234043,35.79829787234043 0 0,0 0.4513860500075931,0.4195141396531873 l -10.167211503391595 10.75255458780921" fill="#ffa40f" stroke="none" /><path d="M 114.42810811169701 84.74124197986012 l 11.152620589318133 -11.794695295142162 a37.23255319148936,37.23255319148936 0 0,0 0.46189066616547203,0.4443384548956889 l -11.353994499096022 11.600973753484173" fill="#ffb711" stroke="none" /><path d="M 114.94478906791727 85.2469230424477 l 10.159276823828867 -10.028953378591405 a35.27553191489362,35.27553191489362 0 0,0 0.42286247618382006,0.4357969523684782 l -10.330403563715796 9.852592230672812" fill="#ff9d0e" stroke="none" /><path d="M 115.4437574822437 85.77008943001954 l 9.877432976941394 -9.10108748369389 a34.431063829787234,34.431063829787234 0 0,0 0.39785317136443177,0.439319408787416 l -10.032629788921861 8.929715287636926" fill="#ff910d" stroke="none" /><path d="M 115.68641384162765 86.03803664274999 l 11.774822985800505 -10.480384409442138 a36.763404255319145,36.763404255319145 0 0,0 0.41666615882584357,0.4763214475664139 l -11.953481008204196 10.276147405672775" fill="#ffb110" stroke="none" /><path d="M 115.9244219780498 86.31012108654704 l 11.221635232191698 -9.646995523692814 a35.79829787234043,35.79829787234043 0 0,0 0.3976839499449398,0.47073236075991454 l -11.386029795623754 9.452404213303792" fill="#ffa40f" stroke="none" /><path d="M 116.15771136456269 86.58626213691792 l 18.82201483425122 -15.625577617100921 a45.462765957446805,45.462765957446805 0 0,0 0.4946814559835191,0.6064209732420369 l -19.08819478231115 15.299272474250783" fill="#ddff1b" stroke="none" /><path d="M 116.60985879189232 87.15038557335679 l 19.0836675481316 -14.763386788058154 a45.12765957446808,45.12765957446808 0 0,0 0.4700240433481816,0.6184965454471406 l -19.334967531703896 14.432705466729981" fill="#e1ff1b" stroke="none" /><path d="M 117.2510076193507 88.02491185347247 l 25.20482326001729 -17.496368149405225 a51.68234042553192,51.68234042553192 0 0,0 0.5010123841722897,0.7351738520917466 l -25.502260109858312 17.059916274043072" fill="#94ff23" stroke="none" /><path d="M 117.45458315368197 88.32363383020206 l 6.6958751970401265 -4.479252809392699 a29.055957446808513,29.055957446808513 0 0,0 0.27451427239732223,0.4181040702028056 l -6.771986104795373 4.36333067521222" fill="#ff4506" stroke="none" /><path d="M 117.65298651832404 88.62581576622439 l 6.80578969600067 -4.385111028000298 a29.096170212765955,29.096170212765955 0 0,0 0.26764653047794396,0.4233525357627849 l -6.88026382272457 4.267310844523307" fill="#ff4506" stroke="none" /><line stroke="#e1ed5e" stroke-width="0.3" x1="172.23445277983987" x2="176.4835382374775" y1="55.19839476539836" y2="52.563006222186495" /><path d="M 173.08426987136738 54.67131705675599 a86.0,86.0 0 0,1 12.851231095245387,41.99856678651699" fill="none" id="id39" stroke="none" /><text fill="#e1ed5e" style="font-size:6.75px; font-family:Arial;" text-anchor="middle"><textPath startOffset="22.20632615414155" xlink:href="#id39">March</textPath></text><path d="M 117.84615892207809 88.93136811851018 l 8.007989184396315 -4.966754178311069 a30.423191489361702,30.423191489361702 0 0,0 0.2721922403125747,0.44741247494318775 l -8.092297222995114 4.8281739301607995" fill="#ff5908" stroke="none" /><path d="M 118.03404312379186 89.2402003453031 l 47.48325184189878 -28.330323558909388 a76.29255319148936,76.29255319148936 0 0,0 0.6631651188125876,1.133564156182391 l -47.9638766351817 27.5087799903731" fill="#43ffdf" stroke="none" /><path d="M 118.56541770881063 90.18545643968196 l 7.133860506832341 -3.7712905680711466 a29.069361702127658,29.069361702127658 0 0,0 0.23005017614048573,0.4443837168030205 l -7.197720116132943 3.647934129007781" fill="#ff4506" stroke="none" /><path d="M 118.73160827565052 90.50648371742162 l 17.95843125320878 -9.10165624878686 a41.13319148936171,41.13319148936171 0 0,0 0.3146493022874309,0.6343137932507804 l -18.112440568449617 8.79118286703713" fill="#ffea16" stroke="none" /><path d="M 118.89224826269711 90.83032412892265 l 7.319741294972646 -3.552761651325923 a29.136382978723404,29.136382978723404 0 0,0 0.2151122591399804,0.4530812782144758 l -7.379811747954383 3.4262379574709065" fill="#ff4606" stroke="none" /><path d="M 119.04729006885535 91.15688171328212 l 22.03001464133994 -10.22791298012732 a45.28851063829787,45.28851063829787 0 0,0 0.32219040750202443,0.7099038549737983 l -22.20280736580531 9.847187116311458" fill="#dfff1b" stroke="none" /><path d="M 119.196687751892 91.48605970444005 l 8.650762693299418 -3.836707562977864 a30.463404255319148,30.463404255319148 0 0,0 0.2084702000622559,0.48117796429968984 l -8.715523603204355 3.687230454091571" fill="#ff5908" stroke="none" /><path d="M 119.47837535516314 92.15188598940014 l 7.4846693386009795 -3.0156795538602825 a29.069361702127658,29.069361702127658 0 0,0 0.18300748180205467,0.46573407960596314 l -7.5354703702847345 2.8863964693585347" fill="#ff4506" stroke="none" /><path d="M 119.61058180528143 92.48833698450437 l 22.33102847273749 -8.553706480623966 a44.9131914893617,44.9131914893617 0 0,0 0.27032482476205594,0.7243361333151366 l -22.47495788600117 8.168047210279495" fill="#e4ff1a" stroke="none" /><path d="M 119.7369772167798 92.82701384747503 l 7.621832691160712 -2.7699935886878335 a29.109574468085107,29.109574468085107 0 0,0 0.167098548622147,0.472410098687363 l -7.6683843205926685 2.638385863573856" fill="#ff4606" stroke="none" /><path d="M 119.85752413597 93.16781622104841 l 15.29874359496752 -5.2636888220390805 a37.178936170212765,37.178936170212765 0 0,0 0.20300178266491517,0.6069494916134947 l -15.387082671404205 4.999566227503272" fill="#ffb710" stroke="none" /><path d="M 120.08093135843002 93.85539295169968 l 23.11016121654212 -7.071527558352427 a45.16787234042553,45.16787234042553 0 0,0 0.22109480555272373,0.7454217722083679 l -23.22846191920655 6.672676399397529" fill="#e1ff1b" stroke="none" /><path d="M 120.28053869075195 94.5502522615342 l 7.779959842431017 -2.090615994139114 a29.055957446808513,29.055957446808513 0 0,0 0.12563750081860037,0.48413254141613316 l -7.814793675119921 1.9563870271741304" fill="#ff4506" stroke="none" /><path d="M 120.37134235888165 94.90015583598534 l 12.027760648063099 -3.011078203221414 a33.398936170212764,33.398936170212764 0 0,0 0.13481591873412227,0.5588990198608381 l -12.077809367058041 2.8035939517011697" fill="#ff830c" stroke="none" /><path d="M 120.45610955862082 95.25157060432595 l 7.8603689069934495 -1.8246092528909235 a29.069361702127658,29.069361702127658 0 0,0 0.10894866343930712,0.4883954955123266 l -7.890611957434794 1.689035587828633" fill="#ff4506" stroke="none" /><path d="M 120.53481517161879 95.60439243477599 l 7.956148601599536 -1.703064122611263 a29.136382978723404,29.136382978723404 0 0,0 0.10075736411453302,0.4913286906719982 l -7.984285261629066 1.565859775775853" fill="#ff4606" stroke="none" /><path d="M 120.78858239683441 97.02765380044208 l 6.647923264349388 -0.9505183697735197 a27.715531914893617,27.715531914893617 0 0,0 0.06346065060515789,0.4728555583346568 l -6.6632999140123825 0.8359444693741985" fill="#ff3104" stroke="none" /><path d="M 120.83666639777658 97.38593545837742 l 13.326599828024765 -1.671888938748397 a34.431063829787234,34.431063829787234 0 0,0 0.06871398718177528,0.5886994792486564 l -13.35340416821013 1.442245721174888" fill="#ff910d" stroke="none" /><path d="M 120.87857604477298 97.74499172005257 l 24.001477951044354 -2.592299943948077 a45.141063829787235,45.141063829787235 0 0,0 0.07678897856009441,0.7732545347432114 l -24.042544055286676 2.1787698785004306" fill="#e1ff1b" stroke="none" /><path d="M 120.96714384426684 98.82574320788733 l 22.269783419272365 -1.2472106183460512 a43.30468085106383,43.30468085106383 0 0,0 0.035275563617223865,0.7446113945978481 l -22.287952591123084 0.8636881171252033" fill="#f8ff18" stroke="none" /><line stroke="#e1ed5e" stroke-width="0.3" x1="184.98032266829074" x2="189.97916517819016" y1="98.17113171792111" y2="98.06355123074" /><path d="M 185.9800911702706 98.14961562048488 a86.0,86.0 0 0,1 -9.607161424134198,41.387399972396054" fill="none" id="id40" stroke="none" /><text fill="#e1ed5e" style="font-size:6.75px; font-family:Arial;" text-anchor="middle"><textPath startOffset="21.466115282336823" xlink:href="#id40">April</textPath></text><path d="M 120.99513854157772 99.54816195383933 l 25.569398513189537 -0.5502810587709915 a46.575319148936174,46.575319148936174 0 0,0 0.01035079442658151,0.8016804353144121 l -25.575082314733834 0.1100643653961167" fill="#d0ff1d" stroke="none" /><path d="M 120.99980553446 99.90962569577887 l 24.248073326705192 -0.10435347851235595 a45.24829787234043,45.24829787234043 0 0,0 -0.0033520428402559546,0.7788967051555926 l -24.246276986575435 -0.3130527048469214" fill="#e0ff1b" stroke="none" /><path d="M 120.92983693683757 101.71520430193887 l 13.372829855600692 1.095906067813283 a34.41765957446809,34.41765957446809 0 0,0 -0.053470954229295466,0.5900475242575237 l -13.351984305094321 -1.3259349806193772" fill="#ff910d" stroke="none" /><path d="M 120.89721153311464 102.0752229133903 l 22.04878127504586 2.189580942021808 a43.15723404255319,43.15723404255319 0 0,0 -0.07977449995773189,0.7386127929605957 l -22.00782447358708 -2.5687900568671953" fill="#faff18" stroke="none" /><path d="M 120.8583938346157 102.4346265915055 l 14.65856911398631 1.7109726876048288 a35.75808510638298,35.75808510638298 0 0,0 -0.07662189819095201,0.6107519175399954 l -14.62694570654851 -1.963042359432219" fill="#ffa30f" stroke="none" /><path d="M 120.81339534386255 102.79330883721812 l 14.733226874261847 1.9773060641329068 a35.865319148936166,35.865319148936166 0 0,0 -0.08738490904037043,0.6111698503006924 l -14.697007914204875 -2.2306213864140085" fill="#ffa50f" stroke="none" /><path d="M 120.76222939487914 103.15116336523771 l 22.582237588643025 3.427393004913861 a43.84085106382979,43.84085106382979 0 0,0 -0.11966098429936978,0.745129063457505 l -22.519894849982368 -3.815601298064571" fill="#f1ff19" stroke="none" /><path d="M 120.5718875245553 104.21870165774334 l 15.796583420451075 3.239424315488447 a37.12531914893617,37.12531914893617 0 0,0 -0.13376776005076646,0.6249184413768195 l -15.738481621675865 -3.5108565762814354" fill="#ffb610" stroke="none" /><path d="M 120.49622156327973 104.57218783832717 l 22.266746234490704 4.96714704308479 a43.814042553191484,43.814042553191484 0 0,0 -0.17053976393297848,0.7346808395829728 l -22.177945904627173 -5.349696540016327" fill="#f2ff19" stroke="none" /><path d="M 120.32669344350535 105.2749913415812 l 15.867795371110876 4.117860262183286 a37.39340425531915,37.39340425531915 0 0,0 -0.16704510406290773,0.6216369745220929 l -15.794562190706191 -4.390388169880927" fill="#ffb911" stroke="none" /><path d="M 120.02730092923936 106.31721596034902 l 21.75731883929705 6.862915892242997 a43.814042553191484,43.814042553191484 0 0,0 -0.23306514607120893,0.7173007631527105 l -21.635961442209595 -7.236415555373502" fill="#f2ff19" stroke="none" /><path d="M 119.79798401119884 107.00284435728193 l 16.89568380189756 5.976257173842084 a38.92148936170213,38.92148936170213 0 0,0 -0.22885046008158935,0.6296981787828919 l -16.790309080810744 -6.2662031496311075" fill="#ffce13" stroke="none" /><path d="M 119.67450827220406 107.3425965602758 l 7.5851508487731385 2.830805312174411 a29.096170212765955,29.096170212765955 0 0,0 -0.1791572024015072,0.4677229218686313 l -7.5352993667781245 -2.960951800876186" fill="#ff4506" stroke="none" /><path d="M 118.97047184881838 109.00673069616215 l 6.7324993710274565 3.1964312342975467 a28.452765957446807,28.452765957446807 0 0,0 -0.213865545080319,0.4406263677474736 l -6.676480569332423 -3.311846558010296" fill="#ff3c05" stroke="none" /><path d="M 118.81262510543309 109.33194174019688 l 21.6385215574407 10.733718520745603 a45.15446808510639,45.15446808510639 0 0,0 -0.3513906304553117,0.6933270503260791 l -21.45055225719912 -11.104599782774375" fill="#e1ff1b" stroke="none" /><line stroke="#e1ed5e" stroke-width="0.3" x1="174.80103733775053" x2="179.2010983576182" y1="140.37084112569926" y2="142.7455964860345" /><path d="M 175.68104954172406 140.8457921977663 a86.0,86.0 0 0,1 -30.038265399797805,32.042727171017184" fill="none" id="id41" stroke="none" /><text fill="#e1ed5e" style="font-size:6.75px; font-family:Arial;" text-anchor="middle"><textPath startOffset="22.206326154141568" xlink:href="#id41">May</textPath></text><path d="M 117.75023020441432 111.22182372390056 l 11.57919272483709 7.320449263293423 a34.69914893617021,34.69914893617021 0 0,0 -0.32352021936464403,0.5021105648957439 l -11.451467642095396 -7.518681428110619" fill="#ff950d" stroke="none" /><path d="M 117.35343817320211 111.8261652097733 l 11.098815989073515 7.5637133235273435 a34.431063829787234,34.431063829787234 0 0,0 -0.3379803934911869,0.486885964592942 l -10.96697468842019 -7.753640550307305" fill="#ff910d" stroke="none" /><path d="M 117.14729908036423 112.12312394758627 l 17.98277386534369 12.713803816521862 a43.02319148936171,43.02319148936171 0 0,0 -0.4327317828117704,0.6010265985342677 l -17.761262290156317 -13.02146402050726" fill="#fbff18" stroke="none" /><path d="M 116.498646956653 112.99209946851258 l 27.717726887177044 21.826727107101124 a56.28,56.28 0 0,0 -0.6058999956929915,0.7559534060102893 l -27.337908979429198 -22.300608346689664" fill="#61ff29" stroke="none" /><path d="M 116.0416608686014 113.55231037782055 l 10.843480123307796 9.160785121348061 a35.19510638297872,35.19510638297872 0 0,0 -0.39495192598105866,0.45941831700098806 l -10.684185687755956 -9.346080537510577" fill="#ff9c0e" stroke="none" /><path d="M 115.80600337817218 113.82643327865902 l 10.109116203145865 8.843033709712559 a34.431063829787234,34.431063829787234 0 0,0 -0.3940572137467883,0.4427274570163581 l -9.955400139750738 -9.015735336469783" fill="#ff910d" stroke="none" /><path d="M 115.56566222782051 114.09645910891815 l 16.065750524927086 14.549345348374887 a42.674680851063826,42.674680851063826 0 0,0 -0.4977769696240126,0.5402385883813725 l -15.812927147307352 -14.823735191557596" fill="#fffe18" stroke="none" /><path d="M 114.81725581225074 114.88116024355365 l 26.48190400487366 26.596116179968227 a58.53191489361702,58.53191489361702 0 0,0 -0.7200820476334245,0.7047518407902781 l -26.02017200486444 -27.04801812368108" fill="#49ff2c" stroke="none" /><path d="M 114.29624159901734 115.38237550388516 l 11.990592421984331 12.901558348152191 a38.613191489361704,38.613191489361704 0 0,0 -0.49075610500156636,0.44829406620398937 l -11.766736767515901 -13.106045180942763" fill="#ffca12" stroke="none" /><path d="M 113.75828350139079 115.86535959552629 l 11.223246583900485 12.94208269983995 a38.13063829787234,38.13063829787234 0 0,0 -0.49957404742371886,0.42574784124199394 l -10.99880705989972 -13.133354931304892" fill="#ffc312" stroke="none" /><path d="M 113.20401910651253 116.32954008644616 l 9.27933512953423 11.475844873517376 a35.75808510638298,35.75808510638298 0 0,0 -0.4819551459112849,0.38289431621637804 l -9.080422490905594 -11.63387310373888" fill="#ffa30f" stroke="none" /><path d="M 112.34349029814194 116.9893568818739 l 10.266107143709963 14.13008426622235 a38.46574468085106,38.46574468085106 0 0,0 -0.5390198796912664,0.38457637229428 l -10.021359936169812 -14.304704900360848" fill="#ffc812" stroke="none" /><path d="M 111.7513745106137 117.40417183066458 l 8.265966836614659 12.242168525995124 a35.77148936170212,35.77148936170212 0 0,0 -0.5132788004016695,0.3401732006687031 l -8.054013337473027 -12.382639747755146" fill="#ffa30f" stroke="none" /><path d="M 111.45004920935366 117.60387380957326 l 13.32347215445856 20.484167205224722 a45.435957446808516,45.435957446808516 0 0,0 -0.6592934797839924,0.4207922921895081 l -12.968896872627639 -20.710473926238038" fill="#deff1b" stroke="none" /><path d="M 111.1453310114006 117.79835938074945 l 10.40072804595809 16.609277498716402 a40.59702127659574,40.59702127659574 0 0,0 -0.5954631892372431,0.36578212561645873 l -10.113285656788538 -16.785848091161238" fill="#ffe415" stroke="none" /><line stroke="#e1ed5e" stroke-width="0.3" x1="143.8653032363475" x2="146.44561519142675" y1="172.8068346515853" y2="177.08958963109032" /><path d="M 144.38136562736335 173.6633856474863 a86.0,86.0 0 0,1 -40.68145358897372,12.25698825130547" fill="none" id="id42" stroke="none" /><text fill="#e1ed5e" style="font-size:6.75px; font-family:Arial;" text-anchor="middle"><textPath startOffset="21.466115282336833" xlink:href="#id42">June</textPath></text><path d="M 110.21172684928248 118.3499491758327 l 8.584368676918109 15.425670041215952 a38.653404255319145,38.653404255319145 0 0,0 -0.5841766073456,0.3185396641757926 l -8.31756925770386 -15.571150357151515" fill="#ffca12" stroke="none" /><path d="M 109.89434966115114 118.52300852407294 l 8.248098291997906 15.441095190918665 a38.50595744680851,38.50595744680851 0 0,0 -0.5873242131971619,0.30726026968817677 l -7.9810831762742485 -15.580784879551558" fill="#ffc812" stroke="none" /><path d="M 109.2508944713604 118.85261126421891 l 5.934350389606723 12.093749566302131 a34.47127659574468,34.47127659574468 0 0,0 -0.5349405885911074,0.25680399080976474 l -5.725297133015383 -12.194107833611456" fill="#ff920d" stroke="none" /><path d="M 108.92500713936063 119.00905698771935 l 5.713903506880026 12.169840952350533 a34.44446808510638,34.44446808510638 0 0,0 -0.5388623873678645,0.24736529250949374 l -5.503573123744742 -12.266393315194101" fill="#ff910d" stroke="none" /><path d="M 108.59647513512805 119.15986991738527 l 6.046797190794322 13.477134031250149 a35.77148936170212,35.77148936170212 0 0,0 -0.563961931636175,0.24722433751587167 l -5.8139145845003934 -13.579222922060474" fill="#ffa30f" stroke="none" /><path d="M 107.93186726928326 119.44442032107085 l 6.207108046047626 15.21629317891459 a37.433617021276596,37.433617021276596 0 0,0 -0.5987220478555839,0.2382438590565861 l -5.944264922150175 -15.320883882377245" fill="#ffba11" stroke="none" /><path d="M 106.91757812671514 119.82793768551818 l 7.519554606252691 21.553390135172858 a43.82744680851064,43.82744680851064 0 0,0 -0.7144505509827108,0.242380417343896 l -7.147434322332754 -21.679633539414876" fill="#f1ff19" stroke="none" /><path d="M 106.57524785965236 119.94407469862006 l 4.494951355970861 13.634108937588566 a35.35595744680851,35.35595744680851 0 0,0 -0.579633403467104,0.18558031157058338 l -4.259596607412817 -13.709462095818855" fill="#ff9e0e" stroke="none" /><path d="M 106.2309692047433 120.05430185196036 l 7.170917537969477 23.079514620692247 a45.16787234042553,45.16787234042553 0 0,0 -0.7444633794433095,0.22430070930004684 l -6.772579184085921 -23.19953069909802" fill="#e1ff1b" stroke="none" /><path d="M 105.18746579009965 120.34920634021253 l 6.138869090326443 24.08133737537491 a45.85148936170213,45.85148936170213 0 0,0 -0.7664768919074825,0.18838137174072866 l -5.723438913675749 -24.18344000542967" fill="#d8ff1c" stroke="none" /><path d="M 104.83641907484287 120.43548508189849 l 4.068766174878445 17.19189532209078 a38.6668085106383,38.6668085106383 0 0,0 -0.6490128993945046,0.1477132228975998 l -3.7722331260910784 -17.25938527856606" fill="#ffca12" stroke="none" /><path d="M 104.13013068566511 120.58985236759428 l 4.755801546982883 23.70899596030217 a45.18127659574468,45.18127659574468 0 0,0 -0.7638484003087075,0.14639336389367877 l -4.3469855321024715 -23.787346522544315" fill="#e1ff1b" stroke="none" /><path d="M 103.7750983002368 120.6578951692458 l 2.443372133897953 13.37049300103101 a34.59191489361702,34.59191489361702 0 0,0 -0.5866640984815722,0.10199907342348302 l -2.2128590639443306 -13.4105706529755" fill="#ff930d" stroke="none" /><path d="M 103.06178313531738 120.77559828337769 l 2.947129128548045 19.997618432766096 a41.21361702127659,41.21361702127659 0 0,0 -0.7027341861473777,0.09739255487153911 l -2.602466351213837 -20.045385553130238" fill="#ffeb16" stroke="none" /><path d="M 102.70371172650421 120.8252237178851 l 2.126152881097777 16.376601459851763 a37.51404255319149,37.51404255319149 0 0,0 -0.6410838629916193,0.07762632783445822 l -1.843941595054777 -16.41077331641157" fill="#ffbb11" stroke="none" /><path d="M 101.98527174616119 120.90594882070398 l 2.2923552694503795 24.139698776587345 a45.24829787234043,45.24829787234043 0 0,0 -0.7760205519641293,0.0669583185476544 l -1.8764903997447087 -24.17558134741366" fill="#e0ff1b" stroke="none" /><path d="M 101.62511606390274 120.93702456842531 l 1.0456065909025238 13.470970701046415 a34.511489361702125,34.511489361702125 0 0,0 -0.5926727735624557,0.04087418445876881 l -0.8135710565611378 -13.486973230021468" fill="#ff920d" stroke="none" /><line stroke="#e1ed5e" stroke-width="0.3" x1="102.19456741930631" x2="102.32365962044197" y1="184.97166512339345" y2="189.96999836594603" /><path d="M 102.22038585953345 185.97133177190398 a86.0,86.0 0 0,1 -42.740103519485714,-10.115201625700543" fill="none" id="id43" stroke="none" /><text fill="#e1ed5e" style="font-size:6.75px; font-family:Arial;" text-anchor="middle"><textPath startOffset="22.20632615414155" xlink:href="#id43">July</textPath></text><path d="M 100.54218724476979 120.99299961872073 l 0.3474612726056642 13.453386138635501 a34.45787234042553,34.45787234042553 0 0,0 -0.593069717350584,0.010210233026195894 l -0.11583186536241223 -13.457373848940856" fill="#ff910d" stroke="none" /><path d="M 100.18074693466247 120.99922214144158 l 0.12148501416994033 14.114158030811478 a35.11468085106383,35.11468085106383 0 0,0 -0.6044638976647818,0.0 l 0.12148501416993061 -14.114158030811478" fill="#ff9b0e" stroke="none" /><path d="M 99.45781275523022 120.99299961872073 l -0.4509382850649086 17.45992244884667 a38.46574468085106,38.46574468085106 0 0,0 -0.6617567005176591,-0.02279223879782098 l 0.7514153372572108 -17.449573411622755" fill="#ffc812" stroke="none" /><path d="M 99.09653310690486 120.98055641714683 l -0.877708475291999 20.382387361849446 a41.401276595744676,41.401276595744676 0 0,0 -0.7117311825703428,-0.03678837245562494 l 1.2284277262758307 -20.36425918263162" fill="#ffee16" stroke="none" /><path d="M 98.01472825383883 120.90594882070398 l -1.2722635105186093 13.39759954211923 a34.45787234042553,34.45787234042553 0 0,0 -0.5899965563782265,-0.06115555541897302 l 1.502692663502429 -13.373714618244497" fill="#ff910d" stroke="none" /><path d="M 97.65516085044442 120.86867818915974 l -1.6164423073532104 14.386067517633522 a35.47659574468085,35.47659574468085 0 0,0 -0.6062655874408444,-0.07341031955760259 l 1.863835317845444 -14.356111669350572" fill="#ff9f0e" stroke="none" /><path d="M 96.93821686468263 120.77559828337769 l -1.9621469794842332 13.314064261602896 a34.45787234042553,34.45787234042553 0 0,0 -0.5860531531598119,-0.09152944973172773 l 2.191035996252562 -13.278316504524064" fill="#ff910d" stroke="none" /><path d="M 95.51606077576429 120.51570834832081 l -3.726439704226532 17.049863150753428 a38.452340425531915,38.452340425531915 0 0,0 -0.6454131051755371,-0.14689392145328253 l 4.019372958794931 -16.98319249572246" fill="#ffc712" stroke="none" /><path d="M 95.16358092515715 120.4354850818985 l -3.176601209370187 13.422200520812908 a34.792978723404254,34.792978723404254 0 0,0 -0.5816171854690679,-0.14294735351247845 l 3.407171679582466 -13.3655319089864" fill="#ff960d" stroke="none" /><path d="M 94.46302465271185 120.25689768951611 l -6.379302447992625 23.33853212526165 a45.19468085106383,45.19468085106383 0 0,0 -0.7486581350259214,-0.21157826710230987 l 6.780091751123161 -23.225265064820817" fill="#e0ff1b" stroke="none" /><path d="M 93.08242187328487 119.8279376855182 l -4.525862285031704 12.972533698503923 a34.73936170212766,34.73936170212766 0 0,0 -0.5629107268306118,-0.2018397592370911 l 4.748492572492043 -12.892706398226874" fill="#ff950d" stroke="none" /><path d="M 92.40401165467489 119.57807347666478 l -6.43881224846282 16.595541432134567 a38.80085106382978,38.80085106382978 0 0,0 -0.6205899097132986,-0.24694553259100377 l 6.723523234217977 -16.482249055137498" fill="#ffcc13" stroke="none" /><path d="M 92.06813273071674 119.44442032107085 l -8.110756190675604 19.882954055971595 a42.473617021276596,42.473617021276596 0 0,0 -0.6745792140461965,-0.2819741661813053 l 8.451806864219263 -19.740394846770315" fill="#fffc17" stroke="none" /><path d="M 90.7491055286396 118.85261126421891 l -6.0524469147730215 12.334421199462373 a34.73936170212766,34.73936170212766 0 0,0 -0.5345661420779866,-0.26804256104897367 l 6.263866964533769 -12.228410797504097" fill="#ff950d" stroke="none" /><path d="M 90.42595943632237 118.69057910512821 l -7.3394187555171255 14.328118407612113 a37.09851063829787,37.09851063829787 0 0,0 -0.5658566885792568,-0.2960294754259609 l 7.584966346622878 -14.199659513241434" fill="#ffb510" stroke="none" /><line stroke="#e1ed5e" stroke-width="0.3" x1="58.666819895761336" x2="56.23545636021788" y1="174.27360380694188" y2="178.64263932499728" /><path d="M 58.180547188652646 175.14741091055294 a86.0,86.0 0 0,1 -31.652253787137756,-30.449443065178592" fill="none" id="id44" stroke="none" /><text fill="#e1ed5e" style="font-size:6.75px; font-family:Arial;" text-anchor="middle"><textPath startOffset="22.20632615414155" xlink:href="#id44">August</textPath></text><path d="M 89.7882731507175 118.34994917583269 l -12.13674599576426 21.809109807702438 a45.95872340425532,45.95872340425532 0 0,0 -0.6879610177549921,-0.390642220560937 l 12.51035578044046 -21.596964421346865" fill="#d7ff1c" stroke="none" /><path d="M 88.54995079064634 117.60387380957326 l -7.3304676746691895 11.27022474319275 a34.44446808510638,34.44446808510638 0 0,0 -0.49423760583268816,-0.32755373519298425 l 7.52337997924184 -11.142372986908446" fill="#ff910d" stroke="none" /><path d="M 88.24862548938628 117.40417183066458 l -11.266317775494764 16.685786865739278 a41.13319148936171,41.13319148936171 0 0,0 -0.5833922808854622,-0.40126253044784665 l 11.551866941003118 -16.48938354592633" fill="#ffea16" stroke="none" /><path d="M 87.65650970185807 116.9893568818739 l -11.841871862621698 16.29893833624881 a41.14659574468085,41.14659574468085 0 0,0 -0.569419959024562,-0.4212432727777635 l 12.120676792064824 -16.09268511473128" fill="#ffeb16" stroke="none" /><path d="M 87.36589467227662 116.77436683061367 l -13.717412656887735 18.212679560983304 a43.80063829787234,43.80063829787234 0 0,0 -0.5983402286336914,-0.4587817727800688 l 14.028881614014912 -17.973858446375868" fill="#f2ff19" stroke="none" /><path d="M 86.51685102203217 116.09983520530335 l -9.595985815170726 11.458286970582911 a35.945744680851064,35.945744680851064 0 0,0 -0.4709483491356553,-0.40135240013965007 l 9.791799640883438 -11.29141018022031" fill="#ffa60f" stroke="none" /><path d="M 86.24171649860922 115.8653595955263 l -10.55582346936493 12.17244397903571 a37.111914893617026,37.111914893617026 0 0,0 -0.4790223014378474,-0.42268148605092964 l 10.763788123709364 -11.988939351212492" fill="#ffb610" stroke="none" /><path d="M 85.70375840098266 115.38237550388516 l -12.820991136140014 13.795045265718285 a39.83297872340425,39.83297872340425 0 0,0 -0.49822362476720566,-0.47110153476809086 l 13.056550595298036 -13.572309094204263" fill="#ffda14" stroke="none" /><path d="M 84.67929136418377 114.36230785411682 l -11.392739719612283 10.680056585135807 a36.61595744680851,36.61595744680851 0 0,0 -0.42710525244148956,-0.463538397213401 l 11.574891380049502 -10.482366933121062" fill="#ffaf10" stroke="none" /><path d="M 84.43433777217949 114.09645910891817 l -17.178529782064885 15.557092212331606 a44.17595744680851,44.17595744680851 0 0,0 -0.505585734792953,-0.568030932717463 l 17.443774366506176 -15.259087109873278" fill="#edff1a" stroke="none" /><path d="M 83.95833913139862 113.55231037782056 l -6.194811590747133 5.233498582073261 a29.109574468085107,29.109574468085107 0 0,0 -0.3200722469560873,-0.38554764040507367 l 6.283979837596756 -5.126089684554426" fill="#ff4606" stroke="none" /><path d="M 83.50135304334701 112.99209946851258 l -13.058503548670028 10.283108515503578 a37.62127659574468,37.62127659574468 0 0,0 -0.3962652338348646,-0.5122262318226409 l 13.233575599722961 -10.056804289567685" fill="#ffbc11" stroke="none" /><path d="M 83.06392112726016 112.41649034213515 l -12.993936258531889 9.52635407951901 a37.111914893617026,37.111914893617026 0 0,0 -0.3732755413889797,-0.5184470793878397 l 13.155991592296475 -9.301273394680033" fill="#ffb610" stroke="none" /><path d="M 82.85270091963577 112.12312394758628 l -13.517179381436058 9.556632814001528 a37.554255319148936,37.554255319148936 0 0,0 -0.36863810112814144,-0.5310506790038637 l 13.679678389726334 -9.322540872810652" fill="#ffbc11" stroke="none" /><path d="M 82.44556493220864 111.52570212397912 l -14.734520498390841 9.674232952999496 a38.626595744680856,38.626595744680856 0 0,0 -0.360138075767115,-0.5589422912083148 l 14.898863437535002 -9.419169061869733" fill="#ffca12" stroke="none" /><path d="M 82.24976979558568 111.22182372390057 l -7.262487804912496 4.59139723852357 a29.592127659574466,29.592127659574466 0 0,0 -0.26849270031470807,-0.4328957228442245 l 7.34044514489516 -4.465705184314082" fill="#ff4d07" stroke="none" /><line stroke="#e1ed5e" stroke-width="0.3" x1="26.63291911575756" x2="22.317208475507996" y1="142.92168965132927" y2="145.44649492493687" /><path d="M 25.769776987707644 143.4266507060508 a86.0,86.0 0 0,1 -11.730757126820373,-40.83630448921669" fill="none" id="id45" stroke="none" /><text fill="#e1ed5e" style="font-size:6.75px; font-family:Arial;" text-anchor="middle"><textPath startOffset="21.46611528233685" xlink:href="#id45">September</textPath></text><path d="M 81.69416730710424 110.29060199501025 l -15.20163085114301 8.545578635430852 a38.43893617021277,38.43893617021277 0 0,0 -0.31926939350821343,-0.5795666872816028 l 15.34647665410274 -8.282641429751427" fill="#ffc712" stroke="none" /><path d="M 81.51974371655577 109.97397251340807 l -14.815660782131467 7.9961549852173635 a37.835744680851064,37.835744680851064 0 0,0 -0.3043930553939712,-0.5757969472873795 l 14.951106345750324 -7.739943022843858" fill="#ffbf11" stroke="none" /><path d="M 81.18737489456691 109.33194174019688 l -21.98675525620084 10.906458718915207 a45.5431914893617,45.5431914893617 0 0,0 -0.3423259266651425,-0.7052928025203942 l 22.171234439480703 -10.526376960429527" fill="#dcff1b" stroke="none" /><path d="M 80.87730276802145 108.67885076344099 l -3.1247301008850035 1.4181611460261023 a24.431489361702127,24.431489361702127 0 0,0 -0.17050726567858757,-0.38444887150168916 l 3.1486784512948707 -1.3641639380317174" fill="#ff0000" stroke="none" /><path d="M 80.58989483394504 108.01547362559985 l -16.254930624168576 6.712532806459788 a38.58638297872341,38.58638297872341 0 0,0 -0.24823426027089343,-0.6160970764488368 l 16.368067498696856 -6.431736362168146" fill="#ffc912" stroke="none" /><path d="M 80.32549172779594 107.34259656027581 l -15.23309268139374 5.68504444315823 a37.25936170212766,37.25936170212766 0 0,0 -0.21907748669732635,-0.6028071533544659 l 15.328694429096291 -5.421989492797647" fill="#ffb811" stroke="none" /><path d="M 80.20201598880116 107.00284435728193 l -7.620117675799722 2.6953500941112787 a29.08276595744681,29.08276595744681 0 0,0 -0.16287618752989916,-0.4733944416152695 l 7.66538469427285 -2.563782949406712" fill="#ff4506" stroke="none" /><path d="M 80.0844068197444 106.66101706037122 l -13.080731095201925 4.375012694758717 a34.792978723404254,34.792978723404254 0 0,0 -0.1850783492205248,-0.569612588483584 l 13.154101695438698 -4.149201206297329" fill="#ff960d" stroke="none" /><path d="M 79.58551787078972 104.9243191809786 l -13.043551028514576 3.146325638399734 a34.41765957446809,34.41765957446809 0 0,0 -0.13396571502913482,-0.577120794137007 l 13.095777309474267 -2.9213361869141528" fill="#ff910d" stroke="none" /><path d="M 79.35854240842038 103.8639653848113 l -28.010897131722306 5.243483239218392 a49.49744680851064,49.49744680851064 0 0,0 -0.1495613854822271,-0.8388196764632891 l 28.097004959543725 -4.760544812021889" fill="#adff20" stroke="none" /><path d="M 79.04373962182676 101.35467743843564 l -17.523000699195915 1.132740921925972 a38.5595744680851,38.5595744680851 0 0,0 -0.03711570039161745,-0.6627257634096113 l 17.539902750475065 -0.8309434421809232" fill="#ffc912" stroke="none" /><path d="M 79.0235259727143 100.99374915477108 l -16.84366233595239 0.7979594276821386 a37.86255319148936,37.86255319148936 0 0,0 -0.02523785664232423,-0.6512769380432747 l 16.854902325445916 -0.507905242624867" fill="#ffc011" stroke="none" /><line stroke="#e1ed5e" stroke-width="0.3" x1="15.007084014347285" x2="10.007500721073583" y1="101.09737516637583" y2="101.16192664675087" /><path d="M 14.007167355692545 101.11028546245083 a86.0,86.0 0 0,1 10.666146001902534,-42.60595125391555" fill="none" id="id46" stroke="none" /><text fill="#e1ed5e" style="font-size:6.75px; font-family:Arial;" text-anchor="middle"><textPath startOffset="22.20632615414155" xlink:href="#id46">October</textPath></text><path d="M 79.00175016825051 100.2711162175752 l -17.50449847676479 0.22600709371481925 a38.50595744680851,38.50595744680851 0 0,0 -0.0028525629700134106,-0.6628351737958991 l 17.505795337024306 0.07533755828475512" fill="#ffc812" stroke="none" /><path d="M 79.00486145842228 99.54816195383935 l -22.822162299770326 -0.491157569752075 a43.82744680851064,43.82744680851064 0 0,0 0.022724125337144168,-0.7541030901932405 l 22.810326479977537 0.8839308073703098" fill="#f1ff19" stroke="none" /><path d="M 79.16333360222342 97.38593545837743 l -19.92339974289531 -2.4994906489471904 a41.079574468085106,41.079574468085106 0 0,0 0.09406049035367563,-0.7008599070335152 l 19.877423253483798 2.842068898045365" fill="#ffea16" stroke="none" /><path d="M 79.21141760316559 97.0276538004421 l -17.263369594647816 -2.468312173803085 a38.43893617021277,38.43893617021277 0 0,0 0.09928979760461341,-0.65419570980656 l 17.2183239036039 2.765106996001737" fill="#ffc712" stroke="none" /><path d="M 79.26566170972629 96.67025291283419 l -17.483017583905266 -2.80761440562513 a38.707021276595746,38.707021276595746 0 0,0 0.11130690290432084,-0.656939641663826 l 17.43209881948072 3.108139835604784" fill="#ffcb12" stroke="none" /><path d="M 79.46518482838121 95.60439243477599 l -17.24924474415979 -3.692310354788167 a38.64,38.64 0 0,0 0.14481832791625085,-0.649192168028075 l 17.1831320292415 3.988680692366201" fill="#ffca12" stroke="none" /><path d="M 79.54389044137918 95.25157060432595 l -8.003996910277385 -1.857949289073314 a29.216808510638298,29.216808510638298 0 0,0 0.11793462108394302,-0.4889151425913201 l 7.970829488932628 1.9954496633240308" fill="#ff4706" stroke="none" /><path d="M 79.71946130924805 94.55025226153421 l -16.91914727796562 -4.54648103883497 a38.51936170212766,38.51936170212766 0 0,0 0.17758018105263912,-0.6388503943032545 l 16.83838032634662 4.837042736557167" fill="#ffc812" stroke="none" /><path d="M 79.91906864156998 93.8553929516997 l -16.816711878038422 -5.145781562151066 a38.58638297872341,38.58638297872341 0 0,0 0.19981226429314716,-0.6334594814343585 l 16.72564412997707 5.4344912100118385" fill="#ffc912" stroke="none" /><path d="M 80.14247586403 93.16781622104843 l -16.743695351244494 -5.760839216167037 a38.707021276595746,38.707021276595746 0 0,0 0.2221910555201319,-0.628164034524738 l 16.642051214914552 6.0482008771183855" fill="#ffcb12" stroke="none" /><path d="M 80.38941819471856 92.48833698450439 l -16.310162612094704 -6.247466112249438 a38.46574468085106,38.46574468085106 0 0,0 0.2421628359720258,-0.6162780035856111 l 16.20020622624099 6.527293120730813" fill="#ffc812" stroke="none" /><path d="M 80.52162464483688 92.15188598940014 l -7.521968355238528 -3.0307078572848374 a29.109574468085107,29.109574468085107 0 0,0 0.19126142764604442,-0.46315471776525047 l 7.468685240706283 3.159737145503399" fill="#ff4606" stroke="none" /><path d="M 80.65960295795068 91.81776055985345 l -20.998733213952704 -8.883822949588895 a43.80063829787234,43.80063829787234 0 0,0 0.2997408875345108,-0.6918432948122484 l 20.842701616575514 9.243965388987743" fill="#f2ff19" stroke="none" /><path d="M 81.10775173730289 90.83032412892265 l -16.01419512310325 -7.772763546887684 a38.80085106382978,38.80085106382978 0 0,0 0.296808010109056,-0.5983468369095782 l 15.87802710004078 8.047269972296224" fill="#ffcc13" stroke="none" /><path d="M 81.26839172434947 90.50648371742162 l -15.184559048984788 -7.695807880132686 a38.02340425531915,38.02340425531915 0 0,0 0.3009110050654106,-0.5812642837371372 l 15.049838610759263 7.956044886130159" fill="#ffc212" stroke="none" /><path d="M 81.43458229118936 90.18545643968196 l -13.04714355153224 -6.897327102070318 a35.75808510638298,35.75808510638298 0 0,0 0.2923511238201213,-0.5416822319979193 l 12.926484328493649 7.12089031740071" fill="#ffa30f" stroke="none" /><path d="M 81.6062741919709 89.86733742301443 l -20.006111985243578 -11.020887466712816 a43.84085106382979,43.84085106382979 0 0,0 0.3698129411997171,-0.6578559575574242 l 19.81344140275143 11.363626934205026" fill="#f1ff19" stroke="none" /><line stroke="#e1ed5e" stroke-width="0.3" x1="26.266209847984243" x2="21.928928074336255" y1="57.711370442889674" y2="55.22380399835377" /><path d="M 25.398753493254645 57.213857153982495 a86.0,86.0 0 0,1 29.58750427330803,-30.492523968695096" fill="none" id="id47" stroke="none" /><text fill="#e1ed5e" style="font-size:6.75px; font-family:Arial;" text-anchor="middle"><textPath startOffset="21.46611528233685" xlink:href="#id47">November</textPath></text><path d="M 81.78341655067845 89.55222093294921 l -15.139143607031901 -8.682771284234121 a38.452340425531915,38.452340425531915 0 0,0 0.33424298755497517,-0.5713296121877461 l 14.9874409450066 8.94208030877576" fill="#ffc712" stroke="none" /><path d="M 81.96595687620814 89.24020034530311 l -31.137502116929994 -18.577824297418147 a57.25851063829787,57.25851063829787 0 0,0 0.5122842648855596,-0.8420606353939023 l 30.813102053758218 19.111052706019123" fill="#57ff2a" stroke="none" /><path d="M 82.54541684631803 88.32363383020206 l -6.707016420329707 -4.486705809075547 a29.069361702127658,29.069361702127658 0 0,0 0.281800516246633,-0.41350748523461167 l 6.628791438414334 4.6014913175805745" fill="#ff4506" stroke="none" /><path d="M 82.7489923806493 88.02491185347247 l -6.617780156955177 -4.593847644295559 a29.055957446808513,29.055957446808513 0 0,0 0.28874341136497444,-0.40840707837072227 l 6.537724125786324 4.707081222998068" fill="#ff4506" stroke="none" /><path d="M 82.95767976084542 87.72973835380427 l -6.548602202534718 -4.714913304899892 a29.069361702127658,29.069361702127658 0 0,0 0.29586711552900025,-0.40356241307940777 l 6.466472474492083 4.8269381616508005" fill="#ff4506" stroke="none" /><path d="M 83.17141714833178 87.43820079747576 l -20.548773826749763 -15.338758643252463 a46.64234042553191,46.64234042553191 0 0,0 0.4858000978724527,-0.6392559839527582 l 20.2816977886532 15.690199403086247" fill="#cfff1d" stroke="none" /><path d="M 83.39014120810768 87.1503855733568 l -20.76939151488323 -16.06748595433662 a47.25893617021276,47.25893617021276 0 0,0 0.5032984871399081,-0.6391379679060881 l 20.489738947149352 16.422616316195757" fill="#c7ff1e" stroke="none" /><path d="M 83.6137871275137 86.86637796730984 l -6.296489456959627 -5.046664125752856 a29.069361702127658,29.069361702127658 0 0,0 0.3163044277768064,-0.3877518281978334 l 6.208686537106428 5.154300123558772" fill="#ff4506" stroke="none" /><path d="M 83.84228863543731 86.58626213691792 l -15.006044703471515 -12.457652291990055 a40.5031914893617,40.5031914893617 0 0,0 0.44995069973174867,-0.5325997067259711 l 14.789383390252642 12.71411094834514" fill="#ffe215" stroke="none" /><path d="M 84.31358615837235 86.03803664274999 l -10.343020530894494 -9.205983924280387 a34.846595744680855,34.846595744680855 0 0,0 0.4026546695394607,-0.44462134299675166 l 10.183022220738987 9.382658054546695" fill="#ff970d" stroke="none" /><path d="M 84.5562425177563 85.77008943001954 l -19.80415454159208 -18.24758957558984 a47.92914893617021,47.92914893617021 0 0,0 0.5642691355793444,-0.6019229713083311 l 19.48711808404228 18.585781963776217" fill="#bfff1e" stroke="none" /><path d="M 84.80347519578584 85.50635884689758 l -5.849045398047536 -5.578509967226014 a29.08276595744681,29.08276595744681 0 0,0 0.34862721437370264,-0.35929098960941386 l 5.752153919970715 5.6783651523855525" fill="#ff4506" stroke="none" /><path d="M 85.05521093208273 85.24692304244772 l -24.267793652413758 -23.956485817029588 a55.100425531914894,55.100425531914894 0 0,0 0.6721312579439773,-0.6692449127197556 l 23.851826594302466 24.370666580399455" fill="#6eff28" stroke="none" /><path d="M 85.31137513191541 84.99185889309783 l -12.179057683175667 -12.44398423268038 a38.412127659574466,38.412127659574466 0 0,0 0.47652394780084256,-0.4584156602349766 l 11.963050491762397 12.651782979677671" fill="#ffc712" stroke="none" /><path d="M 85.83668400450813 84.49514656593479 l -9.989657984054373 -10.935870028494934 a35.81170212765957,35.81170212765957 0 0,0 0.458712113706019,-0.411836264832815 l 9.799934882752382 11.106205302097027" fill="#ffa40f" stroke="none" /><path d="M 86.10567301691215 84.25364557470407 l -16.016907147738287 -18.151861335373066 a45.20808510638298,45.20808510638298 0 0,0 0.5879337330408395,-0.5098503396978026 l 15.702079616050675 18.424876668490548" fill="#e0ff1b" stroke="none" /><path d="M 86.65592168130627 83.78471172551755 l -16.736881210361602 -20.338111569802987 a47.33936170212766,47.33936170212766 0 0,0 0.6336635089806634,-0.5123784892524462 l 16.38431430281644 20.623196156319565" fill="#c6ff1e" stroke="none" /><path d="M 86.93701828274178 83.55741782278169 l -12.557138595440998 -15.805869420568584 a41.1868085106383,41.1868085106383 0 0,0 0.5588999801149818,-0.4362302996043281 l 12.28320606016659 16.019678109396136" fill="#ffeb16" stroke="none" /><path d="M 87.51073957382395 83.11751280151077 l -4.799064750994454 -6.48718550648331 a29.069361702127658,29.069361702127658 0 0,0 0.40483195144729706,-0.2941276294218636 l 4.686687483193375 6.568832370721841" fill="#ff4506" stroke="none" /><path d="M 87.80319425747018 82.90503203632743 l -5.34842907135191 -7.496325313431737 a30.20872340425532,30.20872340425532 0 0,0 0.42589820537763257,-0.29836891022829454 l 5.218599726390616 7.587279066423974" fill="#ff5607" stroke="none" /><path d="M 88.09926311788651 82.69761687909137 l -4.572921448744032 -6.648532748161909 a29.069361702127658,29.069361702127658 0 0,0 0.41471639535979865,-0.2800183614010388 l 4.457800358977694 6.726263021861613" fill="#ff4506" stroke="none" /><path d="M 88.39885842347998 82.49532879139004 l -4.916909366048486 -7.419001073947028 a29.90042553191489,29.90042553191489 0 0,0 0.4314673752024575,-0.2806383828775301 l 4.7884749650617415 7.502538380984093" fill="#ff5107" stroke="none" /><path d="M 89.00827224532344 82.1063720568725 l -14.747624515104334 -24.00791868284298 a49.17574468085107,49.17574468085107 0 0,0 0.7250798083422454,-0.4368524715528589 l 14.332182640544438 24.258217763854457" fill="#b1ff20" stroke="none" /><line stroke="#e1ed5e" stroke-width="0.3" x1="56.762969772571076" x2="54.21961505331055" y1="26.818313649435495" y2="22.513508569990535" /><path d="M 56.25429882871897 25.957352633546506 a86.0,86.0 0 0,1 42.265352541879196,-11.944610805530505" fill="none" id="id48" stroke="none" /><text fill="#e1ed5e" style="font-size:6.75px; font-family:Arial;" text-anchor="middle"><textPath startOffset="22.20632615414155" xlink:href="#id48">December</textPath></text><path d="M 89.3179101791058 81.91981866633112 l -10.411628397769439 -17.622406529688753 a41.46829787234043,41.46829787234043 0 0,0 0.6176866225509285,-0.3578039606942494 l 10.10674504275319 17.79901464777305" fill="#ffef16" stroke="none" /><path d="M 90.26544431104013 81.39251694778311 l -6.586358955509023 -12.589743852351006 a35.208510638297874,35.208510638297874 0 0,0 0.5394270974043707,-0.2763155107526509 l 6.368671370515888 12.701251888416163" fill="#ff9c0e" stroke="none" /><path d="M 90.58718382345135 81.22770947309562 l -7.912773768839078 -15.780706355701964 a38.653404255319145,38.653404255319145 0 0,0 0.5973400147005967,-0.29311215099438054 l 7.639962487128056 15.914573666831174" fill="#ffca12" stroke="none" /><path d="M 91.23893434514133 80.91482961587045 l -17.22388226614769 -37.52063284028874 a62.285106382978725,62.285106382978725 0 0,0 0.9782258018240777,-0.43890140268076316 l 16.57547434585684 37.81155457348603" fill="#31ff3f" stroke="none" /><path d="M 91.56875222667455 80.76684994638697 l -3.239751803962927 -7.39044021209045 a29.069361702127658,29.069361702127658 0 0,0 0.460010525918352,-0.19695250022853472 l 3.112057520254267 7.44511224028177" fill="#ff4506" stroke="none" /><path d="M 91.90106846888425 80.62456947434976 l -9.325833499233717 -22.31060212868491 a45.18127659574468,45.18127659574468 0 0,0 0.7201381937707013,-0.2937624508322701 l 8.940411435874635 22.467825465700756" fill="#e1ff1b" stroke="none" /><path d="M 92.57280143429618 80.3572730644239 l -6.172476084604063 -16.32435987454474 a38.452340425531915,38.452340425531915 0 0,0 0.6211292137023973,-0.22876713133165738 l 5.890564545129096 16.42819027368272" fill="#ffc712" stroke="none" /><path d="M 92.91201910852362 80.23233633223022 l -9.519007529148707 -26.547551717226142 a49.20255319148936,49.20255319148936 0 0,0 0.7997008023947025,-0.2789999074186437 l 9.060624722690719 26.707472477816996" fill="#b0ff20" stroke="none" /></svg>