<?xml version="1.0" encoding="utf-8" ?>
<svg baseProfile="full" height="200mm" version="1.1" viewBox="0,0,200,200" width="200mm" xmlns="http://www.w3.org/2000/svg" xmlns:ev="http://www.w3.org/2001/xml-events" xmlns:xlink="http://www.w3.org/1999/xlink"><defs /><rect fill="#1a1a1a" height="200" width="200" x="0" y="0" /><text alignment-baseline="middle" fill="#e1ed5e" style="dominant-baseline: central; font-size:9.0px; font-family:Arial;" text-anchor="middle" x="100.0" y="100.0">2022</text><line stroke="#e1ed5e" stroke-width="0.3" x1="100.0" x2="100.0" y1="15.0" y2="10.0" /><path d="M 100.0 14.0 a86.0,86.0 0 0,1 42.46469731375804,11.215312516191453" fill="none" id="id1" stroke="none" /><text fill="#e1ed5e" style="font-size:6.75px; font-family:Arial;" text-anchor="middle"><textPath startOffset="22.20632615414155" xlink:href="#id1">January</textPath></text><line stroke="#e1ed5e" stroke-width="0.3" x1="143.23703022742887" x2="145.7803849466894" y1="26.81831364943548" y2="22.513508569990506" /><path d="M 143.74570117128098 25.957352633546492 a86.0,86.0 0 0,1 28.547481713284135,27.462654790039103" fill="none" id="id2" stroke="none" /><text fill="#e1ed5e" style="font-size:6.75px; font-family:Arial;" text-anchor="middle"><textPath startOffset="19.985693538727396" xlink:href="#id2">February</textPath></text><line stroke="#e1ed5e" stroke-width="0.3" x1="172.23445277983987" x2="176.4835382374775" y1="55.19839476539836" y2="52.563006222186495" /><path d="M 173.08426987136738 54.67131705675599 a86.0,86.0 0 0,1 12.851231095245387,41.99856678651699" fill="none" id="id3" stroke="none" /><text fill="#e1ed5e" style="font-size:6.75px; font-family:Arial;" text-anchor="middle"><textPath startOffset="22.20632615414155" xlink:href="#id3">March</textPath></text><path d="M 120.28053869075195 94.5502522615342 l 16.50841586496146 -4.43611007565356 a38.0940594059406,38.0940594059406 0 0,0 0.16471811085761925,0.6347260738806215 l -16.582330307689382 4.151287576224089" fill="#ff6a09" stroke="none" /><path d="M 120.37134235888165 94.90015583598534 l 18.512853558106734 -4.63458256772194 a40.084158415841586,40.084158415841586 0 0,0 0.16180104108631424,0.6707697735157446 l -18.58988739945387 4.315227562546789" fill="#ff8a0c" stroke="none" /><path d="M 120.53481517161879 95.60439243477599 l 20.865928174386053 -4.466484405738238 a42.338613861386136,42.338613861386136 0 0,0 0.14641237850461586,0.713958754886383 l -20.939719848805666 4.106649994688443" fill="#ffad10" stroke="none" /><path d="M 120.67395015179393 96.31383870115 l 14.422054052142531 -2.571449437896487 a35.64950495049505,35.64950495049505 0 0,0 0.10251463055647571,0.6050471525648251 l -14.46418054421923 2.322816497015824" fill="#ff4106" stroke="none" /><path d="M 120.78858239683441 97.02765380044208 l 11.111747224559727 -1.5887547790847742 a32.22475247524753,32.22475247524753 0 0,0 0.07378547754194274,0.5497875115898807 l -11.137448701159505 1.3972489254302292" fill="#ff0701" stroke="none" /><path d="M 120.83666639777658 97.38593545837742 l 20.29438257639173 -2.5460323102705895 a41.45346534653466,41.45346534653466 0 0,0 0.08272857616434416,0.7087679190860475 l -20.335201505559663 2.196320652859689" fill="#ff9f0e" stroke="none" /><path d="M 120.91429891909075 98.10471618934814 l 11.217400495218131 -1.0165369462506184 a32.263366336633666,32.263366336633666 0 0,0 0.0453615497528498,0.5535258035769753 l -11.233236528790474 0.8232972254658742" fill="#ff0801" stroke="none" /><path d="M 120.96714384426684 98.82574320788733 l 11.230915663117193 -0.6289830935969838 a32.24851485148515,32.24851485148515 0 0,0 0.026269320425591058,0.5545038352749776 l -11.24007859177628 0.4355681516990064" fill="#ff0801" stroke="none" /><line stroke="#e1ed5e" stroke-width="0.3" x1="184.98032266829074" x2="189.97916517819016" y1="98.17113171792111" y2="98.06355123074" /><path d="M 185.9800911702706 98.14961562048488 a86.0,86.0 0 0,1 -9.607161424134198,41.387399972396054" fill="none" id="id4" stroke="none" /><text fill="#e1ed5e" style="font-size:6.75px; font-family:Arial;" text-anchor="middle"><textPath startOffset="21.466115282336823" xlink:href="#id4">April</textPath></text><path d="M 120.99513854157772 99.54816195383933 l 10.797499821382821 -0.23237385231120036 a31.8,31.8 0 0,0 0.007067160650316451,0.5473593806512993 l -10.799899989150854 0.04647821359943832" fill="#ff0000" stroke="none" /><path d="M 120.99980553446 99.90962569577887 l 37.86356422164475 -0.16294880760909922 a58.86391485148515,58.86391485148515 0 0,0 -0.004360702470710442,1.0132736806970113 l -37.860759221884535 -0.4888343512915969" fill="#6bff28" stroke="none" /><path d="M 120.9764740272857 100.99374915477107 l 21.00973790860247 0.9953250132256329 a42.03330118811881,42.03330118811881 0 0,0 -0.04045935244073483,0.7224289168849493 l -20.989492205274207 -1.3568256464460056" fill="#ffa80f" stroke="none" /><path d="M 120.95626037817324 101.35467743843564 l 12.90870069970926 0.8344583089656602 a33.93564356435644,33.93564356435644 0 0,0 -0.04269983271003424,0.5826052921533805 l -12.892424308334888 -1.056536737615811" fill="#ff2503" stroke="none" /><path d="M 120.89721153311464 102.0752229133903 l 13.088229208603076 1.29974246115836 a34.15260712871287,34.15260712871287 0 0,0 -0.06312979078454298,0.5845034580610999 l -13.063917116317482 -1.5248422411042513" fill="#ff2803" stroke="none" /><path d="M 120.8583938346157 102.4346265915055 l 27.381536402327963 3.196018694917502 a48.56742772277228,48.56742772277228 0 0,0 -0.10406956891845431,0.829536859242314 l -27.322465324162664 -3.666873308447211" fill="#f5ff19" stroke="none" /><path d="M 120.76222939487914 103.15116336523771 l 23.08350625554866 3.50347247736609 a44.3478602970297,44.3478602970297 0 0,0 -0.12104483571697203,0.7537463075559034 l -23.0197796654704 -3.9002980146151986" fill="#ffcb13" stroke="none" /><path d="M 120.64145759157962 103.86396538481128 l 15.457313183489045 2.8935225537344453 a36.72580693069307,36.72580693069307 0 0,0 -0.12166746903291123,0.6203798033817284 l -15.40521578148047 -3.1591660841841187" fill="#ff5307" stroke="none" /><path d="M 120.49622156327973 104.57218783832717 l 15.556800310921213 3.470328078044864 a36.939172277227726,36.939172277227726 0 0,0 -0.1437803350921146,0.6194019204958509 l -15.494759409898545 -3.73759865588928" fill="#ff5708" stroke="none" /><path d="M 120.41448212921028 104.9243191809786 l 39.11365977548207 9.434877840720832 a61.23549801980198,61.23549801980198 0 0,0 -0.2559897090307533,1.0225516379133543 l -38.945458752156256 -10.106757318031582" fill="#4eff2b" stroke="none" /><path d="M 120.23288151984713 105.62410040840565 l 23.95321334103543 6.658234854081382 a45.86138613861387,45.86138613861387 0 0,0 -0.2179668580592115,0.7587712274694844 l -23.835053846090116 -7.069563557055448" fill="#ffe215" stroke="none" /><path d="M 120.02730092923936 106.31721596034902 l 22.010202011342265 6.9426828871162485 a44.07920792079208,44.07920792079208 0 0,0 -0.23447567113421425,0.7216419129178951 l -21.887434089191803 -7.320523700011939" fill="#ffc712" stroke="none" /><path d="M 119.79798401119884 107.00284435728193 l 16.46565006871982 5.824147782293876 a38.46534653465346,38.46534653465346 0 0,0 -0.22616843281220844,0.6223183916224331 l -16.362957374902386 -6.10671397092244" fill="#ff700a" stroke="none" /><path d="M 119.67450827220406 107.3425965602758 l 34.367776119055186 12.826176452532678 a57.68316831683168,57.68316831683168 0 0,0 -0.3551792206922346,0.9272608673409259 l -34.14190261876944 -13.415860886706747" fill="#7aff26" stroke="none" /><path d="M 119.41010516605496 108.01547362559984 l 14.90761966784702 6.156155839746408 a37.12871287128713,37.12871287128713 0 0,0 -0.24902584654825155,0.5886235401941947 l -14.79944284010646 -6.411853905606765" fill="#ff5a08" stroke="none" /><path d="M 119.12269723197855 108.67885076344098 l 15.11964321453466 6.862061636157723 a37.603960396039604,37.603960396039604 0 0,0 -0.2725846323631874,0.5871230478429992 l -14.999283965331642 -7.121304751279553" fill="#ff6209" stroke="none" /><path d="M 118.81262510543309 109.33194174019688 l 13.943162030052243 6.916460356242097 a36.56435643564356,36.56435643564356 0 0,0 -0.2845426555772317,0.5614296540226071 l -13.822040704688742 -7.155444221967398" fill="#ff5107" stroke="none" /><path d="M 118.64920377521936 109.65438752849418 l 27.353924066340134 14.160678736985105 a51.801980198019805,51.801980198019805 0 0,0 -0.4167530773066287,0.7883397647663108 l -27.106118480808615 -14.62943351683755" fill="#c7ff1e" stroke="none" /><line stroke="#e1ed5e" stroke-width="0.3" x1="174.80103733775053" x2="179.2010983576182" y1="140.37084112569926" y2="142.7455964860345" /><path d="M 175.68104954172406 140.8457921977663 a86.0,86.0 0 0,1 -30.038265399797805,32.042727171017184" fill="none" id="id5" stroke="none" /><text fill="#e1ed5e" style="font-size:6.75px; font-family:Arial;" text-anchor="middle"><textPath startOffset="22.206326154141568" xlink:href="#id5">May</textPath></text><path d="M 118.30583269289576 110.29060199501025 l 14.836268929320042 8.340190867243097 a38.01980198019802,38.01980198019802 0 0,0 -0.3256088329914486,0.5677264459708015 l -14.690508100176213 -8.594337159072213" fill="#ff6809" stroke="none" /><path d="M 117.94076556474637 110.91462005526583 l 53.59391353994954 32.60491875066679 a83.73267326732673,83.73267326732673 0 0,0 -0.7597159558359443,1.224904019634079 l -53.02473294444564 -33.522619101666145" fill="#4dd5ff" stroke="none" /><path d="M 117.55443506779139 111.5257021239791 l 13.83001461493607 9.080362210829364 a37.54455445544555,37.54455445544555 0 0,0 -0.3593494692515539,0.5371786993548234 l -13.671662040273795 -9.317077824389994" fill="#ff6108" stroke="none" /><path d="M 117.35343817320211 111.8261652097733 l 14.334381744200888 9.768713553758985 a38.34653465346535,38.34653465346535 0 0,0 -0.37641523175909786,0.5422542157235611 l -14.164105605279653 -10.014009031669566" fill="#ff6e0a" stroke="none" /><path d="M 117.14729908036423 112.12312394758627 l 12.61187485401613 8.916583384363312 a36.445544554455445,36.445544554455445 0 0,0 -0.366573118465538,0.5091380001576549 l -12.456521943174987 -9.132354989972097" fill="#ff4f07" stroke="none" /><path d="M 116.93607887273984 112.41649034213515 l 15.067600581263592 11.046637093639326 a39.68316831683168,39.68316831683168 0 0,0 -0.4086208595408162,0.5474144172214359 l -14.875218455027683 -11.304364390370077" fill="#ff830c" stroke="none" /><path d="M 116.498646956653 112.99209946851258 l 14.84178142069492 11.687376608166897 a39.89108910891089,39.89108910891089 0 0,0 -0.42946003410230715,0.5358174250415981 l -14.638403474537759 -11.941121866786744" fill="#ff860c" stroke="none" /><path d="M 116.0416608686014 113.55231037782055 l 13.27351005393468 11.213722165523372 a38.37623762376238,38.37623762376238 0 0,0 -0.43064989764434775,0.5009431228901073 l -13.078517646719554 -11.440542387575007" fill="#ff6e0a" stroke="none" /><path d="M 115.80600337817218 113.82643327865902 l 27.31957019536973 23.89802187626779 a57.2970297029703,57.2970297029703 0 0,0 -0.6557540014545339,0.736746572234609 l -26.90415734426686 -24.364742618243266" fill="#7fff26" stroke="none" /><path d="M 115.32070863581623 114.36230785411682 l 13.045355868120753 12.229291836178678 a38.88118811881188,38.88118811881188 0 0,0 -0.46193341477360034,0.484335338604665 l -12.832915901968189 -12.45203429136585" fill="#ff760a" stroke="none" /><path d="M 114.81725581225074 114.88116024355365 l 11.673566460288066 11.723912667127845 a37.54455445544555,37.54455445544555 0 0,0 -0.4618874967425688,0.45205412999415706 l -11.470029011169704 -11.923116900044574" fill="#ff6108" stroke="none" /><path d="M 114.29624159901734 115.38237550388516 l 13.345854958064276 14.3597847702464 a40.603960396039604,40.603960396039604 0 0,0 -0.516057872530123,0.471406630942208 l -13.096697536067289 -14.58738416777519" fill="#ff920d" stroke="none" /><path d="M 114.0293411484842 115.62618273729858 l 12.779201838223234 14.233750612192761 a40.12871287128713,40.12871287128713 0 0,0 -0.5179616424656294,0.45704092710839855 l -12.532297842851017 -14.451614681073448" fill="#ff8a0c" stroke="none" /><path d="M 113.48314897796784 116.09983520530334 l 11.804906955250486 14.095895321192035 a39.38613861386139,39.38613861386139 0 0,0 -0.523516562305148,0.43081848995103467 l -11.560520264400648 -14.29700893000025" fill="#ff7e0b" stroke="none" /><path d="M 112.92097659922987 116.55440617244103 l 9.887197086539416 12.667515897157854 a37.069306930693074,37.069306930693074 0 0,0 -0.5063866291939461,0.38827567383230616 l -9.667681728851976 -12.835830912817531" fill="#ff5908" stroke="none" /><path d="M 112.63410532772338 116.77436683061366 l 10.40035261772985 13.8086018322732 a38.28712871287129,38.28712871287129 0 0,0 -0.5298483354037774,0.3919691316470123 l -10.161119311907507 -13.98558091265998" fill="#ff6d0a" stroke="none" /><path d="M 112.34349029814194 116.9893568818739 l 10.510298669705014 14.466185067734203 a38.88118811881188,38.88118811881188 0 0,0 -0.54484148210157,0.3887299310409009 l -10.25972985975456 -14.644959260619324" fill="#ff760a" stroke="none" /><path d="M 112.04921762599082 117.19931262002967 l 17.093868852713996 24.400156376081704 a50.79207920792079,50.79207920792079 0 0,0 -0.720384338465162,0.49548691681144136 l -16.671327629625953 -24.69078408225824" fill="#d5ff1c" stroke="none" /><path d="M 111.45004920935366 117.60387380957326 l 19.515288963608448 30.003773607547075 a56.79207920792079,56.79207920792079 0 0,0 -0.8240752397259815,0.5259638077636174 l -18.995931921835535 -30.3352518441345" fill="#85ff25" stroke="none" /><path d="M 111.1453310114006 117.79835938074945 l 9.064448842369654 14.47532764346667 a38.07920792079208,38.07920792079208 0 0,0 -0.5585327661764925,0.343096443459716 l -8.813936876260852 -14.629212553754764" fill="#ff6909" stroke="none" /><line stroke="#e1ed5e" stroke-width="0.3" x1="143.8653032363475" x2="146.44561519142675" y1="172.8068346515853" y2="177.08958963109032" /><path d="M 144.38136562736335 173.6633856474863 a86.0,86.0 0 0,1 -40.68145358897372,12.25698825130547" fill="none" id="id6" stroke="none" /><text fill="#e1ed5e" style="font-size:6.75px; font-family:Arial;" text-anchor="middle"><textPath startOffset="21.466115282336833" xlink:href="#id6">June</textPath></text><path d="M 110.8373102113329 117.98757091392108 l 9.028537078465463 14.985402076802705 a38.495049504950494,38.495049504950494 0 0,0 -0.5705188672520747,0.33707260298062325 l -8.769250340185007 -15.138593252077078" fill="#ff700a" stroke="none" /><path d="M 110.5260780823613 118.17145234162733 l 8.97768752993474 15.498423991515248 a38.910891089108915,38.910891089108915 0 0,0 -0.582461266383634,0.33073670835790203 l -8.709577496629906 -15.650663865667779" fill="#ff770a" stroke="none" /><path d="M 110.21172684928248 118.3499491758327 l 10.08173315530294 18.116357177837656 a41.73267326732673,41.73267326732673 0 0,0 -0.630714214037551,0.3439156779031435 l -9.76839612939674 -18.287213507500567" fill="#ffa30f" stroke="none" /><path d="M 109.89434966115114 118.52300852407294 l 8.578834996160747 16.060260573206087 a39.20792079207921,39.20792079207921 0 0,0 -0.5980311296535018,0.31286162233801107 l -8.30111296398075 -16.205551614488815" fill="#ff7c0b" stroke="none" /><path d="M 109.57404056367764 118.69057910512821 l 8.17923691720126 15.967623450491425 a38.94059405940594,38.94059405940594 0 0,0 -0.5992143239432829,0.30045850151047376 l -7.903168685575217 -16.1060497929112" fill="#ff770b" stroke="none" /><path d="M 109.2508944713604 118.85261126421891 l 10.50702724257765 21.4125132180591 a44.851485148514854,44.851485148514854 0 0,0 -0.6960252776798425,0.3341344306727925 l -10.136889296897575 -21.590201925231455" fill="#ffd313" stroke="none" /><path d="M 108.92500713936063 119.00905698771935 l 7.612134802028939 16.212816638747906 a38.910891089108915,38.910891089108915 0 0,0 -0.6087368112371719,0.2794412133838226 l -7.331929995024348 -16.341444922465804" fill="#ff770a" stroke="none" /><path d="M 108.59647513512805 119.15986991738527 l 7.854770774105685 17.50675525690366 a40.18811881188119,40.18811881188119 0 0,0 -0.6335931077624599,0.27774859885799574 l -7.552256991685471 -17.63936840905611" fill="#ff8b0c" stroke="none" /><path d="M 108.2653958097858 119.30500536409082 l 6.33641376082589 14.799593928341192 a37.0990099009901,37.0990099009901 0 0,0 -0.5892180298269746,0.24629318425467253 l -6.080724271501453 -14.906472155615837" fill="#ff5908" stroke="none" /><path d="M 107.93186726928326 119.44442032107085 l 6.585581452714676 16.144094382558116 a38.43564356435644,38.43564356435644 0 0,0 -0.6147486953349719,0.24462119284094322 l -6.3067116813378385 -16.255062419805128" fill="#ff6f0a" stroke="none" /><path d="M 107.59598834532513 119.57807347666477 l 11.356378615288063 29.270189059172093 a52.396039603960396,52.396039603960396 0 0,0 -0.8436505383010966,0.3189964452785051 l -10.850857856226693 -29.461333754557227" fill="#bfff1e" stroke="none" /><path d="M 106.91757812671514 119.82793768551818 l 10.146433546539745 29.082844950328656 a51.801980198019805,51.801980198019805 0 0,0 -0.8444469388366,0.28648225014098083 l -9.644316874765916 -29.25319018736776" fill="#c7ff1e" stroke="none" /><path d="M 106.57524785965236 119.94407469862006 l 5.784730083032208 17.54627222424566 a39.475247524752476,39.475247524752476 0 0,0 -0.6471659580963794,0.2072021029550919 l -5.4818427798448885 -17.643247173860455" fill="#ff800b" stroke="none" /><path d="M 106.2309692047433 120.05430185196036 l 6.371981237665361 20.50814743842622 a42.475247524752476,42.475247524752476 0 0,0 -0.7000831492934207,0.21092931001246454 l -6.018023113931695 -20.61479211754441" fill="#ffaf10" stroke="none" /><path d="M 105.53697534728816 120.25689768951611 l 4.769473814000689 17.44901088106833 a39.089108910891085,39.089108910891085 0 0,0 -0.6505722450637473,0.17182204288045755 l -4.468411126125444 -17.528524273252373" fill="#ff7a0b" stroke="none" /><path d="M 105.18746579009965 120.34920634021253 l 9.06889351706248 35.575133007783144 a57.71287128712871,57.71287128712871 0 0,0 -0.9647578044468752,0.23711399589227697 l -8.455182427872394 -35.72596826198945" fill="#7aff26" stroke="none" /><path d="M 104.48393922423573 120.51570834832081 l 7.959467788424099 36.417558666396914 a58.277227722772274,58.277227722772274 0 0,0 -0.9818562272638759,0.20575751883242743 l -7.331420099730845 -36.54917216595588" fill="#73ff27" stroke="none" /><path d="M 104.13013068566511 120.58985236759428 l 3.3531754081637493 16.71651380339337 a38.04950495049505,38.04950495049505 0 0,0 -0.6432765003304762,0.12328547229931022 l -3.0649312932615684 -16.771756474041148" fill="#ff6909" stroke="none" /><path d="M 103.7750983002368 120.6578951692458 l 6.50897429701368 35.61806819138704 a57.20792079207921,57.20792079207921 0 0,0 -0.9702218966687861,0.16868551310967764 l -5.894903428872844 -35.72483228301772" fill="#80ff25" stroke="none" /><path d="M 103.41894727170886 120.7198165907248 l 2.514642972119671 15.239469062485 a36.445544554455445,36.445544554455445 0 0,0 -0.6198591164813996,0.09680924594780936 l -2.2519479920297543 -15.280496615779915" fill="#ff4f07" stroke="none" /><path d="M 103.06178313531738 120.77559828337769 l 2.299585353399615 15.603737890344492 a36.772277227722775,36.772277227722775 0 0,0 -0.6270048148666251,0.08689715405962944 l -2.030651947346159 -15.641009609896724" fill="#ff5407" stroke="none" /><path d="M 102.70371172650421 120.8252237178851 l 3.828027493961403 29.485217739183838 a50.73267326732673,50.73267326732673 0 0,0 -0.8669792948065663,0.1049791187229146 l -3.3199207761034564 -29.546742386632104" fill="#d6ff1c" stroke="none" /><path d="M 101.98527174616119 120.90594882070398 l 3.7037813765015706 39.002753174693844 a60.17821782178218,60.17821782178218 0 0,0 -1.032072718890575,0.08905157692139735 l -3.031864339869454 -39.060729003893904" fill="#5bff2a" stroke="none" /><path d="M 101.62511606390274 120.93702456842531 l 1.3308942022626336 17.14644586296783 a38.198019801980195,38.198019801980195 0 0,0 -0.6559823050046613,0.04524038041309375 l -1.035549136479042 -17.16681458789721" fill="#ff6b09" stroke="none" /><path d="M 101.26447882468166 120.96189622390904 l 2.4377434767200943 40.41168960846961 a61.48514851485149,61.48514851485149 0 0,0 -1.0569939156776482,0.05463451202580209 l -1.7417614926289664 -40.44766392725761" fill="#4cff2c" stroke="none" /><path d="M 100.90346689309514 120.98055641714683 l 0.6657797048126863 15.460919226780055 a36.475247524752476,36.475247524752476 0 0,0 -0.6275125999201231,0.02161280273374375 l -0.39954675321791094 -15.470088827939891" fill="#ff4f07" stroke="none" /><line stroke="#e1ed5e" stroke-width="0.3" x1="102.19456741930631" x2="102.32365962044197" y1="184.97166512339345" y2="189.96999836594603" /><path d="M 102.22038585953345 185.97133177190398 a86.0,86.0 0 0,1 -42.740103519485714,-10.115201625700543" fill="none" id="id7" stroke="none" /><text fill="#e1ed5e" style="font-size:6.75px; font-family:Arial;" text-anchor="middle"><textPath startOffset="22.20632615414155" xlink:href="#id7">July</textPath></text><path d="M 100.54218724476979 120.99299961872073 l 0.47010011463067064 18.201851154562675 a39.20792079207921,39.20792079207921 0 0,0 -0.6748249071310867,0.01161772276026768 l -0.156715517606916 -18.207246354602102" fill="#ff7c0b" stroke="none" /><path d="M 99.45781275523022 120.99299961872073 l -0.5115118702424941 19.805276868015177 a40.81188118811881,40.81188118811881 0 0,0 -0.7021191468161817,-0.0241824030587654 l 0.8523513687333188 -19.79353766653032" fill="#ff950d" stroke="none" /><path d="M 99.09653310690486 120.98055641714683 l -0.7718444178634551 17.923983134309314 a38.94059405940594,38.94059405940594 0 0,0 -0.6694294799291598,-0.034601857616341325 l 1.080261966206104 -17.90804146993077" fill="#ff770b" stroke="none" /><path d="M 98.73552117531835 120.96189622390904 l -2.0746752993362265 34.39292732635711 a55.45544554455446,55.45544554455446 0 0,0 -0.9523475609982145,-0.06567946363238417 l 2.666385621113371 -34.35211951820844" fill="#97ff23" stroke="none" /><path d="M 98.37488393609728 120.93702456842531 l -1.1952763129128903 15.399225990921025 a36.445544554455445,36.445544554455445 0 0,0 -0.625050950680521,-0.0539320261019519 l 1.460171581334953 -15.37636971254041" fill="#ff4f07" stroke="none" /><path d="M 98.01472825383883 120.90594882070398 l -1.600572694924852 16.854866800284675 a37.930693069306926,37.930693069306926 0 0,0 -0.6494590864705194,-0.06731908979065564 l 1.8904643780009647 -16.82481834203826" fill="#ff6709" stroke="none" /><path d="M 97.65516085044442 120.86867818915974 l -3.8406276310966976 34.180946736982996 a55.396039603960396,55.396039603960396 0 0,0 -0.9466723564485982,-0.11462883865236899 l 4.428427410596686 -34.10977236960528" fill="#97ff23" stroke="none" /><path d="M 96.93821686468263 120.77559828337769 l -5.006253613050737 33.96971939969535 a55.336633663366335,55.336633663366335 0 0,0 -0.9411552844375284,-0.14698909959312864 l 5.590244761096783 -33.878511992755115" fill="#98ff23" stroke="none" /><path d="M 96.58105272829116 120.7198165907248 l -2.5194788239891213 15.268775733759012 a36.475247524752476,36.475247524752476 0 0,0 -0.6186046153215313,-0.10755234169194401 l 2.7819324107827024 -15.223144813546062" fill="#ff4f07" stroke="none" /><path d="M 96.22490169976321 120.6578951692458 l -6.578389117244317 35.997916334527346 a57.59405940594059,57.59405940594059 0 0,0 -0.9737026808281234,-0.1866124362126171 l 7.197059412644135 -35.879346699966256" fill="#7bff26" stroke="none" /><path d="M 95.86986931433489 120.58985236759428 l -3.0552451889714964 15.231248639677238 a36.53465346534654,36.53465346534654 0 0,0 -0.6155367785599071,-0.1289917166992282 l 3.3169734289607904 -15.176400942251469" fill="#ff5007" stroke="none" /><path d="M 95.51606077576429 120.51570834832081 l -7.096927852786088 32.47111406191088 a54.23762376237624,54.23762376237624 0 0,0 -0.9103652152880237,-0.2071961591048713 l 7.654813217466974 -32.34414116922832" fill="#a7ff21" stroke="none" /><path d="M 95.16358092515715 120.4354850818985 l -7.080189168970794 29.916162743656226 a51.742574257425744,51.742574257425744 0 0,0 -0.8649552729523724,-0.21258496183445522 l 7.5940977266663765 -29.78985652350774" fill="#c8ff1d" stroke="none" /><path d="M 94.46302465271185 120.25689768951611 l -9.750402132070366 35.67162322977025 a57.98019801980198,57.98019801980198 0 0,0 -0.9604525599148426,-0.27143348713324794 l 10.362985860089823 -35.498500949298474" fill="#76ff27" stroke="none" /><path d="M 94.11515582081647 120.15858648285463 l -5.052475837007648 17.307301266043513 a39.02970297029703,39.02970297029703 0 0,0 -0.6432931875325558,-0.1938189603890758 l 5.34964399898045 -17.217766936548713" fill="#ff790b" stroke="none" /><path d="M 93.76903079525671 120.05430185196036 l -10.954872307632124 35.258128998566804 a57.92079207920792,57.92079207920792 0 0,0 -0.9495663042046198,-0.3040211442907669 l 11.560159956927684 -35.06433500761633" fill="#77ff27" stroke="none" /><path d="M 93.42475214034765 119.94407469862007 l -4.8640093784981335 14.753537577621353 a36.53465346534654,36.53465346534654 0 0,0 -0.5955675084684756,-0.20204883467511836 l 5.117246619903835 -14.667625756048112" fill="#ff5007" stroke="none" /><path d="M 93.08242187328487 119.8279376855182 l -9.882254466735894 28.325625265025987 a51.0,51.0 0 0,0 -0.8263953527563781,-0.2963159717601025 l 10.368369380122 -28.151321752225925" fill="#d2ff1c" stroke="none" /><path d="M 92.7421414339146 119.70592522655815 l -12.421511831631305 33.72584091108254 a56.94059405940594,56.94059405940594 0 0,0 -0.9168243094802512,-0.34666450430775686 l 13.000206361871838 -33.507028156668156" fill="#84ff25" stroke="none" /><path d="M 92.06813273071674 119.44442032107085 l -12.632648578801907 30.96805838971114 a54.445544554455445,54.445544554455445 0 0,0 -0.8647210958149245,-0.3614534881815971 l 13.163841134114294 -30.74601985850957" fill="#a4ff21" stroke="none" /><path d="M 91.7346041902142 119.30500536409082 l -6.1025977548913515 14.253483451280635 a36.504950495049506,36.504950495049506 0 0,0 -0.5755254467406414,-0.2522934427172818 l 6.347043876289736 -14.146325455268903" fill="#ff5007" stroke="none" /><path d="M 91.40352486487194 119.15986991738527 l -14.955678099303402 33.33329561298994 a57.53465346534654,57.53465346534654 0 0,0 -0.9000940483712992,-0.4131890307820339 l 15.52724014344212 -33.07091951187383" fill="#7cff26" stroke="none" /><path d="M 91.07499286063937 119.00905698771935 l -6.5769854591328 14.008088671289647 a36.475247524752476,36.475247524752476 0 0,0 -0.5660390999939219,-0.27173316613654513 l 6.817137227126964 -13.89280122865354" fill="#ff4f07" stroke="none" /><path d="M 90.7491055286396 118.85261126421891 l -6.856391376227501 13.972798164711042 a36.56435643564356,36.56435643564356 0 0,0 -0.5626489952510917,-0.2821238866204372 l 7.095894279161354 -13.852706437181302" fill="#ff5107" stroke="none" /><line stroke="#e1ed5e" stroke-width="0.3" x1="58.666819895761336" x2="56.23545636021788" y1="174.27360380694188" y2="178.64263932499728" /><path d="M 58.180547188652646 175.14741091055294 a86.0,86.0 0 0,1 -31.652253787137756,-30.449443065178592" fill="none" id="id8" stroke="none" /><text fill="#e1ed5e" style="font-size:6.75px; font-family:Arial;" text-anchor="middle"><textPath startOffset="22.20632615414155" xlink:href="#id8">August</textPath></text><path d="M 89.7882731507175 118.34994917583269 l -7.53963425081395 13.5483358837124 a36.504950495049506,36.504950495049506 0 0,0 -0.5464464857904333,-0.3102865760090465 l 7.77172950352559 -13.416546141908722" fill="#ff5007" stroke="none" /><path d="M 89.1626897886671 117.98757091392108 l -15.389900215245031 25.54387722429528 a50.82178217821782,50.82178217821782 0 0,0 -0.7454364765428851,-0.4579079678311811 l 15.827315891720225 -25.27518078963572" fill="#d5ff1c" stroke="none" /><path d="M 88.8546689885994 117.79835938074946 l -8.197414605273423 13.090731086265512 a36.445544554455445,36.445544554455445 0 0,0 -0.528839079050106,-0.3375301214047981 l 8.421535486370452 -12.94768653603691" fill="#ff4f07" stroke="none" /><path d="M 88.54995079064634 117.60387380957326 l -8.437730746921165 12.972585933221596 a36.475247524752476,36.475247524752476 0 0,0 -0.5233769023300239,-0.34686567199414564 l 8.65978234799115 -12.825422240136133" fill="#ff4f07" stroke="none" /><path d="M 88.24862548938628 117.40417183066458 l -21.857224160476704 32.37126726637047 a60.05940594059406,60.05940594059406 0 0,0 -0.8518228844307155,-0.5858915472471931 l 22.41120392953031 -31.990234929758174" fill="#5dff2a" stroke="none" /><path d="M 87.95078237400918 117.19931262002967 l -12.338944216714788 17.61287459250564 a42.504950495049506,42.504950495049506 0 0,0 -0.5956212077061426,-0.4249599169744303 l 12.640292752269817 -17.39787041368699" fill="#ffaf10" stroke="none" /><path d="M 87.65650970185807 116.9893568818739 l -20.252402752255506 27.875040994305127 a55.45544554455446,55.45544554455446 0 0,0 -0.7674374260658281,-0.5677318609658495 l 20.7292251487399 -27.52229918459951" fill="#97ff23" stroke="none" /><path d="M 86.51685102203217 116.09983520530335 l -19.604918174470914 23.40966137348209 a51.53465346534654,51.53465346534654 0 0,0 -0.6751886819502219,-0.5754104426636197 l 20.004972332998193 -23.06872654059552" fill="#cbff1d" stroke="none" /><path d="M 85.97065885151581 115.62618273729859 l -10.397984104392807 11.58149894532455 a36.56435643564356,36.56435643564356 0 0,0 -0.4647163431489419,-0.4245073611484087 l 10.595799997008603 -11.400798817589564" fill="#ff5107" stroke="none" /><path d="M 84.9287848128048 114.62390073753433 l -11.148862154035482 10.817963346153398 a36.53465346534654,36.53465346534654 0 0,0 -0.43405508034495377,-0.4551050164123407 l 11.333423785759395 -10.624451213158558" fill="#ff5007" stroke="none" /><path d="M 83.06392112726016 112.41649034213515 l -24.529766288098436 17.983714441791214 a51.415841584158414,51.415841584158414 0 0,0 -0.5171459397423246,-0.7182704794399997 l 24.835692020216367 -17.558810356900075" fill="#cdff1d" stroke="none" /><path d="M 82.85270091963577 112.12312394758628 l -24.908452836681846 17.61025218411756 a51.504950495049506,51.504950495049506 0 0,0 -0.5055801796051766,-0.7283259566728716 l 25.207893923449156 -17.178884965257673" fill="#ccff1d" stroke="none" /><path d="M 82.24976979558568 111.22182372390057 l -25.784280650542446 16.30100843627423 a51.504950495049506,51.504950495049506 0 0,0 -0.46731020483135005,-0.7534528449966504 l 26.06105549504175 -15.854759259912315" fill="#ccff1d" stroke="none" /><line stroke="#e1ed5e" stroke-width="0.3" x1="26.63291911575756" x2="22.317208475507996" y1="142.92168965132927" y2="145.44649492493687" /><path d="M 25.769776987707644 143.4266507060508 a86.0,86.0 0 0,1 -11.730757126820373,-40.83630448921669" fill="none" id="id9" stroke="none" /><text fill="#e1ed5e" style="font-size:6.75px; font-family:Arial;" text-anchor="middle"><textPath startOffset="21.46611528233685" xlink:href="#id9">September</textPath></text><path d="M 81.87401531095188 110.60418214915194 l -26.278832116371056 15.37381428978888 a51.445544554455445,51.445544554455445 0 0,0 -0.44058945214155965,-0.7682048472042607 l 26.53957356466499 -14.919189596726314" fill="#ccff1d" stroke="none" /><path d="M 81.69416730710424 110.29060199501025 l -18.66832442938874 10.494376291941142 a42.415841584158414,42.415841584158414 0 0,0 -0.3523011135830755,-0.6395288539291505 l 18.846201952423332 -10.17147691961417" fill="#ffae10" stroke="none" /><path d="M 81.51974371655577 109.97397251340807 l -26.87086769360775 14.50246639856223 a51.53465346534654,51.53465346534654 0 0,0 -0.41460240202238,-0.7842714976316423 l 27.116522603855017 -14.037779885844461" fill="#cbff1d" stroke="none" /><path d="M 81.18737489456691 109.33194174019688 l -29.589305682095606 14.677679229277132 a54.02970297029703,54.02970297029703 0 0,0 -0.4061148885683539,-0.8367169577074215 l 29.83757382727868 -14.166173315604425" fill="#a9ff21" stroke="none" /><path d="M 81.02952815118164 109.00673069616217 l -27.61048873045841 13.108806062731071 a51.56435643564356,51.56435643564356 0 0,0 -0.37378113884874237,-0.8050913199490185 l 27.83204448614698 -12.631594675503226" fill="#cbff1d" stroke="none" /><path d="M 80.87730276802145 108.67885076344099 l -29.88766681942898 13.564540443567607 a53.82178217821782,53.82178217821782 0 0,0 -0.37562200066042556,-0.846928450177136 l 30.116729904820684 -13.048063656897774" fill="#acff20" stroke="none" /><path d="M 80.73074385275274 108.34839909993369 l -14.227088697118912 6.1638816551137 a36.504950495049506,36.504950495049506 0 0,0 -0.24484221232624498,-0.5787346647189403 l 14.331081890637464 -5.918072464728601" fill="#ff5007" stroke="none" /><path d="M 80.20201598880116 107.00284435728193 l -28.73087920154173 10.16254357930871 a51.475247524752476,51.475247524752476 0 0,0 -0.2882838613513226,-0.8378878437712143 l 28.90155389383628 -9.666483032448198" fill="#ccff1d" stroke="none" /><path d="M 80.0844068197444 106.66101706037122 l -29.014230517204066 9.704169126141956 a51.5940594059406,51.5940594059406 0 0,0 -0.27445029700816825,-0.8446711608749018 l 29.176973065228484 -9.20329906528925" fill="#caff1d" stroke="none" /><path d="M 79.97269907076064 106.31721596034903 l -29.14864590691272 9.194363823478287 a51.56435643564356,51.56435643564356 0 0,0 -0.259720400182967,-0.8487812951197241 l 29.302593079601817 -8.691255555806515" fill="#cbff1d" stroke="none" /><path d="M 79.86692584326677 105.97154293290107 l -29.786698115902343 8.834842868195935 a52.069306930693074,52.069306930693074 0 0,0 -0.24747143923431342,-0.8614805451774304 l 29.93436219202276 -8.320804847513909" fill="#c4ff1e" stroke="none" /><path d="M 79.67330655649465 105.27499134158121 l -29.555644780655584 7.670001554661224 a51.53465346534654,51.53465346534654 0 0,0 -0.21543616647535144,-0.8605603941237979 l 29.683292261425994 -7.160113321140034" fill="#cbff1d" stroke="none" /><path d="M 79.50377843672027 104.57218783832718 l -14.698139084275565 3.278782509238867 a36.05940594059406,36.05940594059406 0 0,0 -0.12992712445336482,-0.6069762704791757 l 14.752400247453371 -3.0252924193435278" fill="#ff4806" stroke="none" /><path d="M 79.35854240842038 103.8639653848113 l -30.1593008374848 5.645652393932204 a51.68316831683168,51.68316831683168 0 0,0 -0.15616575718502354,-0.8758605003171261 l 30.25201303700901 -5.1256731428818645" fill="#c9ff1d" stroke="none" /><path d="M 79.29508885075956 103.50808413554451 l -30.632725688975246 5.190178225996545 a52.069306930693074,52.069306930693074 0 0,0 -0.14212006309003863,-0.8849817685258791 l 30.717527506426578 -4.662117227777452" fill="#c4ff1e" stroke="none" /><path d="M 79.23777060512086 103.15116336523772 l -30.13019428450637 4.572975406978648 a51.475247524752476,51.475247524752476 0 0,0 -0.1254180899409249,-0.8771738289363024 l 30.204446425463892 -4.053656106061944" fill="#ccff1d" stroke="none" /><path d="M 79.18660465613746 102.79330883721812 l -30.38108061508649 4.077361697325465 a51.65346534653465,51.65346534653465 0 0,0 -0.11068228489353764,-0.8822467118729793 l 30.446764409226873 -3.5537972311650767" fill="#c9ff1d" stroke="none" /><path d="M 79.10278846688536 102.07522291339032 l -30.355638252487612 3.014503439960188 a51.504950495049506,51.504950495049506 0 0,0 -0.08001760969667802,-0.8829876552429792 l 30.403030458461366 -2.4915343961686425" fill="#ccff1d" stroke="none" /><path d="M 79.07016306316243 101.71520430193888 l -30.403030458461366 2.4915343961686425 a51.504950495049506,51.504950495049506 0 0,0 -0.0648065732334406,-0.8842342027080864 l 30.441413590359144 -1.9678270569637957" fill="#ccff1d" stroke="none" /><path d="M 79.04373962182676 101.35467743843564 l -30.619260213087628 1.9793236123111986 a51.68316831683168,51.68316831683168 0 0,0 -0.04974787758938467,-0.8882817730924166 l 30.648794441564544 -1.4519701228833441" fill="#c9ff1d" stroke="none" /><path d="M 79.0235259727143 100.99374915477108 l -21.68854669582157 1.0274832137732088 a42.71287128712871,42.71287128712871 0 0,0 -0.028470909420046903,-0.7347076644892117 l 21.703019738092816 -0.6539983022700003" fill="#ffb310" stroke="none" /><line stroke="#e1ed5e" stroke-width="0.3" x1="15.007084014347285" x2="10.007500721073583" y1="101.09737516637583" y2="101.16192664675087" /><path d="M 14.007167355692545 101.11028546245083 a86.0,86.0 0 0,1 10.666146001902534,-42.60595125391555" fill="none" id="id10" stroke="none" /><text fill="#e1ed5e" style="font-size:6.75px; font-family:Arial;" text-anchor="middle"><textPath startOffset="22.20632615414155" xlink:href="#id10">October</textPath></text><path d="M 79.00175016825051 100.2711162175752 l -33.02695023041788 0.426423244616163 a54.02970297029703,54.02970297029703 0 0,0 -0.004002578826582771,-0.9300583580587192 l 33.02939710653396 0.14214459164623156" fill="#a9ff21" stroke="none" /><path d="M 79.00486145842228 99.54816195383935 l -62.7478468717874 -1.350401402457496 a83.76237623762376,83.76237623762376 0 0,0 0.043430016456974425,-1.441230812251083 l 62.715305160874784 2.4303023621335735" fill="#4dd5ff" stroke="none" /><path d="M 79.01574976396665 99.18683210126434 l -15.433960569642636 -0.5980867147702121 a36.445544554455445,36.445544554455445 0 0,0 0.02968817920438043,-0.626670540556673 l 15.421378782204757 0.8636683619498943" fill="#ff4f07" stroke="none" /><path d="M 79.03285615573316 98.82574320788736 l -33.03733839110789 -1.850243375408043 a54.08910891089109,54.08910891089109 0 0,0 0.06006314537618614,-0.9291502743921719 l 33.00059465472729 2.4186527140532266" fill="#a9ff21" stroke="none" /><path d="M 79.05617556472873 98.46500227214037 l -44.583388649339824 -3.267569420691298 a65.70297029702971,65.70297029702971 0 0,0 0.09237686250533587,-1.1272317045776439 l 44.520537303015 4.034515042476721" fill="#32ff49" stroke="none" /><path d="M 79.08570108090925 98.10471618934814 l -29.670497617889723 -2.6887831146871433 a50.79207920792079,50.79207920792079 0 0,0 0.08640186008965907,-0.8700549398803736 l 29.619818632117838 3.199113585271947" fill="#d5ff1c" stroke="none" /><path d="M 79.12142395522702 97.74499172005258 l -15.35623697776797 -1.6585633742187562 a36.445544554455445,36.445544554455445 0 0,0 0.07273428127948572,-0.6231429039255935 l 15.325412343484896 1.9226500164692113" fill="#ff4f07" stroke="none" /><path d="M 79.21141760316559 97.0276538004421 l -30.28605356257348 -4.330292200204584 a51.5940594059406,51.5940594059406 0 0,0 0.1332701741102292,-0.8780839346180144 l 30.207027495023947 4.85097524721469" fill="#caff1d" stroke="none" /><path d="M 79.26566170972629 96.67025291283419 l -30.089718650383073 -4.832136508390555 a51.475247524752476,51.475247524752476 0 0,0 0.14802354170502616,-0.8736433222753467 l 30.002083247157824 5.34936561898173" fill="#ccff1d" stroke="none" /><path d="M 79.32604984820605 96.31383870115002 l -30.46995199175288 -5.432786525320626 a51.95049504950495,51.95049504950495 0 0,0 0.1645452176543876,-0.8790071322743428 l 30.37192105018863 5.956471735057542" fill="#c5ff1e" stroke="none" /><path d="M 79.3925641242962 95.95851677861259 l -30.28447789937235 -5.939322584188854 a51.86138613861387,51.86138613861387 0 0,0 0.1793433512481181,-0.8745418731806214 l 30.177755252209238 6.459740113532878" fill="#c7ff1e" stroke="none" /><path d="M 79.46518482838121 95.60439243477599 l -15.132445126468731 -3.239195956834099 a36.475247524752476,36.475247524752476 0 0,0 0.13670508169943119,-0.6128220760857851 l 15.074445657767262 3.4991962024698435" fill="#ff4f07" stroke="none" /><path d="M 79.54389044137918 95.25157060432595 l -30.091023961761902 -6.984959789958997 a51.89108910891089,51.89108910891089 0 0,0 0.2094601102466147,-0.8683473837214056 l 29.966331051254475 7.501892405339799" fill="#c6ff1e" stroke="none" /><path d="M 79.71946130924805 94.55025226153421 l -29.459848989253548 -7.916394522495565 a51.504950495049506,51.504950495049506 0 0,0 0.23744574234502183,-0.8542186702567943 l 29.319216476342167 8.422324496171303" fill="#ccff1d" stroke="none" /><path d="M 79.81627453868168 94.20196356495316 l -29.404861704608017 -8.446927196744344 a51.5940594059406,51.5940594059406 0 0,0 0.2525507167142363,-0.85147546707392 l 29.255105090782074 8.951832050564803" fill="#caff1d" stroke="none" /><path d="M 80.2630227832202 92.82701384747504 l -58.987599517759165 -21.437793126287463 a83.76237623762376,83.76237623762376 0 0,0 0.5041514291731403,-1.3508751818631641 l 58.609843500084395 22.44999144517997" fill="#4dd5ff" stroke="none" /><path d="M 80.52162464483688 92.15188598940014 l -28.377265368908095 -11.433603155470793 a51.5940594059406,51.5940594059406 0 0,0 0.3389933944535659,-0.8208993933841561 l 28.17625028756833 11.92037711930826" fill="#caff1d" stroke="none" /><path d="M 80.65960295795068 91.81776055985345 l -28.094183539157935 -11.885657574300565 a51.504950495049506,51.504950495049506 0 0,0 0.3524638035824492,-0.8135350541539418 l 27.885429025732805 12.367491773041106" fill="#ccff1d" stroke="none" /><path d="M 80.803312248108 91.48605970444005 l -27.912581342213556 -12.379534121408236 a51.53465346534654,51.53465346534654 0 0,0 0.36662656303901686,-0.807813033463942 l 27.69535246221119 12.858169163714248" fill="#cbff1d" stroke="none" /><path d="M 81.6062741919709 89.86733742301443 l -26.84911603095621 -14.790534341512176 a51.65346534653465,51.65346534653465 0 0,0 0.4357150803288021,-0.7750885095097731 l 26.590543309334976 15.250506360956733" fill="#c9ff1d" stroke="none" /><line stroke="#e1ed5e" stroke-width="0.3" x1="26.266209847984243" x2="21.928928074336255" y1="57.711370442889674" y2="55.22380399835377" /><path d="M 25.398753493254645 57.213857153982495 a86.0,86.0 0 0,1 29.58750427330803,-30.492523968695096" fill="none" id="id11" stroke="none" /><text fill="#e1ed5e" style="font-size:6.75px; font-family:Arial;" text-anchor="middle"><textPath startOffset="21.46611528233685" xlink:href="#id11">November</textPath></text><path d="M 81.78341655067845 89.55222093294921 l -26.590543309334976 -15.250506360956733 a51.65346534653465,51.65346534653465 0 0,0 0.4489923990043916,-0.7674735529230299 l 26.32409123586026 15.705959326233655" fill="#c9ff1d" stroke="none" /><path d="M 81.96595687620814 89.24020034530311 l -26.32409123586026 -15.705959326233655 a51.65346534653465,51.65346534653465 0 0,0 0.4621366715421057,-0.7596311773591196 l 26.049838766031936 16.15675827679985" fill="#c9ff1d" stroke="none" /><path d="M 82.34701348167596 88.62581576622439 l -25.667991712640905 -16.538417810921246 a51.53465346534654,51.53465346534654 0 0,0 0.4868880306280175,-0.7415638741142119 l 25.379507046654968 16.977799749013126" fill="#cbff1d" stroke="none" /><path d="M 82.54541684631803 88.32363383020206 l -25.478259992361792 -17.043861226635745 a51.65346534653465,51.65346534653465 0 0,0 0.5007324670467617,-0.7347631082499957 l 25.18110305964629 17.479902358156156" fill="#c9ff1d" stroke="none" /><path d="M 82.95767976084542 87.72973835380427 l -24.755958819818613 -17.823986860881217 a51.504950495049506,51.504950495049506 0 0,0 0.5242158838774537,-0.7150298764831935 l 24.445480323427525 18.24747918103591" fill="#ccff1d" stroke="none" /><path d="M 83.17141714833178 87.43820079747576 l -24.469283128026774 -18.26524693096876 a51.53465346534654,51.53465346534654 0 0,0 0.5367556488135378,-0.706307516048683 l 24.151251538989126 18.68373922289847" fill="#cbff1d" stroke="none" /><path d="M 83.39014120810768 87.1503855733568 l -24.104264668290703 -18.647389535694387 a51.475247524752476,51.475247524752476 0 0,0 0.5482013837774373,-0.6961600866752028 l 23.779709203919293 19.059542016322638" fill="#ccff1d" stroke="none" /><path d="M 83.6137871275137 86.86637796730984 l -23.779709203919293 -19.059542016322638 a51.475247524752476,51.475247524752476 0 0,0 0.5601034133403278,-0.6866205573821691 l 23.448107298502574 19.466046743312887" fill="#ccff1d" stroke="none" /><path d="M 83.84228863543731 86.58626213691792 l -23.539522921498687 -19.541937763754657 a51.5940594059406,51.5940594059406 0 0,0 0.5731593555486072,-0.6784398932025824 l 23.199652952462955 19.944236606586355" fill="#caff1d" stroke="none" /><path d="M 84.07557802195018 86.31012108654704 l -23.199652952462955 -19.944236606586355 a51.5940594059406,51.5940594059406 0 0,0 0.584752663317236,-0.6684733788903647 l 22.852908425567875 20.340625541679664" fill="#caff1d" stroke="none" /><path d="M 84.5562425177563 85.77008943001954 l -22.47754801871113 -20.710859938486415 a51.56435643564356,51.56435643564356 0 0,0 0.6070663777359101,-0.6475760852895402 l 22.11771431900476 21.094705440654003" fill="#cbff1d" stroke="none" /><path d="M 84.80347519578584 85.50635884689758 l -22.139208696379892 -21.11520564030479 a51.5940594059406,51.5940594059406 0 0,0 0.6184794539571193,-0.6373974431816624 l 21.772464978719658 21.493167279036577" fill="#caff1d" stroke="none" /><path d="M 85.05521093208273 85.24692304244772 l -21.772464978719658 -21.493167279036577 a51.5940594059406,51.5940594059406 0 0,0 0.6293595687544229,-0.6266568987563792 l 21.39926960979792 21.864760028443065" fill="#caff1d" stroke="none" /><path d="M 85.31137513191541 84.99185889309783 l -21.39926960979792 -21.864760028443065 a51.5940594059406,51.5940594059406 0 0,0 0.6400531907287318,-0.6157306623675549 l 21.01973317545676 22.229873777572934" fill="#caff1d" stroke="none" /><path d="M 85.57189188830299 84.74124197986013 l -21.080955699268767 -22.294620982750327 a51.68316831683168,51.68316831683168 0 0,0 0.6516807386095479,-0.6056662238049694 l 20.694067076864364 22.654191792629945" fill="#c9ff1d" stroke="none" /><path d="M 85.83668400450813 84.49514656593479 l -20.654001119309928 -22.610330821105006 a51.62376237623762,51.62376237623762 0 0,0 0.6612488027697336,-0.593675704043838 l 20.261741328944225 22.962505533918122" fill="#caff1d" stroke="none" /><path d="M 86.37877921826538 84.01681056812374 l -19.844211322753406 -23.285268903582107 a51.5940594059406,51.5940594059406 0 0,0 0.6809002239066836,-0.5702343558797001 l 19.44045356188761 23.623404416855617" fill="#caff1d" stroke="none" /><path d="M 86.65592168130627 83.78471172551755 l -19.44045356188761 -23.623404416855617 a51.5940594059406,51.5940594059406 0 0,0 0.6906149882510081,-0.5584292914458256 l 19.030935175072106 23.954539805565577" fill="#caff1d" stroke="none" /><path d="M 86.93701828274178 83.55741782278169 l -12.989075172889015 -16.34955483816757 a41.88118811881188,41.88118811881188 0 0,0 0.5683226269097734,-0.44358482488720974 l 12.705719990819816 16.570718052278" fill="#ffa60f" stroke="none" /><path d="M 87.51073957382395 83.11751280151077 l -18.08911269646997 -24.452145532182428 a51.415841584158414,51.415841584158414 0 0,0 0.7160382707094821,-0.5202322553498556 l 17.665529109406705 24.75989702234895" fill="#cdff1d" stroke="none" /><path d="M 87.80319425747018 82.90503203632743 l -12.17955424925892 -17.07078837673668 a41.97029702970297,41.97029702970297 0 0,0 0.5917189529961641,-0.41453694084094644 l 11.883904156679096 17.27791016034157" fill="#ffa70f" stroke="none" /><path d="M 88.39885842347998 82.49532879139004 l -16.80278497080128 -25.353300307802826 a51.415841584158414,51.415841584158414 0 0,0 0.7419378760500692,-0.4825770329276448 l 16.363880068966925 25.63877626489001" fill="#cdff1d" stroke="none" /><path d="M 88.70189139769569 82.29822771554957 l -16.14015514614902 -25.288246120643464 a51.0,51.0 0 0,0 0.7440677728102688,-0.46593517107288374 l 15.702468220966509 25.56232563303928" fill="#d2ff1c" stroke="none" /><path d="M 89.00827224532344 82.1063720568725 l -10.976180756437975 -17.868318709827456 a41.97029702970297,41.97029702970297 0 0,0 0.6188379072623221,-0.37284291490094906 l 10.666980782958003 18.054608234187025" fill="#ffa70f" stroke="none" /><line stroke="#e1ed5e" stroke-width="0.3" x1="56.762969772571076" x2="54.21961505331055" y1="26.818313649435495" y2="22.513508569990535" /><path d="M 56.25429882871897 25.957352633546506 a86.0,86.0 0 0,1 42.265352541879196,-11.944610805530505" fill="none" id="id12" stroke="none" /><text fill="#e1ed5e" style="font-size:6.75px; font-family:Arial;" text-anchor="middle"><textPath startOffset="22.20632615414155" xlink:href="#id12">December</textPath></text><path d="M 89.3179101791058 81.91981866633112 l -15.849380795074994 -26.826181356462023 a52.15841584158416,52.15841584158416 0 0,0 0.7769201383181016,-0.4500422908388644 l 15.385263924291571 27.095027804690936" fill="#c3ff1e" stroke="none" /><path d="M 89.63071344664047 81.73862282372117 l -15.326597522292365 -26.991710253481433 a52.039603960396036,52.039603960396036 0 0,0 0.7827646335866706,-0.43560767110969817 l 14.85970879963365 27.251533322151317" fill="#c4ff1e" stroke="none" /><path d="M 89.94658935756843 81.56283822128135 l -14.546872824904524 -26.677816831158665 a51.38613861386139,51.38613861386139 0 0,0 0.7802249922291823,-0.41676916994621427 l 14.085502786147035 26.92426472760663" fill="#cdff1d" stroke="none" /><path d="M 90.58718382345135 81.22770947309562 l -13.713155108691796 -27.34859864598518 a51.5940594059406,51.5940594059406 0 0,0 0.7973216537523198,-0.39124227276633794 l 13.240362187929051 27.58059607888635" fill="#caff1d" stroke="none" /><path d="M 90.91171255644093 81.06846463323043 l -12.970413055942146 -27.018273246210022 a50.97029702970297,50.97029702970297 0 0,0 0.7942186554595075,-0.3728963080477326 l 12.50341618918303 27.237534536897762" fill="#d3ff1c" stroke="none" /><path d="M 91.23893434514133 80.91482961587045 l -12.50341618918303 -27.237534536897762 a50.97029702970297,50.97029702970297 0 0,0 0.8005197803550427,-0.3591698908537997 l 12.032714290361213 27.448724758268092" fill="#d3ff1c" stroke="none" /><path d="M 91.56875222667455 80.76684994638697 l -11.996938132907214 -27.36711308901655 a50.88118811881188,50.88118811881188 0 0,0 0.8051735826099037,-0.3447333077789919 l 11.524080792507002 27.569565924758326" fill="#d4ff1c" stroke="none" /><path d="M 91.90106846888425 80.62456947434976 l -11.53553614120731 -27.596971059872406 a50.910891089108915,50.910891089108915 0 0,0 0.8114617362454256,-0.33101561680530284 l 11.058790535373504 27.791447562861286" fill="#d4ff1c" stroke="none" /><path d="M 92.23578459929587 80.48803036053334 l -11.047808618257935 -27.76384930311663 a50.88118811881188,50.88118811881188 0 0,0 0.8165627133741928,-0.3168136467262876 l 10.568262739884068 27.94990565373347" fill="#d4ff1c" stroke="none" /><path d="M 92.91201910852362 80.23233633223022 l -21.213815511123094 -59.16319140169854 a83.85148514851485,83.85148514851485 0 0,0 1.3628581365337278,-0.4754744434156319 l 20.19227537052608 59.51958669828638" fill="#4dd4ff" stroke="none" /><path d="M 93.59665428221793 80.00007090966166 l -9.102351409294185 -28.429885057694534 a50.851485148514854,50.851485148514854 0 0,0 0.8359369758404985,-0.25972968752633213 l 8.611629060742958 28.58235488010339" fill="#d5ff1c" stroke="none" /><path d="M 93.94186890950719 79.89281104454417 l -8.697316912093632 -28.866756421198943 a51.148514851485146,51.148514851485146 0 0,0 0.8451921429706768,-0.24673476322772364 l 8.199134551399533 29.012189513345366" fill="#d0ff1d" stroke="none" /><path d="M 94.63758080256005 79.69619591428918 l -7.683353107505896 -29.09158916382611 a51.089108910891085,51.089108910891085 0 0,0 0.8521933684042446,-0.2172430644831051 l 7.181450850416652 29.21953522447808" fill="#d1ff1c" stroke="none" /><path d="M 95.33964822691252 79.52364482259891 l -6.624686749579804 -29.10712440351923 a50.851485148514854,50.851485148514854 0 0,0 0.8551700937046283,-0.1869070597735129 l 6.122673931721654 29.21684496138861" fill="#d5ff1c" stroke="none" /><path d="M 95.692805502759 79.44645832069477 l -6.147042783191193 -29.333130911483686 a50.97029702970297,50.97029702970297 0 0,0 0.860265970798294,-0.17256126078006578 l 5.641210402925762 29.434596128340964" fill="#d3ff1c" stroke="none" /><path d="M 96.04723909329186 79.375362276772 l -5.63561951055418 -29.405424080641914 a50.94059405940594,50.94059405940594 0 0,0 0.8626058943543677,-0.15763571355514486 l 5.128618495096919 29.498075275547794" fill="#d3ff1c" stroke="none" /><path d="M 96.40284397218896 79.31037775812273 l -5.143882240618042 -29.585867166248832 a51.02970297029703,51.02970297029703 0 0,0 0.8667049842339384,-0.1430137486134665 l 4.633848050245218 29.670027177801927" fill="#d2ff1c" stroke="none" /><path d="M 96.75951476605007 79.25152402106235 l -4.6705154927793044 -29.904804840929934 a51.26732673267327,51.26732673267327 0 0,0 0.8730850633382634,-0.12867004291112813 l 4.1550614490123925 29.98076936800203" fill="#cfff1d" stroke="none" /><path d="M 97.11714578562143 79.19881850522333 l -4.126518337978942 -29.77481707597454 a51.05940594059406,51.05940594059406 0 0,0 0.8716211905162553,-0.11316144622468036 l 3.6133824189548283 29.841436845363354" fill="#d2ff1c" stroke="none" /><path d="M 97.83486435360386 79.11191278185805 l -6.495406939188433 -62.66426165442583 a84.0,84.0 0 0,0 1.4394994916390547,-0.13669782193927782 l 5.415782320459142 62.766785020880285" fill="#4dd2ff" stroke="none" /><path d="M 98.55514903715128 79.0497635885617 l -2.0558982583109007 -29.810378825893814 a50.88118811881188,50.88118811881188 0 0,0 0.8742792225427521,-0.05273891025676819 l 1.5424569869285256 29.84135100553089" fill="#d4ff1c" stroke="none" /></svg>